<svg id="Layer_1" data-name="Layer 1" xmlns="http://www.w3.org/2000/svg" xmlns:xlink="http://www.w3.org/1999/xlink" viewBox="0 0 601 601"><defs><style>.cls-1{fill:#d9633b;}.cls-2{fill:#947554;}.cls-3{fill:#5dae62;}.cls-4{fill:#437e4f;}.cls-5{fill:none;}.cls-6{fill:#11050a;}.cls-17,.cls-18,.cls-6,.cls-7,.cls-8{opacity:0.6;isolation:isolate;}.cls-7{fill:url(#linear-gradient);}.cls-8{fill:url(#linear-gradient-2);}.cls-9{fill:#fcd1a6;}.cls-10{fill:#7a4d29;}.cls-11{fill:#fff;}.cls-12{fill:#3c8bcb;}.cls-13{fill:#010101;}.cls-14{fill:#4a4240;}.cls-15{fill:#f2b8b6;}.cls-16{fill:#f5bbb8;}.cls-17{fill:url(#linear-gradient-3);}.cls-18{fill:url(#linear-gradient-4);}.cls-19{fill:#b36725;}.cls-20{fill:#a13f29;}.cls-21{fill:#591a1b;}.cls-22{fill:#d0d723;}.cls-23{fill:#56541c;}.cls-24{fill:#f1b304;}.cls-25{fill:#8d4d14;}.cls-26{fill:#ffdc0e;}.cls-27{font-size:77.62px;fill:#f1f1ee;font-family:DKCoalBrush-Regular, DK Coal Brush;}.cls-28{letter-spacing:-0.05em;}.cls-29{letter-spacing:-0.02em;}.cls-30{letter-spacing:-0.03em;}.cls-31{letter-spacing:-0.03em;}.cls-32{letter-spacing:-0.02em;}</style><linearGradient id="linear-gradient" x1="102.09" y1="845.35" x2="113.96" y2="845.35" gradientTransform="matrix(0.6, -0.15, -0.16, -0.65, 282.25, 777.65)" gradientUnits="userSpaceOnUse"><stop offset="0" stop-color="#fff"/><stop offset="1" stop-color="#010101"/></linearGradient><linearGradient id="linear-gradient-2" x1="129.5" y1="841.22" x2="138.52" y2="841.22" gradientTransform="matrix(1, 0, 0, -1, 182.61, 1019.11)" xlink:href="#linear-gradient"/><linearGradient id="linear-gradient-3" x1="275.3" y1="845.49" x2="287.87" y2="845.49" gradientTransform="matrix(0.98, 0.22, 0.22, -0.98, 6.56, 932.65)" xlink:href="#linear-gradient"/><linearGradient id="linear-gradient-4" x1="-67.28" y1="878.1" x2="-53.55" y2="878.1" gradientTransform="matrix(0.94, -0.33, -0.33, -0.94, 456.76, 965.56)" xlink:href="#linear-gradient"/></defs><title>Artboard 2</title><circle class="cls-1" cx="519.75" cy="59.23" r="42.8"/><path class="cls-2" d="M220.79,231.75a6.83,6.83,0,0,1,.67,1.45c.55,1.55,1,3.11,1.43,4.7s.81,3.3,1.06,4.69a7.33,7.33,0,0,1,.21,3.11c-.66.92-4.95,2.42-6.9,1.66-.63-.25-.43-1.68-1.85-3.54s-.41-5.46-1.39-6.38-.37-3.65-.12-4a4.38,4.38,0,0,1,1.45-1.12,11,11,0,0,1,2.64-1C219.18,231,220.3,231.05,220.79,231.75Z"/><path class="cls-2" d="M214.62,206.57a7.18,7.18,0,0,1,.68,1.46q.82,2.33,1.43,4.71c.42,1.62.8,3.3,1.05,4.68a7.46,7.46,0,0,1,.22,3.12c-.66.91-5,2.42-6.9,1.66-.64-.25-.44-1.69-1.86-3.55s-.41-5.46-1.38-6.37-.38-3.65-.13-4a4.31,4.31,0,0,1,1.46-1.11,10.88,10.88,0,0,1,2.64-1C213,205.82,214.13,205.86,214.62,206.57Z"/><path class="cls-2" d="M217.94,220.12a6.83,6.83,0,0,1,.67,1.45,49.06,49.06,0,0,1,1.43,4.71c.43,1.62.81,3.3,1.06,4.68a7.21,7.21,0,0,1,.21,3.12c-.66.91-4.95,2.42-6.9,1.66-.63-.25-.43-1.68-1.85-3.55s-.41-5.45-1.39-6.37-.37-3.65-.12-4a4.44,4.44,0,0,1,1.46-1.12,10.54,10.54,0,0,1,2.63-1C216.33,219.36,217.45,219.41,217.94,220.12Z"/><path class="cls-2" d="M224,244.88a7.72,7.72,0,0,1,.67,1.46q.82,2.31,1.43,4.7c.42,1.62.81,3.3,1.06,4.68a7.38,7.38,0,0,1,.21,3.12c-.66.91-4.95,2.42-6.9,1.66-.63-.25-.44-1.68-1.86-3.55s-.4-5.45-1.38-6.37-.37-3.65-.12-4a4,4,0,0,1,1.45-1.12,10.47,10.47,0,0,1,2.64-1C222.4,244.13,223.52,244.17,224,244.88Z"/><path class="cls-2" d="M226.64,255.63a7.76,7.76,0,0,1,.68,1.46c.55,1.55,1,3.12,1.43,4.71s.8,3.3,1.05,4.69a7.16,7.16,0,0,1,.21,3.11c-.66.92-4.95,2.42-6.9,1.66-.63-.25-.43-1.68-1.85-3.55s-.41-5.45-1.38-6.37-.38-3.65-.13-4a4.44,4.44,0,0,1,1.46-1.12,10.54,10.54,0,0,1,2.63-1C225,254.88,226.15,254.92,226.64,255.63Z"/><path class="cls-2" d="M229.52,267.37a7.72,7.72,0,0,1,.67,1.46q.83,2.31,1.43,4.7c.42,1.62.81,3.3,1,4.68a7.46,7.46,0,0,1,.22,3.12c-.66.91-5,2.42-6.9,1.66-.64-.25-.44-1.68-1.86-3.55s-.41-5.45-1.38-6.37-.38-3.65-.13-4a4.19,4.19,0,0,1,1.46-1.12,10.47,10.47,0,0,1,2.64-1C227.91,266.62,229,266.66,229.52,267.37Z"/><path class="cls-2" d="M231.93,277.22a7.72,7.72,0,0,1,.67,1.46q.83,2.31,1.43,4.7c.42,1.62.81,3.29,1.06,4.68a7.38,7.38,0,0,1,.21,3.12c-.66.91-5,2.42-6.9,1.66-.63-.25-.44-1.69-1.85-3.55s-.41-5.46-1.39-6.37-.37-3.65-.12-4a4.25,4.25,0,0,1,1.45-1.11,11,11,0,0,1,2.64-1C230.32,276.48,231.44,276.51,231.93,277.22Z"/><path class="cls-3" d="M202.28,201.17c-8.12,6.76-19.65,28.35-19.68,32.62s2.62,11.89,2.62,11.89.07-10.57.85-8.82,1.39,6.54,1.06,7.38,1.17-9.15,1.79-7.92a24.46,24.46,0,0,1,1.24,4.49s-1-10.28.22-9.37,1.23,5.35,1.23,5.35.53-9,1.47-7.77.92,4.82.92,4.82.86-10.19,1.64-7.42a26.21,26.21,0,0,1,.93,4.48s.68-8.32,1.62-7.25.45,4.28.45,4.28,1-9.5,2.11-8.42,0,5.62,0,5.62,1.81-10.82,2.9-8.55,0,6.13,0,6.13,4.63-6.59,4.17-8.32,9.26-12.33,6.73-13.65S202.28,201.17,202.28,201.17Z"/><path class="cls-4" d="M201.42,197.1c-10.09,2.52-28.95,16.88-30.58,20.7s-2,11.82-2,11.82,4-9.46,4.11-7.55-1.18,6.49-1.79,7.09,4.53-7.7,4.65-6.33a24.08,24.08,0,0,1-.54,4.58s2.9-9.69,3.73-8.32-.87,5.34-.87,5.34,3.89-7.86,4.29-6.33-1,4.73-1,4.73,4.63-8.78,4.31-6a26.3,26.3,0,0,1-.83,4.42s3.78-7.17,4.25-5.81-1.19,4.06-1.19,4.06,4.5-8.09,5.13-6.64-2.15,5-2.15,5,5.75-8.94,5.92-6.42-2.35,5.49-2.35,5.49,6.79-3.9,7-5.65,13.25-7,11.4-9.32S201.42,197.1,201.42,197.1Z"/><path class="cls-3" d="M205.54,192.31c-10.41-1.52-33,4.54-35.81,7.43s-5.81,10.13-5.81,10.13,6.93-7.18,6.38-5.4-3.25,5.53-4,5.86,6.82-5.39,6.49-4.08a23,23,0,0,1-2,4s5.93-7.84,6.26-6.24-2.58,4.59-2.58,4.59,6.27-5.77,6.16-4.2-2.46,4-2.46,4,7.27-6.33,6-3.85a23.57,23.57,0,0,1-2.23,3.76s5.93-5.18,5.93-3.74-2.46,3.28-2.46,3.28,6.93-5.74,7.05-4.17-3.7,3.82-3.7,3.82,8.4-6,7.73-3.66-4,4.18-4,4.18,7.72-1,8.5-2.54,14.89-1.44,13.88-4.25S205.54,192.31,205.54,192.31Z"/><path class="cls-4" d="M209.11,190c-9.41-5.3-32.87-8.17-36.47-6.54s-8.79,7.2-8.79,7.2,8.91-4.07,7.81-2.62-4.87,3.9-5.72,3.91,8.23-2.42,7.49-1.33a21,21,0,0,1-3.21,2.95s8.16-5,8-3.42-3.93,3.28-3.93,3.28,7.82-3,7.21-1.58-3.63,2.77-3.63,2.77,9-3.14,7-1.29a22.28,22.28,0,0,1-3.34,2.64s7.31-2.57,6.83-1.23-3.39,2.11-3.39,2.11,8.45-2.71,8-1.22-4.75,2.16-4.75,2.16,9.94-2.44,8.53-.5-5.17,2.35-5.17,2.35,7.67,2,8.91.84,14.62,4.25,14.57,1.27S209.11,190,209.11,190Z"/><path class="cls-3" d="M213.08,189.07c-7.08-8.6-28.24-20.56-32.19-20.49s-10.76,3.07-10.76,3.07,9.8-.15,8.25.73-5.93,1.63-6.73,1.3,8.61,1.06,7.53,1.76a19.52,19.52,0,0,1-4,1.43s9.42-1.35,8.7,0-4.84,1.44-4.84,1.44,8.4.38,7.35,1.42-4.38,1.09-4.38,1.09,9.53.71,7,1.6a21.07,21.07,0,0,1-4,1.09s7.77.56,6.88,1.61-3.92.56-3.92.56,8.9.88,8,2.09-5.21.08-5.21.08,10.21,1.72,8.21,3-5.69.09-5.69.09,6.57,4.84,8.13,4.31,12.34,9.7,13.32,7S213.08,189.07,213.08,189.07Z"/><path class="cls-4" d="M218.8,194.27c-1.16-11.25-12.15-34.1-15.47-36.57s-10.6-4.45-10.6-4.45,8.2,6.12,6.44,5.83-5.81-2.51-6.3-3.27,6.55,6.31,5.28,6.18a20.29,20.29,0,0,1-4.14-1.46s8.57,5,7.2,5.58-4.8-2-4.8-2,6.77,5.65,5.31,5.79-4.23-1.93-4.23-1.93,7.52,6.63,5,5.74a22.79,22.79,0,0,1-4-1.74s6.15,5.4,4.84,5.64-3.57-2-3.57-2,6.9,6.36,5.5,6.74-4.37-3.26-4.37-3.26,7.52,7.85,5.19,7.54-4.76-3.56-4.76-3.56,2.79,8,4.38,8.56,4.92,15.48,7.23,13.94S218.8,194.27,218.8,194.27Z"/><path class="cls-3" d="M208.54,192.72c4.35-10.06,21.3-26.9,25.13-27.83s11.25.26,11.25.26-9.48,2.32-7.75,2.77,6.18.08,6.86-.44-8,3.18-6.74,3.59a19.83,19.83,0,0,0,4.3.35s-9.47,1.08-8.37,2.22,5.06.18,5.06.18-8,2.47-6.67,3.21,4.53-.05,4.53-.05-9,3.07-6.32,3.31a21.26,21.26,0,0,0,4.22,0s-7.33,2.5-6.17,3.27,3.95-.43,3.95-.43-8.33,3.09-7.12,4,5-1.24,5-1.24-9.34,4.22-7.07,4.9,5.51-1.35,5.51-1.35-4.94,6.32-6.59,6.2-9.11,12.45-10.84,10.05S208.54,192.72,208.54,192.72Z"/><path class="cls-4" d="M213.47,193.18c8.48-6.24,31.27-11.55,35.1-10.31s9.89,6.2,9.89,6.2-9.5-3.08-8.17-1.76,5.46,3.35,6.31,3.27-8.55-1.53-7.64-.53a22,22,0,0,0,3.66,2.59s-8.91-4.12-8.46-2.56,4.42,2.85,4.42,2.85-8.24-2.15-7.41-.82,4,2.37,4,2.37-9.39-2.16-7.14-.55a23.61,23.61,0,0,0,3.74,2.27s-7.66-1.78-7-.5,3.71,1.73,3.71,1.73-8.82-1.8-8.18-.35,5,1.64,5,1.64-10.24-1.38-8.53.4,5.52,1.78,5.52,1.78-7.28,2.75-8.7,1.76-13.81,5.74-14.24,2.78S213.47,193.18,213.47,193.18Z"/><path class="cls-3" d="M212.74,195.29c9.88-3.26,33.38-1.19,36.75,1.18s7.92,8.94,7.92,8.94S249,199.54,250,201.2s4.39,4.87,5.23,5.06-7.88-4.12-7.26-2.89a23.51,23.51,0,0,0,2.85,3.6s-7.53-6.67-7.51-5.06,3.53,4.08,3.53,4.08-7.4-4.59-7-3.08,3.29,3.51,3.29,3.51-8.52-5-6.77-2.75a25.66,25.66,0,0,0,3,3.3s-6.94-4.07-6.63-2.65,3.13,2.8,3.13,2.8-8.06-4.45-7.83-2.89,4.46,3.12,4.46,3.12-9.55-4.48-8.38-2.27,4.87,3.41,4.87,3.41-7.8.33-8.91-1-14.92,1.14-14.55-1.79S212.74,195.29,212.74,195.29Z"/><path class="cls-4" d="M216.49,197.62c10,3.65,28.5,20.11,30,24.1s1.75,12,1.75,12-3.8-9.9-3.92-8,1,6.61,1.62,7.29-4.34-8.21-4.49-6.85a25,25,0,0,0,.43,4.63s-2.67-10-3.52-8.72.73,5.43.73,5.43-3.69-8.29-4.14-6.8.84,4.83.84,4.83-4.41-9.29-4.16-6.43a27.53,27.53,0,0,0,.73,4.51s-3.59-7.59-4.1-6.27,1.09,4.18,1.09,4.18-4.31-8.6-5-7.21,2,5.27,2,5.27-5.53-9.57-5.75-7.06,2.21,5.75,2.21,5.75-6.69-4.65-6.86-6.43-13.07-8.53-11.16-10.6S216.49,197.62,216.49,197.62Z"/><path class="cls-5" d="M213.79,231.65c-.46-1.34-.92-2.85-.34-4.1"/><path class="cls-6" d="M221,257.68a6.45,6.45,0,0,0,2.08-.36l1.19-.35a3.85,3.85,0,0,0,1.55-.71,1.57,1.57,0,0,0,.51-1.62c.11.11,0,.27-.12.39a2.4,2.4,0,0,0-.18.61,1.68,1.68,0,0,1-1.1.89,12.89,12.89,0,0,1-2.82.85,5.54,5.54,0,0,1-1.41,0c-.37-.06-.88-.36-1.22-.31A2.22,2.22,0,0,0,221,257.68Z"/><path class="cls-6" d="M218.91,250.29a6.11,6.11,0,0,0,2.12-.16l1.22-.23a3.73,3.73,0,0,0,1.6-.55,1.57,1.57,0,0,0,.65-1.57c.1.11-.06.26-.15.37a2.34,2.34,0,0,0-.23.59,1.58,1.58,0,0,1-1.18.77,11.77,11.77,0,0,1-2.88.57,4.78,4.78,0,0,1-1.41-.12c-.36-.09-.85-.44-1.2-.41A2.2,2.2,0,0,0,218.91,250.29Z"/><path class="cls-6" d="M219.58,254.28a6.32,6.32,0,0,0,2.12-.16l1.21-.23a3.81,3.81,0,0,0,1.61-.55,1.55,1.55,0,0,0,.65-1.57c.09.11-.06.26-.15.37a2,2,0,0,0-.24.59,1.57,1.57,0,0,1-1.17.77,12.35,12.35,0,0,1-2.89.58,5.08,5.08,0,0,1-1.4-.13c-.36-.09-.85-.44-1.2-.41A2.25,2.25,0,0,0,219.58,254.28Z"/><path class="cls-6" d="M221.48,261a6.32,6.32,0,0,0,2.12-.15l1.21-.23a4,4,0,0,0,1.61-.56,1.58,1.58,0,0,0,.65-1.57c.09.12-.06.26-.15.37a2,2,0,0,0-.24.6,1.64,1.64,0,0,1-1.17.77,13,13,0,0,1-2.89.57,5.08,5.08,0,0,1-1.4-.13c-.37-.08-.85-.44-1.2-.41A2.16,2.16,0,0,0,221.48,261Z"/><path class="cls-6" d="M222.34,264.5a6.32,6.32,0,0,0,2.12-.15l1.21-.23a4,4,0,0,0,1.61-.56,1.56,1.56,0,0,0,.64-1.57c.1.12,0,.25-.14.37a2,2,0,0,0-.24.6,1.64,1.64,0,0,1-1.17.77,13,13,0,0,1-2.89.57,5.08,5.08,0,0,1-1.4-.13c-.37-.09-.85-.44-1.2-.41A2.25,2.25,0,0,0,222.34,264.5Z"/><path class="cls-6" d="M223.47,268a6.28,6.28,0,0,0,2.11-.16l1.21-.23a3.81,3.81,0,0,0,1.61-.55,1.55,1.55,0,0,0,.65-1.57c.1.11-.06.25-.15.37s-.15.4-.24.59a1.57,1.57,0,0,1-1.17.77,11.84,11.84,0,0,1-2.89.57,4.72,4.72,0,0,1-1.4-.12c-.36-.09-.85-.44-1.2-.41A2.42,2.42,0,0,0,223.47,268Z"/><path class="cls-6" d="M224.26,271.29a6.59,6.59,0,0,0,2.12-.16l1.21-.23a4.11,4.11,0,0,0,1.61-.55,1.56,1.56,0,0,0,.64-1.57c.1.11-.05.26-.15.37a2.07,2.07,0,0,0-.23.59,1.64,1.64,0,0,1-1.17.77,11.94,11.94,0,0,1-2.89.57A5.18,5.18,0,0,1,224,271c-.36-.09-.84-.45-1.19-.42A2.24,2.24,0,0,0,224.26,271.29Z"/><path class="cls-6" d="M225.06,274.55a6.51,6.51,0,0,0,2.11-.16l1.22-.23a4,4,0,0,0,1.6-.55,1.57,1.57,0,0,0,.65-1.58c.1.12-.06.25-.15.37a2.27,2.27,0,0,0-.23.6,1.64,1.64,0,0,1-1.18.77,11.77,11.77,0,0,1-2.88.57,5.18,5.18,0,0,1-1.41-.12c-.36-.09-.84-.45-1.2-.42A2.28,2.28,0,0,0,225.06,274.55Z"/><path class="cls-6" d="M225.79,277.13a6.32,6.32,0,0,0,2.12-.16l1.21-.23a3.64,3.64,0,0,0,1.59-.55,1.56,1.56,0,0,0,.65-1.57c.1.12-.06.25-.15.37a2.27,2.27,0,0,0-.23.6,1.64,1.64,0,0,1-1.18.77,12.78,12.78,0,0,1-2.88.57,5.19,5.19,0,0,1-1.41-.13c-.36-.09-.84-.44-1.2-.41A2.34,2.34,0,0,0,225.79,277.13Z"/><path class="cls-6" d="M226.14,279.81a6.63,6.63,0,0,0,2.12-.16l1.22-.23a3.88,3.88,0,0,0,1.6-.56,1.54,1.54,0,0,0,.65-1.57c.1.12-.06.25-.15.37a2.27,2.27,0,0,0-.23.6,1.64,1.64,0,0,1-1.18.77,12.25,12.25,0,0,1-2.88.57,5.15,5.15,0,0,1-1.41-.13c-.36-.08-.85-.44-1.2-.41A2.19,2.19,0,0,0,226.14,279.81Z"/><path class="cls-6" d="M227,282.36a6.28,6.28,0,0,0,2.11-.15l1.21-.23a4,4,0,0,0,1.61-.56,1.54,1.54,0,0,0,.65-1.57c.1.12-.06.25-.15.37a2.28,2.28,0,0,0-.24.6,1.62,1.62,0,0,1-1.17.77,12.33,12.33,0,0,1-2.89.57,5.08,5.08,0,0,1-1.4-.13c-.36-.08-.85-.44-1.2-.41A2.23,2.23,0,0,0,227,282.36Z"/><path class="cls-6" d="M227.6,285.8a6.4,6.4,0,0,0,2.13-.16l1.21-.23a4,4,0,0,0,1.61-.55,1.57,1.57,0,0,0,.65-1.57c.09.11-.06.25-.15.37a1.83,1.83,0,0,0-.24.59,1.6,1.6,0,0,1-1.17.77,11.75,11.75,0,0,1-2.89.57,5.07,5.07,0,0,1-1.4-.12c-.37-.09-.85-.45-1.2-.42A2.19,2.19,0,0,0,227.6,285.8Z"/><path class="cls-6" d="M228.43,289.18a6.4,6.4,0,0,0,2.13-.16l1.21-.23a4.11,4.11,0,0,0,1.61-.55,1.57,1.57,0,0,0,.64-1.58c.1.12-.05.25-.14.38a1.83,1.83,0,0,0-.24.59,1.62,1.62,0,0,1-1.17.77,11.84,11.84,0,0,1-2.89.57,5.07,5.07,0,0,1-1.4-.12c-.37-.09-.85-.45-1.2-.42A2.13,2.13,0,0,0,228.43,289.18Z"/><path class="cls-6" d="M218.67,247.31a6.28,6.28,0,0,0,2.11-.16l1.21-.23a3.81,3.81,0,0,0,1.61-.55,1.55,1.55,0,0,0,.65-1.57c.09.11-.06.25-.15.37a2,2,0,0,0-.24.59,1.6,1.6,0,0,1-1.17.78,12.87,12.87,0,0,1-2.89.57,5.08,5.08,0,0,1-1.4-.13c-.36-.09-.85-.44-1.2-.41A2.25,2.25,0,0,0,218.67,247.31Z"/><path class="cls-6" d="M217.36,244.15a6.28,6.28,0,0,0,2.11-.15l1.22-.23a3.93,3.93,0,0,0,1.6-.56,1.55,1.55,0,0,0,.65-1.57c.1.12-.06.26-.15.37a2.28,2.28,0,0,0-.24.6,1.6,1.6,0,0,1-1.17.77,12.76,12.76,0,0,1-2.89.57,5.11,5.11,0,0,1-1.4-.13c-.36-.09-.85-.44-1.2-.41A2.2,2.2,0,0,0,217.36,244.15Z"/><path class="cls-6" d="M216.31,240.93a6.32,6.32,0,0,0,2.12-.15l1.21-.23a4,4,0,0,0,1.61-.56,1.55,1.55,0,0,0,.65-1.57c.1.11-.06.26-.15.37a2.28,2.28,0,0,0-.24.6,1.62,1.62,0,0,1-1.17.77,12.87,12.87,0,0,1-2.89.57,5.08,5.08,0,0,1-1.4-.13c-.36-.09-.85-.44-1.2-.41A2.2,2.2,0,0,0,216.31,240.93Z"/><path class="cls-6" d="M215.73,238.55a6.24,6.24,0,0,0,2.11-.16l1.22-.23a3.81,3.81,0,0,0,1.61-.55,1.56,1.56,0,0,0,.64-1.57c.1.11-.05.26-.14.37a2,2,0,0,0-.24.59,1.58,1.58,0,0,1-1.17.77,12.45,12.45,0,0,1-2.89.58,5.08,5.08,0,0,1-1.4-.13c-.37-.09-.85-.44-1.2-.41A2.18,2.18,0,0,0,215.73,238.55Z"/><path class="cls-6" d="M215.36,236a6.24,6.24,0,0,0,2.11-.15l1.22-.23a3.88,3.88,0,0,0,1.6-.56,1.55,1.55,0,0,0,.65-1.57c.1.11-.05.26-.15.37a2.81,2.81,0,0,0-.24.59,1.59,1.59,0,0,1-1.17.78,12.78,12.78,0,0,1-2.88.57,5.15,5.15,0,0,1-1.41-.13c-.36-.09-.84-.44-1.2-.41A2.29,2.29,0,0,0,215.36,236Z"/><path class="cls-6" d="M215,233.49a6.32,6.32,0,0,0,2.12-.16l1.21-.23a3.81,3.81,0,0,0,1.61-.55,1.59,1.59,0,0,0,.65-1.57c.09.11-.06.26-.15.37a2,2,0,0,0-.24.59,1.58,1.58,0,0,1-1.17.77,12.45,12.45,0,0,1-2.89.58,5.08,5.08,0,0,1-1.4-.13c-.37-.09-.85-.44-1.2-.41A2.23,2.23,0,0,0,215,233.49Z"/><path class="cls-6" d="M213.92,231.17A6.59,6.59,0,0,0,216,231l1.21-.23a3.81,3.81,0,0,0,1.61-.55,1.55,1.55,0,0,0,.65-1.57c.09.11-.06.26-.15.37a1.83,1.83,0,0,0-.24.59,1.58,1.58,0,0,1-1.17.77,11.94,11.94,0,0,1-2.89.57,5.07,5.07,0,0,1-1.4-.12c-.37-.09-.85-.45-1.2-.42A2.26,2.26,0,0,0,213.92,231.17Z"/><path class="cls-6" d="M213.7,228a6.32,6.32,0,0,0,2.12-.16l1.21-.23a3.81,3.81,0,0,0,1.61-.55,1.57,1.57,0,0,0,.65-1.57c.09.11-.06.26-.15.37a2,2,0,0,0-.24.59,1.57,1.57,0,0,1-1.17.77,12.35,12.35,0,0,1-2.89.58,5.08,5.08,0,0,1-1.4-.13c-.37-.09-.85-.44-1.2-.41A2.25,2.25,0,0,0,213.7,228Z"/><path class="cls-6" d="M212.9,224.91a6.32,6.32,0,0,0,2.12-.15l1.21-.23a4,4,0,0,0,1.61-.56,1.56,1.56,0,0,0,.64-1.57c.1.11,0,.26-.15.37a2.34,2.34,0,0,0-.23.59,1.62,1.62,0,0,1-1.17.78,13,13,0,0,1-2.89.57,5.19,5.19,0,0,1-1.41-.13c-.36-.09-.84-.44-1.19-.41A2.18,2.18,0,0,0,212.9,224.91Z"/><path class="cls-6" d="M212.24,221.82a6.32,6.32,0,0,0,2.12-.16l1.21-.22a3.88,3.88,0,0,0,1.6-.56,1.57,1.57,0,0,0,.64-1.57c.1.12-.05.25-.15.37a2.27,2.27,0,0,0-.23.6,1.64,1.64,0,0,1-1.17.77,13,13,0,0,1-2.89.57,5.19,5.19,0,0,1-1.41-.13c-.36-.09-.84-.44-1.19-.41A2.29,2.29,0,0,0,212.24,221.82Z"/><path class="cls-6" d="M211.56,219.42a6.55,6.55,0,0,0,2.11-.16l1.21-.23a3.81,3.81,0,0,0,1.61-.55,1.55,1.55,0,0,0,.65-1.57c.1.11-.06.26-.15.37s-.15.4-.24.59a1.57,1.57,0,0,1-1.17.77,11.84,11.84,0,0,1-2.89.57,4.72,4.72,0,0,1-1.4-.12c-.36-.09-.85-.44-1.2-.41A2.37,2.37,0,0,0,211.56,219.42Z"/><path class="cls-6" d="M210.47,217.09a6.32,6.32,0,0,0,2.12-.15l1.21-.23a3.92,3.92,0,0,0,1.61-.56,1.54,1.54,0,0,0,.65-1.57c.1.12-.06.26-.15.37a2.28,2.28,0,0,0-.24.6,1.6,1.6,0,0,1-1.17.77,12.23,12.23,0,0,1-2.89.57,5.08,5.08,0,0,1-1.4-.13c-.36-.08-.85-.44-1.2-.41A2.2,2.2,0,0,0,210.47,217.09Z"/><path class="cls-7" d="M210.07,214.41a6.32,6.32,0,0,0,2.12-.15l1.21-.23a4,4,0,0,0,1.61-.56,1.58,1.58,0,0,0,.65-1.57c.09.12-.06.26-.15.37a2,2,0,0,0-.24.6,1.64,1.64,0,0,1-1.17.77,13,13,0,0,1-2.89.57,5.08,5.08,0,0,1-1.4-.13c-.37-.08-.85-.44-1.2-.41A2.2,2.2,0,0,0,210.07,214.41Z"/><path class="cls-2" d="M321.45,200.34a8.48,8.48,0,0,1,.38,1.8,51.9,51.9,0,0,1,.33,5.58c0,1.91,0,3.87-.11,5.47-.12,1.86-.34,3.25-.66,3.5-1.07.83-6.67,1.33-8.79,0-.69-.45,0-2-1.19-4.43s1.12-6.14.21-7.42.63-4.14,1-4.5a5.75,5.75,0,0,1,2.09-.84,14,14,0,0,1,3.47-.41C319.73,199.09,321.07,199.43,321.45,200.34Z"/><path class="cls-2" d="M321.45,170.84a8.39,8.39,0,0,1,.38,1.79,52.24,52.24,0,0,1,.33,5.59c0,1.91,0,3.87-.11,5.47-.12,1.87-.34,3.25-.66,3.5-1.07.83-6.67,1.33-8.79,0-.69-.45,0-2-1.19-4.43s1.12-6.14.21-7.42.63-4.14,1-4.5a5.94,5.94,0,0,1,2.09-.84,14,14,0,0,1,3.47-.41C319.73,169.57,321.07,169.92,321.45,170.84Z"/><path class="cls-2" d="M321.45,186.71a8.39,8.39,0,0,1,.38,1.79,52.42,52.42,0,0,1,.33,5.6c0,1.91,0,3.86-.11,5.46-.12,1.87-.34,3.25-.66,3.51-1.07.83-6.67,1.33-8.79,0-.69-.44,0-2-1.19-4.42s1.12-6.15.21-7.43.63-4.13,1-4.49a5.58,5.58,0,0,1,2.09-.84,14.45,14.45,0,0,1,3.47-.42C319.73,185.44,321.07,185.79,321.45,186.71Z"/><path class="cls-2" d="M321.45,215.74a8.35,8.35,0,0,1,.38,1.8,51.9,51.9,0,0,1,.33,5.58c0,1.91,0,3.86-.11,5.47-.12,1.86-.34,3.25-.66,3.5-1.07.83-6.67,1.33-8.79,0-.69-.44,0-2-1.19-4.42s1.12-6.14.21-7.42.63-4.14,1-4.5a5.75,5.75,0,0,1,2.09-.84,14,14,0,0,1,3.47-.41C319.73,214.47,321.07,214.82,321.45,215.74Z"/><path class="cls-2" d="M321.45,228.35a8.39,8.39,0,0,1,.38,1.79,52.42,52.42,0,0,1,.33,5.6c0,1.91,0,3.86-.11,5.46-.12,1.87-.34,3.25-.66,3.51-1.07.83-6.67,1.33-8.79,0-.69-.44,0-2-1.19-4.42s1.12-6.15.21-7.43.63-4.13,1-4.49a5.58,5.58,0,0,1,2.09-.84,14.45,14.45,0,0,1,3.47-.42C319.73,227.08,321.07,227.43,321.45,228.35Z"/><path class="cls-2" d="M321.45,242.11a8.39,8.39,0,0,1,.38,1.79,52.05,52.05,0,0,1,.33,5.58c0,1.91,0,3.87-.11,5.47-.12,1.87-.34,3.25-.66,3.5-1.07.83-6.67,1.34-8.79,0-.69-.45,0-2-1.19-4.43s1.12-6.14.21-7.42.63-4.14,1-4.49a5.58,5.58,0,0,1,2.09-.84,14.45,14.45,0,0,1,3.47-.42C319.73,240.84,321.07,241.19,321.45,242.11Z"/><path class="cls-2" d="M321.45,253.65a8.39,8.39,0,0,1,.38,1.79,52.24,52.24,0,0,1,.33,5.59c0,1.91,0,3.86-.11,5.46-.12,1.87-.34,3.25-.66,3.51-1.07.83-6.67,1.33-8.79,0-.69-.44,0-2-1.19-4.42s1.12-6.15.21-7.42.63-4.14,1-4.5a5.75,5.75,0,0,1,2.09-.84,14.45,14.45,0,0,1,3.47-.42C319.73,252.39,321.07,252.73,321.45,253.65Z"/><path class="cls-3" d="M308.18,161.52c-11.76,5.27-32,26-33.3,30.74s-.35,13.86-.35,13.86,3.2-11.67,3.62-9.53-.26,7.62-.89,8.45,4.09-9.8,4.49-8.28a26.14,26.14,0,0,1,.16,5.31s1.78-11.65,3-10.3-.1,6.25-.1,6.25,3.3-9.82,4.06-8.2-.31,5.58-.31,5.58,4-11,4.17-7.76a30.09,30.09,0,0,1-.21,5.2s3.27-9,4.09-7.58-.72,4.86-.72,4.86,4-10.23,5-8.74-1.71,6.21-1.71,6.21,5.37-11.48,6-8.67-1.85,6.77-1.85,6.77,7.52-6,7.47-8.07,14.78-11.13,12.13-13.28S308.18,161.52,308.18,161.52Z"/><path class="cls-4" d="M308.35,156.78c-12.89.06-39.82,10.82-42.9,14.6s-5.94,12.53-5.94,12.53,7.65-9.37,7.17-7.24-3.33,6.86-4.25,7.36,7.72-7.3,7.46-5.74a26,26,0,0,1-2,4.91s6.35-9.92,6.94-8.19-2.62,5.68-2.62,5.68,7-7.64,7-5.85-2.55,5-2.55,5,8.17-8.46,6.94-5.42a28.11,28.11,0,0,1-2.3,4.67s6.66-6.91,6.83-5.27-2.63,4.16-2.63,4.16,7.8-7.72,8.13-6-4.07,5-4.07,5,9.56-8.33,9-5.49-4.44,5.43-4.44,5.43,9.32-2.47,10.1-4.35,18-4.19,16.47-7.22S308.35,156.78,308.35,156.78Z"/><path class="cls-3" d="M314.72,152.59c-12.08-4.49-41.07-3.92-45.28-1.47s-10,9.63-10,9.63,10.47-6.07,9.27-4.25-5.53,5.23-6.57,5.39,9.8-4.11,9-2.75a26.15,26.15,0,0,1-3.61,3.9s9.45-7,9.37-5.2-4.45,4.38-4.45,4.38,9.24-4.68,8.65-3S277,163,277,163s10.62-5,8.41-2.62a28.38,28.38,0,0,1-3.79,3.56s8.66-4.12,8.23-2.52-3.92,3-3.92,3,10-4.47,9.71-2.7-5.57,3.23-5.57,3.23,11.88-4.41,10.37-2-6.08,3.53-6.08,3.53,9.59,1,11-.51,18.34,2.45,18-.94S314.72,152.59,314.72,152.59Z"/><path class="cls-4" d="M319.71,151c-9.77-8.41-37.15-17.94-42-17.11S265,139.44,265,139.44s11.93-2.08,10.17-.78-7,3-8,2.78,10.61-.45,9.4.55a26,26,0,0,1-4.73,2.4s11.3-3.33,10.6-1.63-5.7,2.57-5.7,2.57,10.29-1.18,9.15.21-5.19,2.08-5.19,2.08,11.71-1,8.79.46a28.51,28.51,0,0,1-4.8,2s9.56-.86,8.59.49-4.71,1.41-4.71,1.41,11-.71,10.05.84-6.34,1.09-6.34,1.09,12.67,0,10.41,1.77-6.93,1.2-6.93,1.2,8.66,4.24,10.48,3.34,16.35,8.65,17.16,5.35S319.71,151,319.71,151Z"/><path class="cls-3" d="M324.75,151.05c-6-11.42-27.92-30.37-32.7-31.37s-13.86.48-13.86.48,11.84,2.48,9.72,3-7.61.2-8.49-.39,10.05,3.5,8.55,4a26.29,26.29,0,0,1-5.29.48s11.74,1.07,10.46,2.4-6.24.28-6.24.28,10,2.7,8.42,3.56-5.59,0-5.59,0,11.26,3.35,8,3.67a28.33,28.33,0,0,1-5.21.1s9.2,2.73,7.81,3.65-4.88-.45-4.88-.45,10.45,3.39,9,4.49-6.3-1.32-6.3-1.32,11.78,4.66,9,5.48-6.88-1.44-6.88-1.44,6.48,7.13,8.51,7,12,14.08,14,11.31S324.75,151.05,324.75,151.05Z"/><path class="cls-4" d="M330.1,158.36c1.92-12.75-4.57-41-7.83-44.63s-11.45-7.8-11.45-7.8,8.06,9,6,8.2-6.27-4.35-6.63-5.33,6,8.75,4.53,8.26a25.28,25.28,0,0,1-4.55-2.73s8.85,7.81,7,8.12S312,119,312,119s6.48,8.09,4.69,7.85-4.52-3.28-4.52-3.28,7.09,9.37,4.28,7.69a29.12,29.12,0,0,1-4.25-3s5.81,7.64,4.17,7.55-3.7-3.24-3.7-3.24,6.43,8.91,4.63,9-4.3-4.8-4.3-4.8,6.74,10.72,4,9.75-4.68-5.23-4.68-5.23,1,9.59,2.74,10.65,1.36,18.45,4.6,17.38S330.1,158.36,330.1,158.36Z"/><path class="cls-3" d="M318.21,153.87c8.2-10,33.57-24,38.45-24s13.46,3.33,13.46,3.33-12.09,0-10.15,1,7.42,1.77,8.39,1.38-10.53,1.35-9.17,2.14a26.19,26.19,0,0,0,5.08,1.56s-11.72-1.38-10.74.18,6.05,1.57,6.05,1.57-10.34.57-9,1.74,5.46,1.18,5.46,1.18-11.71,1-8.59,1.94a28.48,28.48,0,0,0,5.07,1.18s-9.56.78-8.39,1.94,4.88.59,4.88.59-10.93,1.17-9.75,2.53,6.44,0,6.44,0-12.5,2.14-10,3.51,7,0,7,0-7.81,5.65-9.76,5.06S318.4,172,317,168.88,318.21,153.87,318.21,153.87Z"/><path class="cls-4" d="M324,155.71c12-4.61,41-4.3,45.28-1.89s10.07,9.53,10.07,9.53-10.52-6-9.3-4.16,5.58,5.19,6.62,5.33-9.84-4-9-2.66a26.51,26.51,0,0,0,3.65,3.86s-9.51-7-9.43-5.13,4.48,4.36,4.48,4.36-9.28-4.61-8.68-2.92,4.16,3.72,4.16,3.72-10.67-4.93-8.42-2.55a28.48,28.48,0,0,0,3.83,3.53s-8.7-4-8.26-2.45,3.95,2.92,3.95,2.92-10.08-4.38-9.73-2.6,5.59,3.18,5.59,3.18-11.91-4.3-10.38-1.86,6.12,3.45,6.12,3.45-9.58,1.07-11-.4-18.31,2.6-18-.78S324,155.71,324,155.71Z"/><path class="cls-3" d="M322.5,157.85c12.86-.94,40.53,7.72,43.89,11.25s6.9,12,6.9,12-8.34-8.75-7.71-6.67,3.85,6.58,4.8,7-8.26-6.69-7.88-5.16a26.16,26.16,0,0,0,2.37,4.75s-7.09-9.41-7.55-7.63,3.05,5.47,3.05,5.47-7.55-7.08-7.47-5.29,2.92,4.77,2.92,4.77-8.78-7.81-7.33-4.87a28.8,28.8,0,0,0,2.66,4.47s-7.16-6.38-7.2-4.73,2.94,3.94,2.94,3.94-8.38-7.1-8.57-5.31,4.45,4.66,4.45,4.66-10.17-7.55-9.41-4.78,4.85,5.08,4.85,5.08-9.48-1.74-10.41-3.56-18.3-2.78-17-5.92S322.5,157.85,322.5,157.85Z"/><path class="cls-4" d="M326.34,161.44c11,6.75,28.37,30,29,34.79S353.94,210,353.94,210s-1.66-12-2.36-9.91-.72,7.58-.2,8.49-2.8-10.25-3.38-8.79a25.75,25.75,0,0,0-.85,5.24s-.26-11.78-1.67-10.6-.71,6.21-.71,6.21-2-10.17-3-8.65-.42,5.58-.42,5.58-2.57-11.47-3.11-8.24a29.11,29.11,0,0,0-.46,5.19s-2.08-9.37-3.08-8,.09,4.91.09,4.91-2.66-10.67-3.85-9.31.88,6.38.88,6.38S328,176.39,327,179.1s1,7,1,7-6.68-7-6.37-9-13.2-13-10.3-14.74S326.34,161.44,326.34,161.44Z"/><path class="cls-5" d="M313.05,198.34c-.16-1.6-.26-3.4.79-4.62"/><path class="cls-6" d="M314.09,229.08a8.22,8.22,0,0,0,2.62.17l1.53-.06a5.38,5.38,0,0,0,2.07-.36,1.82,1.82,0,0,0,1.1-1.66c.09.15-.12.29-.26.4s-.26.42-.41.63a2.15,2.15,0,0,1-1.58.68,17.09,17.09,0,0,1-3.64.17,6.64,6.64,0,0,1-1.7-.38c-.43-.16-.95-.64-1.38-.66A2.72,2.72,0,0,0,314.09,229.08Z"/><path class="cls-6" d="M313.71,220.34a8.43,8.43,0,0,0,2.61.4l1.53.08a5.44,5.44,0,0,0,2.09-.18,1.81,1.81,0,0,0,1.25-1.56c.08.15-.15.27-.29.37s-.3.39-.46.59a2.08,2.08,0,0,1-1.64.53,15.84,15.84,0,0,1-3.64-.15,6.53,6.53,0,0,1-1.66-.52c-.41-.19-.88-.71-1.32-.78A2.71,2.71,0,0,0,313.71,220.34Z"/><path class="cls-6" d="M313.35,224.93a8.39,8.39,0,0,0,2.59.4l1.53.08a5.28,5.28,0,0,0,2.1-.18,1.8,1.8,0,0,0,1.24-1.56c.09.15-.14.27-.28.37s-.31.4-.47.59a2.11,2.11,0,0,1-1.63.54,17.15,17.15,0,0,1-3.65-.15,6.88,6.88,0,0,1-1.65-.52c-.41-.2-.89-.72-1.32-.78A2.75,2.75,0,0,0,313.35,224.93Z"/><path class="cls-6" d="M313.66,232.87a8.66,8.66,0,0,0,2.59.41l1.53.07a5.25,5.25,0,0,0,2.09-.18,1.78,1.78,0,0,0,1.25-1.56c.08.15-.14.27-.29.37s-.3.4-.46.59a2.12,2.12,0,0,1-1.64.54,17.05,17.05,0,0,1-3.64-.15,6.74,6.74,0,0,1-1.65-.52c-.42-.2-.89-.72-1.33-.78A2.69,2.69,0,0,0,313.66,232.87Z"/><path class="cls-6" d="M313.66,237a8.65,8.65,0,0,0,2.59.4l1.53.07a5.07,5.07,0,0,0,2.09-.18,1.77,1.77,0,0,0,1.25-1.56c.08.16-.14.26-.29.37s-.3.4-.46.59a2.08,2.08,0,0,1-1.64.54,17.05,17.05,0,0,1-3.64-.15,6.74,6.74,0,0,1-1.65-.52c-.42-.2-.89-.72-1.33-.78A2.79,2.79,0,0,0,313.66,237Z"/><path class="cls-6" d="M314,241.2a8.35,8.35,0,0,0,2.59.4l1.53.08a5.25,5.25,0,0,0,2.09-.18,1.79,1.79,0,0,0,1.25-1.56c.08.15-.14.26-.29.37s-.3.4-.46.59a2.12,2.12,0,0,1-1.64.54,17.05,17.05,0,0,1-3.64-.15,7.2,7.2,0,0,1-1.65-.52c-.42-.2-.89-.72-1.33-.79A2.83,2.83,0,0,0,314,241.2Z"/><path class="cls-6" d="M314,245a8.35,8.35,0,0,0,2.59.4l1.53.08a5.44,5.44,0,0,0,2.09-.18,1.79,1.79,0,0,0,1.25-1.56c.08.15-.14.27-.29.36s-.3.4-.46.6a2.08,2.08,0,0,1-1.64.53,15.84,15.84,0,0,1-3.64-.15,6.34,6.34,0,0,1-1.65-.52c-.42-.19-.89-.72-1.33-.78A2.75,2.75,0,0,0,314,245Z"/><path class="cls-6" d="M314,248.83a8.35,8.35,0,0,0,2.59.4l1.53.08a5.44,5.44,0,0,0,2.09-.18,1.79,1.79,0,0,0,1.25-1.56c.08.15-.14.26-.29.37s-.3.39-.46.59a2.08,2.08,0,0,1-1.64.53,15.84,15.84,0,0,1-3.64-.15,6.34,6.34,0,0,1-1.65-.52c-.42-.19-.89-.72-1.33-.78A2.75,2.75,0,0,0,314,248.83Z"/><path class="cls-6" d="M314.09,251.89a8.65,8.65,0,0,0,2.59.4l1.53.07a5,5,0,0,0,2.08-.18,1.81,1.81,0,0,0,1.24-1.56c.09.15-.14.26-.29.37s-.3.4-.45.59a2.14,2.14,0,0,1-1.64.54,17.15,17.15,0,0,1-3.65-.15,6.88,6.88,0,0,1-1.65-.52c-.41-.2-.89-.72-1.32-.78A2.89,2.89,0,0,0,314.09,251.89Z"/><path class="cls-6" d="M313.71,254.94a8.43,8.43,0,0,0,2.61.4l1.53.08a5.44,5.44,0,0,0,2.09-.18,1.81,1.81,0,0,0,1.25-1.56c.08.15-.15.26-.29.37s-.3.39-.46.59a2.12,2.12,0,0,1-1.64.54,16.43,16.43,0,0,1-3.64-.16,6.53,6.53,0,0,1-1.66-.52c-.41-.19-.88-.71-1.32-.78A2.63,2.63,0,0,0,313.71,254.94Z"/><path class="cls-6" d="M314,258a8.65,8.65,0,0,0,2.59.4l1.53.07a5.07,5.07,0,0,0,2.09-.18,1.77,1.77,0,0,0,1.25-1.56c.08.16-.14.26-.29.37s-.3.4-.46.59a2,2,0,0,1-1.64.54,17.05,17.05,0,0,1-3.64-.15,6.74,6.74,0,0,1-1.65-.52c-.42-.2-.89-.72-1.33-.78A2.79,2.79,0,0,0,314,258Z"/><path class="cls-6" d="M313.71,262a9.07,9.07,0,0,0,2.61.4l1.53.07a5.07,5.07,0,0,0,2.09-.18,1.8,1.8,0,0,0,1.25-1.56c.08.15-.15.26-.29.37s-.3.4-.46.59a2.12,2.12,0,0,1-1.64.54,17.05,17.05,0,0,1-3.64-.15,7,7,0,0,1-1.66-.52c-.41-.2-.88-.72-1.32-.78A2.71,2.71,0,0,0,313.71,262Z"/><path class="cls-6" d="M313.71,265.93a8.73,8.73,0,0,0,2.61.4l1.53.07a5.07,5.07,0,0,0,2.09-.18,1.79,1.79,0,0,0,1.25-1.56c.08.16-.15.26-.29.37s-.3.4-.46.59a2.08,2.08,0,0,1-1.64.54,17.05,17.05,0,0,1-3.64-.15,7,7,0,0,1-1.66-.52c-.41-.2-.88-.72-1.32-.78A2.67,2.67,0,0,0,313.71,265.93Z"/><path class="cls-6" d="M314.3,217a8.7,8.7,0,0,0,2.59.4l1.53.07a5.1,5.1,0,0,0,2.1-.18,1.78,1.78,0,0,0,1.24-1.56c.08.16-.14.26-.29.37s-.3.4-.46.6a2.08,2.08,0,0,1-1.64.53,16.45,16.45,0,0,1-3.64-.15,6.34,6.34,0,0,1-1.65-.52c-.41-.19-.89-.72-1.32-.78A2.69,2.69,0,0,0,314.3,217Z"/><path class="cls-6" d="M313.66,213.13a8.35,8.35,0,0,0,2.59.4l1.53.08a5.25,5.25,0,0,0,2.09-.18,1.79,1.79,0,0,0,1.25-1.56c.08.15-.14.27-.29.37s-.3.39-.46.59a2.12,2.12,0,0,1-1.64.54,16.43,16.43,0,0,1-3.64-.16,6.34,6.34,0,0,1-1.65-.52c-.42-.19-.89-.71-1.33-.78A2.75,2.75,0,0,0,313.66,213.13Z"/><path class="cls-6" d="M313.35,209.29a8.7,8.7,0,0,0,2.59.4l1.53.07a5.1,5.1,0,0,0,2.1-.18,1.78,1.78,0,0,0,1.24-1.56c.09.16-.14.28-.28.37s-.31.4-.47.6a2.07,2.07,0,0,1-1.63.53,17.15,17.15,0,0,1-3.65-.15,6.88,6.88,0,0,1-1.65-.52c-.41-.19-.89-.72-1.32-.78A2.77,2.77,0,0,0,313.35,209.29Z"/><path class="cls-6" d="M313.35,206.5a9,9,0,0,0,2.59.4l1.53.07a5.1,5.1,0,0,0,2.1-.18,1.79,1.79,0,0,0,1.24-1.56c.09.15-.14.27-.28.37s-.31.4-.47.59a2.11,2.11,0,0,1-1.63.54,17.15,17.15,0,0,1-3.65-.15,6.88,6.88,0,0,1-1.65-.52c-.41-.2-.89-.72-1.32-.78A2.77,2.77,0,0,0,313.35,206.5Z"/><path class="cls-6" d="M313.66,203.56a8.66,8.66,0,0,0,2.59.41l1.53.07a5.25,5.25,0,0,0,2.09-.18,1.78,1.78,0,0,0,1.25-1.56c.08.15-.14.27-.29.37s-.3.4-.46.59a2.12,2.12,0,0,1-1.64.54,17.05,17.05,0,0,1-3.64-.15,6.74,6.74,0,0,1-1.65-.52c-.42-.2-.89-.72-1.33-.78A2.77,2.77,0,0,0,313.66,203.56Z"/><path class="cls-6" d="M314,200.7a8.35,8.35,0,0,0,2.59.4l1.53.08a5.25,5.25,0,0,0,2.09-.18,1.79,1.79,0,0,0,1.25-1.56c.08.15-.14.27-.29.37s-.3.39-.46.59a2.12,2.12,0,0,1-1.64.54,17.05,17.05,0,0,1-3.64-.15,6.77,6.77,0,0,1-1.65-.53c-.42-.19-.89-.71-1.33-.78A2.75,2.75,0,0,0,314,200.7Z"/><path class="cls-6" d="M313.35,197.84a8.39,8.39,0,0,0,2.59.4l1.53.08a5.28,5.28,0,0,0,2.1-.18,1.8,1.8,0,0,0,1.24-1.56c.09.15-.14.27-.28.37s-.31.39-.47.59a2.11,2.11,0,0,1-1.63.54,17.15,17.15,0,0,1-3.65-.15,6.91,6.91,0,0,1-1.65-.53c-.41-.19-.89-.71-1.32-.78A2.72,2.72,0,0,0,313.35,197.84Z"/><path class="cls-6" d="M314,194.25a9,9,0,0,0,2.59.4l1.53.07a5.1,5.1,0,0,0,2.1-.18,1.79,1.79,0,0,0,1.24-1.56c.09.15-.14.27-.29.37s-.3.4-.46.59a2.11,2.11,0,0,1-1.63.54,17.15,17.15,0,0,1-3.65-.15,6.88,6.88,0,0,1-1.65-.52c-.41-.2-.89-.72-1.32-.78A2.81,2.81,0,0,0,314,194.25Z"/><path class="cls-6" d="M314,190.65a8.65,8.65,0,0,0,2.59.4l1.53.07a5.07,5.07,0,0,0,2.09-.18,1.77,1.77,0,0,0,1.25-1.56c.08.15-.14.27-.29.37s-.3.4-.46.59a2.12,2.12,0,0,1-1.64.54,17.05,17.05,0,0,1-3.64-.15,6.74,6.74,0,0,1-1.65-.52c-.42-.2-.89-.72-1.33-.78A2.79,2.79,0,0,0,314,190.65Z"/><path class="cls-6" d="M314.09,187.05a8.35,8.35,0,0,0,2.59.4l1.53.08a5.37,5.37,0,0,0,2.08-.18,1.83,1.83,0,0,0,1.24-1.57c.09.16-.14.26-.29.37s-.3.4-.45.6a2.1,2.1,0,0,1-1.64.53,15.93,15.93,0,0,1-3.65-.15,6.46,6.46,0,0,1-1.65-.52c-.41-.19-.89-.72-1.32-.78A2.8,2.8,0,0,0,314.09,187.05Z"/><path class="cls-6" d="M314,184.21a8.65,8.65,0,0,0,2.59.4l1.53.07a5.07,5.07,0,0,0,2.09-.18,1.77,1.77,0,0,0,1.25-1.56c.08.16-.14.28-.29.37s-.3.4-.46.6a2.08,2.08,0,0,1-1.64.53,17.05,17.05,0,0,1-3.64-.15,6.74,6.74,0,0,1-1.65-.52c-.42-.2-.89-.72-1.33-.78A2.88,2.88,0,0,0,314,184.21Z"/><path class="cls-6" d="M313.35,181.34a8.71,8.71,0,0,0,2.59.41l1.53.07a5.28,5.28,0,0,0,2.1-.18,1.79,1.79,0,0,0,1.24-1.56c.09.15-.14.27-.28.37s-.31.4-.47.59a2.11,2.11,0,0,1-1.63.54,17.15,17.15,0,0,1-3.65-.15,6.88,6.88,0,0,1-1.65-.52c-.41-.2-.89-.72-1.32-.78A2.75,2.75,0,0,0,313.35,181.34Z"/><path class="cls-8" d="M313.66,178.27a8.35,8.35,0,0,0,2.59.4l1.53.08a5.44,5.44,0,0,0,2.09-.18,1.79,1.79,0,0,0,1.25-1.56c.08.15-.14.27-.29.37s-.3.39-.46.59a2.12,2.12,0,0,1-1.64.54,16.43,16.43,0,0,1-3.64-.16,6.34,6.34,0,0,1-1.65-.52c-.42-.19-.89-.71-1.33-.78A2.75,2.75,0,0,0,313.66,178.27Z"/><path class="cls-9" d="M357.32,316.06s4.74,9.2,2.38,10.62-2.9,2.15-3.83.66-3.48-8.28-3.48-8.28,4.17,9.6,2.4,9.49-.45,1.11-2.45-.21-3.24-8.75-3.24-8.75,2.35,7.46.87,9-1.79,2.17-2.93.71-4.63-5-.16-9.25-.08,10.32-2.57,9.93-3.29-.06-2.49-2.88,1.88-11.25,2.69-11.6,5.8-1.82,5.8-1.82Z"/><path class="cls-10" d="M315.15,265.25c10.88,9.56,29.11,33.83,28.93,45.16s10.83,10.66,13.22,2S342.52,268.5,337,260.32c-8.13-11.94-16.34-14.16-29.07-13.71-6,.21-13.43,3.19-12.58,7.29l15.21,13Z"/><polygon class="cls-10" points="346.76 312.96 345.12 322.87 350.34 317.03 349.22 322.46 351.95 317.82 352.81 321.74 353.3 317.91 356.39 321.02 355.37 316.26 358.51 320.6 356.57 313.5 346.76 312.96"/><path class="cls-9" d="M211.74,327.83s-3.2,9.84-.64,10.87,3.2,1.65,3.88,0,2.1-8.73,2.1-8.73-2.57,10.14-.84,9.75.63,1,2.38-.6,1.8-9.15,1.8-9.15-1.12,7.73.58,9,2.11,1.85,3,.23,3.77-5.66-1.33-9.16,1.74,10.18,4.12,9.39,3.25-.59,2-3.24-3.65-10.79-4.51-11-6-.87-6-.87Z"/><path class="cls-10" d="M245.2,270.91c-9.2,11.18-23.29,38.06-21.29,49.22s-9,12.25-12.73,4.1,7.53-45.73,11.71-54.69c6.11-13.09,13.85-16.6,26.49-18.2,5.92-.75,13.78,1,13.59,5.17l-12.92,15.27Z"/><polygon class="cls-10" points="221.66 323.08 224.88 332.6 218.79 327.67 220.77 332.85 217.32 328.71 217.11 332.71 216.01 329.01 213.45 332.58 213.7 327.71 211.3 332.5 212.07 325.18 221.66 323.08"/><ellipse class="cls-10" cx="277" cy="225.57" rx="40.9" ry="38.57" transform="matrix(1, -0.08, 0.08, 1, -17.28, 23.06)"/><ellipse class="cls-10" cx="282.2" cy="289.9" rx="57.55" ry="54.27" transform="translate(-22.44 23.68) rotate(-4.62)"/><ellipse class="cls-9" cx="266.04" cy="210.89" rx="10.82" ry="13.72" transform="translate(-16.13 22.12) rotate(-4.62)"/><ellipse class="cls-9" cx="285.19" cy="209.34" rx="10.82" ry="13.72" transform="translate(-15.94 23.66) rotate(-4.62)"/><ellipse class="cls-9" cx="277.86" cy="237.12" rx="27.13" ry="25.58" transform="translate(-18.2 23.16) rotate(-4.62)"/><g id="Øjne"><ellipse class="cls-11" cx="284.91" cy="206.68" rx="5.61" ry="8.09" transform="matrix(1, -0.08, 0.08, 1, -15.73, 23.63)"/><ellipse class="cls-11" cx="266.83" cy="208.14" rx="5.61" ry="8.09" transform="translate(-15.9 22.18) rotate(-4.62)"/><ellipse class="cls-12" cx="266.91" cy="208.21" rx="4.63" ry="4.36" transform="translate(-15.91 22.19) rotate(-4.62)"/><ellipse class="cls-12" cx="284.83" cy="206.76" rx="4.63" ry="4.36" transform="translate(-15.74 23.63) rotate(-4.62)"/><ellipse class="cls-13" cx="267.02" cy="207.76" rx="2.89" ry="2.73" transform="translate(-15.87 22.19) rotate(-4.62)"/><ellipse class="cls-13" cx="285.09" cy="206.3" rx="2.89" ry="2.73" transform="translate(-15.7 23.64) rotate(-4.62)"/><ellipse class="cls-11" cx="267.71" cy="209.55" rx="0.99" ry="0.93" transform="translate(-16.02 22.25) rotate(-4.62)"/><ellipse class="cls-11" cx="265.68" cy="206.9" rx="1.98" ry="1.87" transform="translate(-15.81 22.08) rotate(-4.62)"/><ellipse class="cls-11" cx="285.8" cy="208.09" rx="0.99" ry="0.93" transform="translate(-15.84 23.71) rotate(-4.62)"/><ellipse class="cls-11" cx="283.76" cy="205.44" rx="1.98" ry="1.87" transform="translate(-15.63 23.53) rotate(-4.62)"/></g><ellipse id="Næse" class="cls-13" cx="277.57" cy="219.21" rx="6.35" ry="3.34" transform="translate(-16.76 23.08) rotate(-4.62)"/><g id="Mund"><path class="cls-14" d="M299.78,227.86a23.6,23.6,0,0,1-8.93,20.65,19.91,19.91,0,0,1-21.68,1.75,23.57,23.57,0,0,1-12.12-18.94v0l6.63-.54,4-.32,1.15-.09,3.06-.25.83-.07,3.61-.29,23.44-1.89Z"/><ellipse class="cls-13" cx="279.2" cy="239.36" rx="6.51" ry="8.01" transform="translate(-18.38 23.28) rotate(-4.62)"/><path class="cls-9" d="M272.2,229.37a2.31,2.31,0,0,0-.32.74l-3.06.25a2.53,2.53,0,0,0-.6-.85,2.84,2.84,0,0,1,3.84-.26.86.86,0,0,1,.14.13Z"/><path class="cls-11" d="M273,231a2.73,2.73,0,0,1-5.42.58c0-.05,0-.1,0-.15a2.25,2.25,0,0,1,.12-1l1.15-.09,3.06-.25.83-.06A2.5,2.5,0,0,1,273,231Z"/><path class="cls-9" d="M268.22,229.51a2.52,2.52,0,0,0-.55.93l-4,.33a2.76,2.76,0,0,1,3.29-1.91,2.71,2.71,0,0,1,1.27.65Z"/><path class="cls-9" d="M268.82,230.35l-1.15.1a2.48,2.48,0,0,1,.55-.94A2.59,2.59,0,0,1,268.82,230.35Z"/><path class="cls-11" d="M269,231.13a2.73,2.73,0,0,1-5.41.58c0-.05,0-.09,0-.14a2.48,2.48,0,0,1,.08-.81l4-.32,1.15-.09A2.64,2.64,0,0,1,269,231.13Z"/><path class="cls-11" d="M281.67,230.11a2.39,2.39,0,0,1-.3,1.38,1.77,1.77,0,0,1-.21.32,2.81,2.81,0,0,1-4.31.17l-.11-.14a2.44,2.44,0,0,1-.44-2.08l5.17-.42A2.25,2.25,0,0,1,281.67,230.11Z"/><path class="cls-9" d="M285.48,228.12a2.56,2.56,0,0,0-.45.94l-3.55.28a2.06,2.06,0,0,0-.33-.55,2.81,2.81,0,0,1,3.67-1.12A2.57,2.57,0,0,1,285.48,228.12Z"/><path class="cls-9" d="M281.48,229.34l-.56,0a2.57,2.57,0,0,1,.23-.6A2.06,2.06,0,0,1,281.48,229.34Z"/><path class="cls-11" d="M286.27,229.73a2.72,2.72,0,0,1-5.42.44h0a2.3,2.3,0,0,1,.07-.78l5.17-.42A2,2,0,0,1,286.27,229.73Z"/><path class="cls-9" d="M276.62,229a2.29,2.29,0,0,0-.3.72l-3.61.29a2.58,2.58,0,0,0-.51-.68,2.83,2.83,0,0,1,3.73-.89,2.53,2.53,0,0,1,.69.56Z"/><path class="cls-9" d="M272.71,230l-.83.07a2.31,2.31,0,0,1,.32-.74A2.53,2.53,0,0,1,272.71,230Z"/><path class="cls-9" d="M281.16,228.79a2.22,2.22,0,0,0-.24.6l-3.87.32a2.36,2.36,0,0,0-.42-.67,2.83,2.83,0,0,1,3.73-.92,2.72,2.72,0,0,1,.8.67Z"/><path class="cls-9" d="M277.05,229.7l-.73.06a2.29,2.29,0,0,1,.3-.72A2.58,2.58,0,0,1,277.05,229.7Z"/><path class="cls-11" d="M277.24,230.46a2.47,2.47,0,0,1-.25,1.28,1.71,1.71,0,0,1-.13.23,2.74,2.74,0,0,1-2,1.26h-.1a2.65,2.65,0,0,1-2.91-2.36,2.57,2.57,0,0,1,.06-.78l.84-.06,3.6-.29.73-.06A2.29,2.29,0,0,1,277.24,230.46Z"/><path class="cls-9" d="M294.57,228.28l-4.37.36a2.46,2.46,0,0,0-.36-.58,2.83,2.83,0,0,1,3.75-.81A2.49,2.49,0,0,1,294.57,228.28Z"/><path class="cls-11" d="M294.84,229.2a2.73,2.73,0,0,1-5.43.44,2.36,2.36,0,0,1,.11-.95l5.06-.41A2.69,2.69,0,0,1,294.84,229.2Z"/><path class="cls-9" d="M289.84,228.05a2.26,2.26,0,0,0-.32.64l-3.43.27a2.4,2.4,0,0,0-.6-.85,2.83,2.83,0,0,1,3.8-.58,3,3,0,0,1,.56.51Z"/><path class="cls-9" d="M290.2,228.64l-.67.05a2.4,2.4,0,0,1,.32-.64A2.7,2.7,0,0,1,290.2,228.64Z"/><path class="cls-9" d="M286.09,229l-1.07.09a2.43,2.43,0,0,1,.46-.94A2.56,2.56,0,0,1,286.09,229Z"/><path class="cls-11" d="M290.38,229.4a2.73,2.73,0,0,1-5.42.44,2.28,2.28,0,0,1,.07-.78l5.17-.42A2.48,2.48,0,0,1,290.38,229.4Z"/><path class="cls-9" d="M291.24,250.16a6.1,6.1,0,0,1-5.77,6.4,6.45,6.45,0,0,1-5-1.79,6.53,6.53,0,0,1-8.71,1.58,5.69,5.69,0,0,1-2.56-6.08,19.94,19.94,0,0,0,21.68-1.76A5.92,5.92,0,0,1,291.24,250.16Z"/><path class="cls-15" d="M290.84,248.51a19.92,19.92,0,0,1-21.67,1.76,6.22,6.22,0,0,1,5.64-4.71l.41,0h0a6.37,6.37,0,0,1,4.61,1.8h0a6.4,6.4,0,0,1,4.26-2.52h0l.4,0A6.23,6.23,0,0,1,290.84,248.51Z"/></g><g id="Øre"><ellipse class="cls-10" cx="230.8" cy="222.91" rx="16.49" ry="15.55" transform="translate(-17.21 19.32) rotate(-4.62)"/><ellipse class="cls-10" cx="326.95" cy="215.14" rx="16.49" ry="15.55" transform="translate(-16.27 27.05) rotate(-4.62)"/><path class="cls-16" d="M232.86,221.16c-.31,7.91-6,9-6,9a10.19,10.19,0,0,1-3.48-14.57,11.68,11.68,0,0,1,15.47-3.42S233.17,213.25,232.86,221.16Z"/><path class="cls-16" d="M324.54,213.75c1.57,7.75,7.39,7.89,7.39,7.89A10.19,10.19,0,0,0,333,206.71a11.67,11.67,0,0,0-15.82-.89h0S323,206,324.54,213.75Z"/></g><ellipse class="cls-9" cx="283.06" cy="294.1" rx="28.86" ry="37.24" transform="translate(-22.78 23.77) rotate(-4.62)"/><polygon class="cls-10" points="267.47 188.13 277.81 178.42 272.79 187.7 278.97 180.88 277.8 187.3 281.23 182.52 281.47 187.79 267.47 188.13"/><path class="cls-9" d="M319.11,362.32s-2.2,10.07.46,10.87,3.36,1.36,3.87-.31,1.23-8.87,1.23-8.87-1.55,10.32.14,9.78.73,1,2.31-.8.88-9.27.88-9.27-.35,7.8,1.47,8.87,2.29,1.65,3,0,3.19-6-2.24-9,2.75,10,5.05,9,3.17-.87,1.67-3.4-4.73-10.42-5.61-10.55-6.08-.33-6.08-.33Z"/><path class="cls-9" d="M241.27,368.61s-2.2,10.07.46,10.87,3.36,1.36,3.87-.31,1.23-8.86,1.23-8.86-1.55,10.31.14,9.77.73,1,2.31-.8.87-9.26.87-9.26-.34,7.79,1.48,8.87,2.29,1.65,3,0,3.19-6-2.24-9,2.75,10,5,9,3.17-.86,1.67-3.39-4.74-10.42-5.61-10.56-6.08-.32-6.08-.32Z"/><g id="Ben"><ellipse class="cls-10" cx="247" cy="342.64" rx="8.49" ry="27.91" transform="translate(-26.81 21.02) rotate(-4.62)"/><ellipse class="cls-10" cx="322.78" cy="336.52" rx="8.49" ry="27.91" transform="matrix(1, -0.08, 0.08, 1, -26.07, 27.11)"/><polygon class="cls-10" points="243.49 364.83 240.56 374.48 246.5 369.3 244.67 374.56 247.99 370.27 248.32 374.26 249.32 370.51 251.97 373.97 251.58 369.11 254.12 373.79 253.14 366.51 243.49 364.83"/><polygon class="cls-10" points="329.99 357.08 334.44 366.14 327.74 361.97 330.39 366.87 326.42 363.18 326.74 367.17 325.15 363.63 323.08 367.46 322.69 362.61 320.94 367.64 320.74 360.29 329.99 357.08"/></g><path class="cls-10" d="M318,247.08a21.36,21.36,0,0,1,3.88-2.77c1.47-.78,3.08-1.27,4.28-.69a52,52,0,0,0,6,2.36l-5.72,1.48,6,1.56-5.37,3.08-13.67-.52,1.84-9.32,4.27,1.89,1.63-3.8,2.64,9.3"/><path class="cls-10" d="M239.39,253.43a21.75,21.75,0,0,0-4.27-2.11c-1.58-.53-3.24-.75-4.34,0a52.63,52.63,0,0,1-5.57,3.3l5.88.55-5.64,2.49,5.8,2.18,13.4-2.71-3.31-8.91-3.9,2.56-2.23-3.49-1.12,9.6"/><path class="cls-2" d="M463.76,199.82a11.53,11.53,0,0,1,0,2.56,76.9,76.9,0,0,1-1.23,7.69c-.53,2.61-1.16,5.26-1.79,7.41-.73,2.5-1.44,4.31-2,4.56-1.69.81-9.47-.19-11.95-2.69-.8-.81.56-2.7-.28-6.37s3.37-8,2.52-10,2.1-5.44,2.77-5.8a7.7,7.7,0,0,1,3.08-.51,20.26,20.26,0,0,1,4.85.47C461.8,197.6,463.51,198.47,463.76,199.82Z"/><path class="cls-2" d="M472.63,159.69a11.44,11.44,0,0,1,0,2.55,77.29,77.29,0,0,1-1.23,7.71c-.53,2.61-1.16,5.25-1.79,7.4-.73,2.5-1.45,4.32-2,4.56-1.7.82-9.48-.19-11.95-2.68-.8-.82.56-2.7-.28-6.38s3.36-8,2.52-10,2.09-5.44,2.76-5.8a7.72,7.72,0,0,1,3.09-.52,19.77,19.77,0,0,1,4.85.48C470.68,157.44,472.38,158.32,472.63,159.69Z"/><path class="cls-2" d="M467.86,181.28a10.88,10.88,0,0,1,0,2.55,74.47,74.47,0,0,1-1.22,7.71c-.54,2.61-1.17,5.26-1.8,7.4-.72,2.51-1.44,4.32-1.95,4.57-1.7.81-9.48-.19-11.95-2.69-.8-.81.56-2.7-.28-6.37s3.36-8,2.51-10,2.1-5.44,2.77-5.8a7.9,7.9,0,0,1,3.09-.52,20.79,20.79,0,0,1,4.85.48C465.91,179,467.61,179.91,467.86,181.28Z"/><path class="cls-2" d="M459.13,220.77a11.44,11.44,0,0,1,0,2.55,76.64,76.64,0,0,1-1.23,7.7c-.53,2.61-1.16,5.26-1.79,7.4-.73,2.51-1.44,4.32-1.95,4.57-1.7.81-9.48-.19-12-2.69-.8-.81.56-2.7-.28-6.38s3.37-8,2.52-10,2.1-5.44,2.77-5.8a7.85,7.85,0,0,1,3.08-.52,19.77,19.77,0,0,1,4.85.48C457.18,218.53,458.89,219.41,459.13,220.77Z"/><path class="cls-2" d="M455.34,237.91a11,11,0,0,1,0,2.56,77.29,77.29,0,0,1-1.23,7.71c-.53,2.61-1.16,5.26-1.79,7.4-.73,2.51-1.45,4.32-2,4.57-1.7.81-9.47-.19-11.95-2.69-.8-.81.56-2.7-.28-6.37s3.37-8,2.52-10,2.1-5.44,2.77-5.8a7.85,7.85,0,0,1,3.08-.52,20.79,20.79,0,0,1,4.85.48C453.39,235.67,455.1,236.55,455.34,237.91Z"/><path class="cls-2" d="M451.21,256.63a10.87,10.87,0,0,1,0,2.55,73.86,73.86,0,0,1-1.22,7.7c-.53,2.61-1.16,5.26-1.79,7.4-.73,2.51-1.45,4.32-2,4.57-1.7.81-9.48-.19-11.95-2.69-.8-.81.56-2.7-.28-6.38s3.36-8,2.52-10,2.09-5.44,2.76-5.8a7.9,7.9,0,0,1,3.09-.52,20.79,20.79,0,0,1,4.85.48C449.25,254.39,451,255.27,451.21,256.63Z"/><path class="cls-2" d="M447.74,272.33a11,11,0,0,1,0,2.56,74.09,74.09,0,0,1-1.22,7.69c-.53,2.61-1.16,5.26-1.79,7.41-.73,2.5-1.45,4.31-2,4.56-1.7.81-9.48-.19-11.95-2.69-.8-.81.56-2.7-.28-6.37s3.36-8,2.52-10,2.09-5.44,2.76-5.81a7.94,7.94,0,0,1,3.09-.51,19.77,19.77,0,0,1,4.85.48C445.78,270.11,447.49,271,447.74,272.33Z"/><path class="cls-3" d="M457.38,143c-17.59,3.64-51.36,25.78-54.53,31.8s-4.65,18.75-4.65,18.75,7.86-14.92,7.79-11.87-2.64,10.28-3.76,11.22,8.52-12.1,8.6-9.91-1.37,7.27-1.37,7.27,5.92-15.31,7.21-13.1-2,8.47-2,8.47,7.44-12.37,8-9.93-2.1,7.5-2.1,7.5,8.8-13.8,8-9.31a39.33,39.33,0,0,1-1.85,7s7.16-11.27,7.85-9.07-2.45,6.39-2.45,6.39,8.54-12.71,9.46-10.38-4.19,7.93-4.19,7.93,10.75-14,10.78-10-4.55,8.65-4.55,8.65,12-6,12.58-8.73,23.45-10.7,20.49-14.41S457.38,143,457.38,143Z"/><path class="cls-4" d="M459,136.63c-17.56-3.8-57.42,2.75-62.75,7s-11.85,15.26-11.85,15.26,13.22-10.45,11.94-7.7-6.59,8.33-8,8.74,12.69-7.61,11.87-5.57-4.2,6.08-4.2,6.08,11.62-11.59,11.9-9-5.26,6.93-5.26,6.93S414.51,150,414,152.45s-5,6-5,6,13.64-9,11.07-5.28a40.43,40.43,0,0,1-4.53,5.66s11.13-7.4,10.86-5.12-4.83,4.87-4.83,4.87,12.94-8.16,12.85-5.65-7,5.56-7,5.56,15.5-8.46,13.91-4.76-7.68,6.06-7.68,6.06,13.42-.56,15.05-2.89,25.77-.27,24.57-4.86S459,136.63,459,136.63Z"/><path class="cls-3" d="M469,132.85c-15.09-9.75-54.69-17.68-61.16-15.62s-16.47,10.1-16.47,10.1,16.06-5.11,13.88-3-9.09,5.46-10.56,5.35,14.57-2.64,13.09-1-6.08,4.23-6.08,4.23,15-6.76,14.31-4.27-7.37,4.63-7.37,4.63,14-3.59,12.65-1.46-6.74,3.84-6.74,3.84,15.95-3.66,12.22-1a38.68,38.68,0,0,1-6.23,3.69s13-3,12-.95-6.23,2.84-6.23,2.84,15-3.06,14-.76-8.55,2.72-8.55,2.72,17.49-2.42,14.7.46-9.33,3-9.33,3,12.75,4.21,15.1,2.61,24.2,8.84,24.7,4.12S469,132.85,469,132.85Z"/><path class="cls-4" d="M476.24,132.15c-10.77-14.37-45.16-35.56-51.95-35.88s-19,3.76-19,3.76,16.84.75,14.06,2-10.43,2-11.76,1.36S422.21,106,420.26,107s-7.16,1.83-7.16,1.83,16.38-1.13,14.91,1-8.51,1.78-8.51,1.78,14.35,1.49,12.37,3-7.68,1.27-7.68,1.27S440.44,118,436,119.13a39.24,39.24,0,0,1-7.13,1.3s13.25,1.71,11.53,3.26-6.82.5-6.82.5,15.13,2.33,13.41,4.16-9-.42-9-.42,17.23,3.81,13.63,5.53-9.78-.45-9.78-.45,10.5,8.38,13.25,7.69,19.63,16.69,21.73,12.44S476.24,132.15,476.24,132.15Z"/><path class="cls-3" d="M483.06,133.77c-4.71-17.33-28.85-49.71-35-52.51s-19-3.5-19-3.5,15.36,6.93,12.31,7-10.42-2-11.44-3.08,12.63,7.79,10.43,8-7.33-.93-7.33-.93,15.64,5,13.51,6.4-8.58-1.48-8.58-1.48,12.79,6.67,10.38,7.37-7.6-1.65-7.6-1.65,14.3,7.95,9.78,7.4a39.1,39.1,0,0,1-7.11-1.42s11.69,6.47,9.52,7.3-6.5-2.07-6.5-2.07,13.2,7.75,10.93,8.82-8.17-3.69-8.17-3.69,14.62,9.88,10.62,10.16-8.92-4-8.92-4,6.66,11.66,9.47,12,12.1,22.76,15.62,19.58S483.06,133.77,483.06,133.77Z"/><path class="cls-4" d="M488.14,145.32c6.45-16.77,6.11-57.16,2.76-63.07s-13.23-14-13.23-14,8.27,14.66,5.75,13-7.21-7.8-7.4-9.24,5.56,13.71,3.68,12.6-5.38-5.08-5.38-5.08S484,92.73,481.44,92.6s-6-6.26-6-6.26,6.38,12.94,4,12.08-5.16-5.82-5.16-5.82,6.84,14.88,3.52,11.75A38.77,38.77,0,0,1,472.89,99s5.61,12.14,3.4,11.52-4.06-5.51-4.06-5.51,6.07,14,3.61,13.57-4.41-7.81-4.41-7.81,5.95,16.61,2.55,14.47-4.8-8.52-4.8-8.52-1.51,13.34.54,15.31-3.7,25.5,1,25S488.14,145.32,488.14,145.32Z"/><path class="cls-3" d="M473.32,135.63c14.14-11.06,52.87-22.52,59.51-21s17.31,8.57,17.31,8.57-16.45-3.64-14.1-1.73,9.56,4.62,11,4.38-14.74-1.32-13.11.16,6.43,3.65,6.43,3.65-15.52-5.39-14.66-3,7.76,4,7.76,4-14.24-2.33-12.74-.32,7.09,3.24,7.09,3.24-16.23-2.21-12.27.06a39.32,39.32,0,0,0,6.55,3.12s-13.25-1.81-12,.12,6.46,2.28,6.46,2.28-15.22-1.71-14,.51,8.75,1.93,8.75,1.93-17.63-.85-14.59,1.78,9.56,2.11,9.56,2.11-12.32,5.34-14.8,4-23.31,11-24.23,6.32S473.32,135.63,473.32,135.63Z"/><path class="cls-4" d="M480.65,139.88c17.77-2.65,57.11,6.49,62.17,11s10.83,16,10.83,16-12.51-11.31-11.4-8.47,6,8.74,7.4,9.25-12.17-8.42-11.49-6.34,3.8,6.35,3.8,6.35-10.84-12.34-11.29-9.82,4.79,7.28,4.79,7.28-11.24-9.06-10.93-6.58,4.55,6.31,4.55,6.31-13-9.91-10.7-6a40,40,0,0,0,4.15,5.94S511.91,156.74,512,159s4.5,5.16,4.5,5.16-12.39-9-12.46-6.47,6.66,6,6.66,6-14.92-9.43-13.57-5.65,7.29,6.54,7.29,6.54-13.36-1.43-14.83-3.85-25.69-2-24.19-6.46S480.65,139.88,480.65,139.88Z"/><path class="cls-3" d="M478,142.34c17.77,2.59,52.81,22.69,56.33,28.5s5.76,18.44,5.76,18.44-8.72-14.42-8.48-11.39,3.25,10.1,4.42,11-9.23-11.57-9.17-9.38,1.79,7.17,1.79,7.17-6.82-14.94-8-12.65,2.5,8.35,2.5,8.35-8.14-11.9-8.57-9.43,2.55,7.36,2.55,7.36-9.61-13.26-8.52-8.83a39.64,39.64,0,0,0,2.28,6.88s-7.82-10.83-8.37-8.59,2.82,6.24,2.82,6.24-9.28-12.18-10.06-9.8,4.64,7.67,4.64,7.67-11.56-13.32-11.36-9.33,5.06,8.37,5.06,8.37-12.37-5.22-13.09-8-24-9.28-21.32-13.16S478,142.34,478,142.34Z"/><path class="cls-4" d="M482.1,148.38c12.91,12.48,29.59,49.27,29,56.05s-6.1,18.33-6.1,18.33,1.34-16.8-.23-14.2-3.26,10.1-2.83,11.5-.73-14.79-2-13S497.3,214,497.3,214s3.19-16.11.92-14.93-2.84,8.23-2.84,8.23.34-14.43-1.46-12.65-2.23,7.45-2.23,7.45-.05-16.36-1.76-12.14a39.15,39.15,0,0,0-2.18,6.92s0-13.37-1.78-11.87-1.36,6.71-1.36,6.71-.4-15.31-2.43-13.83-.72,8.94-.72,8.94-1.59-17.58-3.77-14.2-.78,9.76-.78,9.76-7-11.47-6-14.12-14.07-21.6-9.58-23.14S482.1,148.38,482.1,148.38Z"/><path class="cls-5" d="M452.93,194.58c.27-2.23.67-4.71,2.48-6.05"/><path class="cls-6" d="M445.11,236.7a11.73,11.73,0,0,0,3.51,1l2.1.38a7.39,7.39,0,0,0,2.92.13,2.5,2.5,0,0,0,2-1.92c.08.22-.25.35-.47.45s-.49.5-.75.74a2.92,2.92,0,0,1-2.35.45,23.45,23.45,0,0,1-5-.86,9.33,9.33,0,0,1-2.19-1c-.53-.34-1.1-1.15-1.69-1.32A3.84,3.84,0,0,0,445.11,236.7Z"/><path class="cls-6" d="M447.23,224.7a11.82,11.82,0,0,0,3.42,1.33l2.06.56a7.38,7.38,0,0,0,2.9.39,2.5,2.5,0,0,0,2.16-1.75c.07.23-.28.32-.5.41s-.53.45-.81.67a2.88,2.88,0,0,1-2.38.24,23.09,23.09,0,0,1-4.91-1.3,9.32,9.32,0,0,1-2.1-1.21c-.5-.39-1-1.24-1.56-1.46A3.7,3.7,0,0,0,447.23,224.7Z"/><path class="cls-6" d="M445.35,230.84a11.78,11.78,0,0,0,3.41,1.32l2.05.57a7.29,7.29,0,0,0,2.91.38,2.46,2.46,0,0,0,2.16-1.75c.07.24-.27.33-.5.42s-.53.45-.81.67a2.91,2.91,0,0,1-2.38.23,22.51,22.51,0,0,1-4.91-1.3,9.51,9.51,0,0,1-2.1-1.2c-.5-.39-1-1.24-1.56-1.46A3.84,3.84,0,0,0,445.35,230.84Z"/><path class="cls-6" d="M443.39,241.73a11.92,11.92,0,0,0,3.4,1.33l2.06.56a7.22,7.22,0,0,0,2.9.38,2.48,2.48,0,0,0,2.16-1.75c.07.24-.28.33-.5.42s-.53.45-.81.67a3,3,0,0,1-2.39.24,23.86,23.86,0,0,1-4.91-1.3,9.48,9.48,0,0,1-2.09-1.21c-.5-.39-1-1.24-1.56-1.46A3.72,3.72,0,0,0,443.39,241.73Z"/><path class="cls-6" d="M442.15,247.33a11.9,11.9,0,0,0,3.4,1.32l2.06.56a7.23,7.23,0,0,0,2.9.39,2.52,2.52,0,0,0,2.17-1.75c.06.23-.28.31-.51.41s-.53.45-.8.67a2.9,2.9,0,0,1-2.39.24,23.09,23.09,0,0,1-4.91-1.3,9.26,9.26,0,0,1-2.09-1.21c-.5-.38-1-1.24-1.57-1.45A3.82,3.82,0,0,0,442.15,247.33Z"/><path class="cls-6" d="M441.3,253.15a12.1,12.1,0,0,0,3.41,1.33l2.05.56a7.43,7.43,0,0,0,2.91.39,2.52,2.52,0,0,0,2.16-1.75c.07.23-.27.31-.5.41s-.54.45-.81.67a2.9,2.9,0,0,1-2.39.24,23.86,23.86,0,0,1-4.91-1.3,9.48,9.48,0,0,1-2.09-1.21c-.5-.39-1-1.24-1.56-1.46A4,4,0,0,0,441.3,253.15Z"/><path class="cls-6" d="M440.16,258.33a11.92,11.92,0,0,0,3.4,1.33l2.06.56a7.41,7.41,0,0,0,2.9.39,2.49,2.49,0,0,0,2.16-1.76c.07.24-.27.33-.5.42s-.53.45-.8.67a3,3,0,0,1-2.39.24,23.7,23.7,0,0,1-4.91-1.3,9.26,9.26,0,0,1-2.09-1.21c-.5-.39-1-1.24-1.57-1.46A3.82,3.82,0,0,0,440.16,258.33Z"/><path class="cls-6" d="M439,263.53a11.61,11.61,0,0,0,3.4,1.32l2.06.57a7.4,7.4,0,0,0,2.9.38,2.5,2.5,0,0,0,2.17-1.75c.06.24-.28.31-.51.42s-.53.45-.8.67a2.94,2.94,0,0,1-2.39.23,23.09,23.09,0,0,1-4.91-1.3,9.22,9.22,0,0,1-2.09-1.2c-.5-.39-1-1.25-1.57-1.46A3.82,3.82,0,0,0,439,263.53Z"/><path class="cls-6" d="M438.25,267.72a12,12,0,0,0,3.41,1.33l2,.56a7.21,7.21,0,0,0,2.89.38,2.54,2.54,0,0,0,2.16-1.75c.07.23-.27.31-.5.41s-.53.46-.81.67a2.9,2.9,0,0,1-2.39.24,23.25,23.25,0,0,1-4.91-1.3,9.44,9.44,0,0,1-2.09-1.2c-.5-.39-1-1.25-1.56-1.46A3.88,3.88,0,0,0,438.25,267.72Z"/><path class="cls-6" d="M436.83,271.77a11.8,11.8,0,0,0,3.42,1.32l2.06.57a7.37,7.37,0,0,0,2.9.38,2.5,2.5,0,0,0,2.16-1.75c.07.23-.27.31-.5.42s-.53.45-.8.67a2.94,2.94,0,0,1-2.39.23,23.09,23.09,0,0,1-4.91-1.3,9.29,9.29,0,0,1-2.1-1.2c-.5-.39-1-1.25-1.56-1.46A3.67,3.67,0,0,0,436.83,271.77Z"/><path class="cls-6" d="M436.26,276a11.61,11.61,0,0,0,3.4,1.32l2.06.56a7.23,7.23,0,0,0,2.9.39,2.5,2.5,0,0,0,2.16-1.75c.07.23-.27.31-.5.42s-.53.45-.81.66a2.9,2.9,0,0,1-2.39.24,23.41,23.41,0,0,1-4.91-1.3,9.44,9.44,0,0,1-2.09-1.2c-.5-.39-1-1.25-1.56-1.46A3.82,3.82,0,0,0,436.26,276Z"/><path class="cls-6" d="M434.72,281.32a11.82,11.82,0,0,0,3.42,1.33l2.05.56a7.46,7.46,0,0,0,2.91.39,2.52,2.52,0,0,0,2.16-1.75c.07.23-.27.31-.5.41s-.54.45-.81.67a2.88,2.88,0,0,1-2.38.24,23.09,23.09,0,0,1-4.91-1.3,9.32,9.32,0,0,1-2.1-1.21c-.5-.39-1-1.24-1.56-1.46A3.64,3.64,0,0,0,434.72,281.32Z"/><path class="cls-6" d="M433.53,286.71a11.87,11.87,0,0,0,3.41,1.33l2.06.56a7.27,7.27,0,0,0,2.91.38,2.49,2.49,0,0,0,2.16-1.75c.07.24-.27.31-.51.42s-.53.45-.8.67a3,3,0,0,1-2.38.24,24,24,0,0,1-4.92-1.3,9.48,9.48,0,0,1-2.09-1.21c-.5-.39-1-1.24-1.56-1.46A3.6,3.6,0,0,0,433.53,286.71Z"/><path class="cls-6" d="M449,220.3a11.92,11.92,0,0,0,3.4,1.33l2.06.56a7.41,7.41,0,0,0,2.9.39,2.49,2.49,0,0,0,2.16-1.75c.07.23-.27.31-.5.41s-.53.45-.81.67a3,3,0,0,1-2.38.24,23.7,23.7,0,0,1-4.91-1.3,9.55,9.55,0,0,1-2.1-1.21c-.5-.39-1-1.24-1.56-1.46A3.78,3.78,0,0,0,449,220.3Z"/><path class="cls-6" d="M449.32,214.88a11.61,11.61,0,0,0,3.4,1.32l2.06.56a7.23,7.23,0,0,0,2.9.39,2.52,2.52,0,0,0,2.17-1.75c.06.23-.28.33-.51.42s-.53.45-.8.66a2.9,2.9,0,0,1-2.39.24,23.09,23.09,0,0,1-4.91-1.3,9.22,9.22,0,0,1-2.09-1.2c-.5-.39-1-1.25-1.57-1.46A3.85,3.85,0,0,0,449.32,214.88Z"/><path class="cls-6" d="M450.06,209.56a11.61,11.61,0,0,0,3.4,1.32l2.06.56a7.23,7.23,0,0,0,2.9.39,2.52,2.52,0,0,0,2.17-1.75c.06.23-.28.33-.51.42s-.53.45-.8.66a2.9,2.9,0,0,1-2.39.24,23.09,23.09,0,0,1-4.91-1.3,9.22,9.22,0,0,1-2.09-1.2c-.5-.39-1-1.25-1.57-1.46A3.81,3.81,0,0,0,450.06,209.56Z"/><path class="cls-6" d="M450.9,205.76a11.61,11.61,0,0,0,3.4,1.32l2.06.57a7.4,7.4,0,0,0,2.9.38,2.52,2.52,0,0,0,2.17-1.75c.06.24-.28.33-.51.42s-.53.45-.8.67a2.94,2.94,0,0,1-2.39.23,23.09,23.09,0,0,1-4.91-1.3,9.22,9.22,0,0,1-2.09-1.2c-.5-.39-1-1.25-1.57-1.46A3.81,3.81,0,0,0,450.9,205.76Z"/><path class="cls-6" d="M452.19,201.87a12.38,12.38,0,0,0,3.41,1.32l2.06.56a7.38,7.38,0,0,0,2.9.39,2.5,2.5,0,0,0,2.16-1.75c.07.23-.28.33-.5.41s-.53.45-.81.67a2.9,2.9,0,0,1-2.39.24,23.25,23.25,0,0,1-4.91-1.3A9.48,9.48,0,0,1,452,201.2c-.5-.39-1-1.24-1.56-1.46A3.82,3.82,0,0,0,452.19,201.87Z"/><path class="cls-6" d="M453.48,198.06a11.92,11.92,0,0,0,3.4,1.33l2.06.56a7.41,7.41,0,0,0,2.9.39,2.5,2.5,0,0,0,2.16-1.75c.07.23-.27.32-.5.41s-.53.45-.81.67a2.92,2.92,0,0,1-2.38.24,24,24,0,0,1-4.92-1.3,9.72,9.72,0,0,1-2.09-1.21c-.5-.39-1-1.24-1.56-1.46A3.79,3.79,0,0,0,453.48,198.06Z"/><path class="cls-6" d="M453.5,194a11.61,11.61,0,0,0,3.4,1.32l2.06.56a7.25,7.25,0,0,0,2.91.39,2.52,2.52,0,0,0,2.16-1.75c.06.23-.28.33-.51.42s-.53.45-.8.67a2.94,2.94,0,0,1-2.39.23,23.09,23.09,0,0,1-4.91-1.3,9.22,9.22,0,0,1-2.09-1.2c-.5-.39-1-1.25-1.57-1.46A3.81,3.81,0,0,0,453.5,194Z"/><path class="cls-6" d="M455.51,189.3a11.61,11.61,0,0,0,3.4,1.32l2.06.57a7.22,7.22,0,0,0,2.9.38,2.49,2.49,0,0,0,2.16-1.75c.07.24-.28.33-.5.42s-.53.45-.81.67a2.93,2.93,0,0,1-2.39.23,23.41,23.41,0,0,1-4.91-1.3,9.44,9.44,0,0,1-2.09-1.2c-.5-.39-1-1.24-1.56-1.46A3.78,3.78,0,0,0,455.51,189.3Z"/><path class="cls-6" d="M456.5,184.39a11.9,11.9,0,0,0,3.4,1.32l2.06.56a7.41,7.41,0,0,0,2.9.39,2.52,2.52,0,0,0,2.17-1.75c.06.23-.28.33-.51.41s-.53.45-.8.67a2.9,2.9,0,0,1-2.39.24,23.09,23.09,0,0,1-4.91-1.3,9.26,9.26,0,0,1-2.09-1.21c-.5-.39-1-1.24-1.57-1.46A3.84,3.84,0,0,0,456.5,184.39Z"/><path class="cls-6" d="M457.74,179.53a11.72,11.72,0,0,0,3.4,1.32l2.06.56a7.2,7.2,0,0,0,2.89.39,2.55,2.55,0,0,0,2.16-1.75c.06.23-.28.31-.51.41s-.53.45-.8.67a2.9,2.9,0,0,1-2.39.24,23.7,23.7,0,0,1-4.91-1.3,9.26,9.26,0,0,1-2.09-1.21c-.5-.39-1-1.24-1.56-1.46A3.9,3.9,0,0,0,457.74,179.53Z"/><path class="cls-6" d="M458.43,175.63a11.78,11.78,0,0,0,3.41,1.32l2.06.56a7.2,7.2,0,0,0,2.9.39,2.5,2.5,0,0,0,2.16-1.75c.07.23-.28.33-.5.41s-.53.46-.81.67a2.9,2.9,0,0,1-2.39.24,23.25,23.25,0,0,1-4.91-1.3,9.44,9.44,0,0,1-2.09-1.2c-.5-.39-1-1.25-1.56-1.46A4,4,0,0,0,458.43,175.63Z"/><path class="cls-6" d="M458.46,171.55a11.61,11.61,0,0,0,3.4,1.32l2.06.56a7.23,7.23,0,0,0,2.9.39,2.52,2.52,0,0,0,2.17-1.75c.06.23-.28.33-.51.42s-.53.45-.8.66a2.9,2.9,0,0,1-2.39.24,23.09,23.09,0,0,1-4.91-1.3,9.22,9.22,0,0,1-2.09-1.2c-.5-.39-1-1.25-1.57-1.46A3.85,3.85,0,0,0,458.46,171.55Z"/><path class="cls-17" d="M459.8,167.46a11.61,11.61,0,0,0,3.4,1.32l2.06.57a7.4,7.4,0,0,0,2.9.38,2.49,2.49,0,0,0,2.16-1.75c.07.23-.27.33-.5.42s-.53.45-.81.67a2.91,2.91,0,0,1-2.38.23,23.09,23.09,0,0,1-4.91-1.3,9.51,9.51,0,0,1-2.1-1.2c-.5-.39-1-1.25-1.56-1.46A3.85,3.85,0,0,0,459.8,167.46Z"/><path class="cls-2" d="M127.21,186.81a12,12,0,0,1,1.45,2.38A82.89,82.89,0,0,1,132,197c1,2.72,2,5.54,2.59,7.89.77,2.75,1.15,4.84.82,5.37-1.11,1.73-8.91,5.27-12.64,4.38-1.21-.3-1-2.83-3.93-5.76s-1.49-9.38-3.43-10.75-1.19-6.26-.77-7a8.42,8.42,0,0,1,2.56-2.25,21.44,21.44,0,0,1,4.78-2.35C124.12,185.87,126.2,185.7,127.21,186.81Z"/><path class="cls-2" d="M112.35,144.46a12.39,12.39,0,0,1,1.45,2.39,82.89,82.89,0,0,1,3.29,7.85c1,2.73,2,5.55,2.6,7.9.76,2.74,1.14,4.84.81,5.36-1.11,1.73-8.9,5.28-12.64,4.38-1.21-.29-1-2.82-3.92-5.75s-1.5-9.38-3.44-10.76-1.18-6.25-.77-7a8.63,8.63,0,0,1,2.57-2.26,21.77,21.77,0,0,1,4.77-2.34C109.25,143.5,111.34,143.34,112.35,144.46Z"/><path class="cls-2" d="M120.34,167.24a12.12,12.12,0,0,1,1.45,2.38,80.77,80.77,0,0,1,3.3,7.87c1,2.72,1.94,5.54,2.59,7.89.77,2.75,1.15,4.84.82,5.36-1.11,1.74-8.91,5.28-12.64,4.38-1.21-.29-1-2.82-3.93-5.75s-1.49-9.38-3.43-10.76-1.19-6.25-.77-7a8.42,8.42,0,0,1,2.56-2.25,21.44,21.44,0,0,1,4.78-2.35C117.24,166.28,119.33,166.12,120.34,167.24Z"/><path class="cls-2" d="M135,208.91a11.52,11.52,0,0,1,1.44,2.38,79.33,79.33,0,0,1,3.29,7.85c1,2.72,2,5.54,2.6,7.89.77,2.75,1.14,4.84.81,5.36-1.11,1.74-8.9,5.28-12.63,4.38-1.21-.29-1-2.82-3.93-5.75s-1.49-9.38-3.44-10.76-1.18-6.25-.77-7a8.62,8.62,0,0,1,2.57-2.25,21.37,21.37,0,0,1,4.77-2.35C131.86,208,134,207.78,135,208.91Z"/><path class="cls-2" d="M141.31,227a11.91,11.91,0,0,1,1.45,2.39,79.58,79.58,0,0,1,3.3,7.86c1,2.73,1.95,5.55,2.59,7.9.77,2.74,1.15,4.84.82,5.36-1.11,1.73-8.91,5.28-12.64,4.38-1.21-.29-1-2.82-3.93-5.75s-1.49-9.38-3.43-10.76-1.19-6.25-.77-7a8.29,8.29,0,0,1,2.56-2.26,22.34,22.34,0,0,1,4.78-2.35C138.21,226,140.3,225.87,141.31,227Z"/><path class="cls-2" d="M148.24,246.74a11.56,11.56,0,0,1,1.45,2.38A82.89,82.89,0,0,1,153,257c1,2.72,2,5.54,2.6,7.9.76,2.74,1.14,4.83.81,5.36-1.11,1.73-8.9,5.27-12.64,4.38-1.21-.3-1-2.83-3.92-5.76s-1.5-9.38-3.44-10.75-1.18-6.26-.77-7a8.55,8.55,0,0,1,2.56-2.25,22.1,22.1,0,0,1,4.78-2.35C145.14,245.78,147.23,245.61,148.24,246.74Z"/><path class="cls-2" d="M154.06,263.31a12,12,0,0,1,1.45,2.38,81.81,81.81,0,0,1,3.29,7.85c1,2.72,1.94,5.54,2.59,7.89.77,2.75,1.15,4.84.81,5.36-1.1,1.74-8.9,5.28-12.63,4.38-1.21-.29-1-2.82-3.93-5.75s-1.49-9.38-3.44-10.76-1.18-6.25-.77-7a8.62,8.62,0,0,1,2.57-2.25,21.37,21.37,0,0,1,4.77-2.35C151,262.37,153.05,262.18,154.06,263.31Z"/><path class="cls-3" d="M88.62,137.77c-14.23,13.5-32.83,53.47-32.3,60.88s6.47,20.07,6.47,20.07-1.29-18.35.4-15.49,3.46,11.06,3,12.58.94-16.13,2.27-14.14,2.92,7.53,2.92,7.53-3.33-17.61-.86-16.31,3,9,3,9-.22-15.76,1.7-13.81,2.36,8.17,2.36,8.17S77.8,178.4,79.64,183A43.25,43.25,0,0,1,82,190.6S82.11,176,84,177.66,85.43,185,85.43,185s.6-16.7,2.8-15.07.67,9.77.67,9.77,1.92-19.17,4.26-15.47.75,10.64.75,10.64,7.75-12.45,6.66-15.34,15.6-23.41,10.72-25.16S88.62,137.77,88.62,137.77Z"/><path class="cls-4" d="M86.47,130.89c-18.47,6.57-51.69,35.58-54.2,42.56s-2.22,21-2.22,21,6.25-17.3,6.64-14-1.32,11.51-2.38,12.7,7.4-14.36,7.81-12-.4,8.06-.4,8.06,4.11-17.44,5.84-15.25-.9,9.46-.9,9.46,6.19-14.48,7.14-11.92-1.15,8.42-1.15,8.42,7.45-16.24,7.23-11.27a43.28,43.28,0,0,1-1,7.86s6.08-13.27,7.14-11-1.68,7.3-1.68,7.3,7.31-15,8.67-12.64-3.33,9.21-3.33,9.21,9.53-16.77,10.17-12.42-3.64,10-3.64,10,12.13-8.24,12.3-11.34,23.76-15.07,20-18.64S86.47,130.89,86.47,130.89Z"/><path class="cls-3" d="M93.51,121.68c-19.61-.37-60.92,15-65.73,20.68s-9.48,18.85-9.48,18.85,12-14,11.16-10.76-5.3,10.29-6.72,11,12-10.82,11.55-8.47-3.21,7.41-3.21,7.41,10-14.88,10.83-12.18-4.18,8.53-4.18,8.53,10.9-11.37,10.9-8.64-4.05,7.45-4.05,7.45,12.7-12.57,10.74-8a42.79,42.79,0,0,1-3.65,7S62,144.31,62.22,146.82,58.07,153,58.07,153s12.16-11.47,12.58-8.77-6.37,7.44-6.37,7.44,14.83-12.31,13.9-8-6.94,8.11-6.94,8.11,14.25-3.42,15.51-6.26,27.54-5.72,25.29-10.39S93.51,121.68,93.51,121.68Z"/><path class="cls-4" d="M99.86,116.84c-18.26-7.15-62.36-7-68.84-3.41S15.6,127.82,15.6,127.82s16.06-9,14.19-6.24-8.55,7.83-10.13,8,15-6,13.77-3.94-5.58,5.82-5.58,5.82S42.39,121,42.24,123.82s-6.87,6.56-6.87,6.56,14.17-6.89,13.22-4.32-6.39,5.6-6.39,5.6,16.28-7.39,12.85-3.76a43.6,43.6,0,0,1-5.88,5.31s13.28-6.05,12.58-3.62-6,4.39-6,4.39,15.38-6.54,14.84-3.85S62,134.89,62,134.89s18.18-6.38,15.82-2.7-9.33,5.2-9.33,5.2,14.56,1.74,16.72-.48,27.82,4.19,27.32-1S99.86,116.84,99.86,116.84Z"/><path class="cls-3" d="M107.12,114.42C92.78,101,51.75,84.88,44.4,85.86s-19.65,7.67-19.65,7.67S43,91.13,40.23,93,29.4,97.11,27.85,96.72s16.19,0,14.27,1.41-7.34,3.36-7.34,3.36S52.16,97.11,51,99.65s-8.82,3.56-8.82,3.56,15.71-1.17,13.89.87-8,2.84-8,2.84,17.85-.85,13.33,1.24A42.63,42.63,0,0,1,54,110.93s14.57-.72,13,1.3-7.22,1.82-7.22,1.82,16.71-.41,15.21,1.89-9.7,1.28-9.7,1.28,19.25.76,15.7,3.32-10.6,1.4-10.6,1.4,12.89,7,15.72,5.71,24.31,14.16,25.75,9.18S107.12,114.42,107.12,114.42Z"/><path class="cls-4" d="M118.48,122.2c-3.66-19.27-27.21-56.54-33.72-60.1S64.4,56.67,64.4,56.67s16.11,8.85,12.8,8.73S66,62.31,65,61.08s13,9.53,10.66,9.58S67.77,69,67.77,69s16.63,6.75,14.17,8.1-9.21-2.33-9.21-2.33,13.36,8.34,10.67,8.9-8.14-2.43-8.14-2.43,14.91,9.87,10,8.88A43.48,43.48,0,0,1,77.68,88s12.18,8,9.78,8.73S80.52,94,80.52,94s13.72,9.54,11.16,10.51-8.59-4.71-8.59-4.71,15.07,12,10.69,12-9.35-5.14-9.35-5.14,6.27,13.25,9.3,13.89,11.24,25.8,15.34,22.63S118.48,122.2,118.48,122.2Z"/><path class="cls-3" d="M99.15,121.75c6.76-18.41,36.1-51.32,43.12-53.77s21-2,21-2-17.36,6.09-14.08,6.5,11.53-1.21,12.73-2.26-14.43,7.26-12.08,7.69,8.07-.31,8.07-.31-17.5,3.92-15.31,5.67,9.46-.8,9.46-.8-14.55,6-12,7,8.44-1.07,8.44-1.07-16.32,7.28-11.35,7.11a41.59,41.59,0,0,0,7.87-.87s-13.33,5.94-11.06,7,7.3-1.61,7.3-1.61-15.1,7.18-12.73,8.55,9.24-3.25,9.24-3.25-16.85,9.36-12.52,10.05,10.09-3.54,10.09-3.54-8.36,12-11.46,12.18-15.32,23.6-18.84,19.81S99.15,121.75,99.15,121.75Z"/><path class="cls-4" d="M108.4,121.47c15-12.68,56.72-26.84,64-25.52s19.25,8.61,19.25,8.61-18.12-3.29-15.45-1.29,10.62,4.64,12.18,4.32-16.14-.81-14.3.72,7.17,3.71,7.17,3.71-17.15-5.21-16.11-2.61,8.62,4,8.62,4-15.64-2-13.92.18,7.85,3.24,7.85,3.24-17.8-1.71-13.38.59a42.94,42.94,0,0,0,7.28,3.13s-14.52-1.42-13.09.65,7.14,2.2,7.14,2.2-16.67-1.21-15.28,1.16,9.64,1.75,9.64,1.75-19.27-.17-15.85,2.56,10.53,1.88,10.53,1.88-13.21,6.35-16,4.95-25,13-26.17,7.92S108.4,121.47,108.4,121.47Z"/><path class="cls-3" d="M107.32,125.3c18-7.82,62.05-9.33,68.66-6s16,13.79,16,13.79-16.38-8.36-14.42-5.69,8.83,7.5,10.42,7.65-15.22-5.43-13.91-3.43,5.79,5.63,5.79,5.63-14.92-9.94-14.67-7.15,7.12,6.3,7.12,6.3-14.39-6.35-13.37-3.82,6.59,5.37,6.59,5.37-16.54-6.78-13-3.29a43.37,43.37,0,0,0,6.08,5.07s-13.49-5.55-12.72-3.16,6.21,4.17,6.21,4.17-15.61-6-15-3.31,8.72,4.45,8.72,4.45-18.4-5.71-15.91-2.12,9.52,4.85,9.52,4.85-14.49,2.28-16.73.14S95,150,95.34,144.84,107.32,125.3,107.32,125.3Z"/><path class="cls-4" d="M114.64,128.52c19.15,4.16,55.79,28.7,59.19,35.29s4.88,20.52,4.88,20.52-8.41-16.36-8.37-13,2.78,11.25,4,12.3-9.17-13.3-9.28-10.91,1.42,7.94,1.42,7.94-6.31-16.78-7.73-14.37,2.1,9.26,2.1,9.26-8-13.58-8.63-10.9,2.22,8.21,2.22,8.21-9.47-15.16-8.62-10.26a43.89,43.89,0,0,0,1.95,7.68s-7.7-12.4-8.48-10,2.6,7,2.6,7-9.18-14-10.21-11.43,4.48,8.71,4.48,8.71-11.59-15.4-11.67-11,4.89,9.51,4.89,9.51-13.09-6.62-13.65-9.67-25.48-12-22.21-16S114.64,128.52,114.64,128.52Z"/><path class="cls-5" d="M114.15,188.17c-1-2.23-2.09-4.75-1.19-7"/><path class="cls-6" d="M131.12,231.76a13,13,0,0,0,3.84-1.08l2.17-.86a7.91,7.91,0,0,0,2.79-1.56,2.73,2.73,0,0,0,.74-2.93c.21.16,0,.47-.17.7a3.93,3.93,0,0,0-.27,1.11c-.22.87-1.12,1.37-1.93,1.77a24.83,24.83,0,0,1-5.14,2.08,10,10,0,0,1-2.62.31c-.69,0-1.68-.43-2.32-.26A4.18,4.18,0,0,0,131.12,231.76Z"/><path class="cls-6" d="M126.18,219.4a13.17,13.17,0,0,0,3.94-.73l2.23-.67a7.81,7.81,0,0,0,2.92-1.31,2.74,2.74,0,0,0,1-2.87c.19.18-.07.47-.23.68a3.82,3.82,0,0,0-.36,1.08,3.16,3.16,0,0,1-2.08,1.59,24.59,24.59,0,0,1-5.3,1.62,10.15,10.15,0,0,1-2.64.09c-.69-.07-1.64-.58-2.29-.46A4.06,4.06,0,0,0,126.18,219.4Z"/><path class="cls-6" d="M128,226.17a12.86,12.86,0,0,0,3.91-.72l2.24-.67a7.88,7.88,0,0,0,2.92-1.31,2.72,2.72,0,0,0,1-2.87c.19.18-.07.47-.23.68a3.82,3.82,0,0,0-.36,1.08,3.26,3.26,0,0,1-2.08,1.6,25.41,25.41,0,0,1-5.31,1.61,10.07,10.07,0,0,1-2.63.09c-.69-.07-1.64-.59-2.29-.46A4.12,4.12,0,0,0,128,226.17Z"/><path class="cls-6" d="M132.42,237.41a12.86,12.86,0,0,0,3.91-.72l2.24-.67a7.77,7.77,0,0,0,2.91-1.31,2.72,2.72,0,0,0,1-2.87c.2.18-.07.47-.23.68a3.82,3.82,0,0,0-.36,1.08,3.21,3.21,0,0,1-2.08,1.6,25.14,25.14,0,0,1-5.3,1.61,9.73,9.73,0,0,1-2.64.09c-.68-.07-1.63-.58-2.29-.45A4.12,4.12,0,0,0,132.42,237.41Z"/><path class="cls-6" d="M134.49,243.32a13.18,13.18,0,0,0,3.91-.73l2.24-.67a7.77,7.77,0,0,0,2.91-1.31,2.72,2.72,0,0,0,1-2.87c.2.18-.07.45-.23.68a3.82,3.82,0,0,0-.36,1.08,3.21,3.21,0,0,1-2.08,1.6,25.77,25.77,0,0,1-5.3,1.62,10.08,10.08,0,0,1-2.63.08c-.69-.07-1.64-.58-2.3-.45A4.23,4.23,0,0,0,134.49,243.32Z"/><path class="cls-6" d="M137.05,249.21a12.88,12.88,0,0,0,3.92-.73l2.24-.66a8.09,8.09,0,0,0,2.91-1.31,2.72,2.72,0,0,0,1-2.87c.2.18-.07.44-.23.67a4,4,0,0,0-.36,1.09,3.16,3.16,0,0,1-2.08,1.59,25.17,25.17,0,0,1-5.3,1.62,10.6,10.6,0,0,1-2.64.09c-.69-.08-1.63-.59-2.29-.46A4.31,4.31,0,0,0,137.05,249.21Z"/><path class="cls-6" d="M139,254.67a12.64,12.64,0,0,0,3.92-.73l2.23-.66A7.81,7.81,0,0,0,148,252a2.74,2.74,0,0,0,1-2.87c.2.18-.07.47-.23.68a3.82,3.82,0,0,0-.36,1.08,3.21,3.21,0,0,1-2.08,1.6,25.05,25.05,0,0,1-5.31,1.61,9.66,9.66,0,0,1-2.63.09c-.69-.07-1.63-.58-2.29-.46A4.15,4.15,0,0,0,139,254.67Z"/><path class="cls-6" d="M140.9,260.16a12.87,12.87,0,0,0,3.91-.73l2.24-.66a7.94,7.94,0,0,0,2.91-1.32,2.72,2.72,0,0,0,1-2.87c.2.18-.07.45-.23.68a3.82,3.82,0,0,0-.36,1.08,3.18,3.18,0,0,1-2.08,1.6,25.77,25.77,0,0,1-5.3,1.62,10.14,10.14,0,0,1-2.64.08c-.68-.07-1.63-.58-2.29-.45A4.23,4.23,0,0,0,140.9,260.16Z"/><path class="cls-6" d="M142.61,264.48a12.87,12.87,0,0,0,3.91-.73l2.23-.66a7.9,7.9,0,0,0,2.9-1.31,2.76,2.76,0,0,0,1-2.86c.2.18-.07.44-.23.67a4,4,0,0,0-.36,1.09,3.19,3.19,0,0,1-2.08,1.59,25.77,25.77,0,0,1-5.3,1.62A10.14,10.14,0,0,1,142,264c-.69-.07-1.63-.58-2.29-.45A4.29,4.29,0,0,0,142.61,264.48Z"/><path class="cls-6" d="M143.61,269.05a12.81,12.81,0,0,0,3.93-.73l2.24-.66a7.94,7.94,0,0,0,2.91-1.32,2.72,2.72,0,0,0,1-2.86c.2.17-.07.44-.23.67a3.91,3.91,0,0,0-.35,1.08,3.23,3.23,0,0,1-2.08,1.6,26,26,0,0,1-5.31,1.62,10.14,10.14,0,0,1-2.64.08c-.68-.07-1.63-.58-2.29-.45A4,4,0,0,0,143.61,269.05Z"/><path class="cls-6" d="M145.51,273.31a12.93,12.93,0,0,0,3.92-.73l2.23-.66a8.14,8.14,0,0,0,2.92-1.31,2.74,2.74,0,0,0,1-2.87c.2.18-.08.44-.23.67a4,4,0,0,0-.36,1.09,3.16,3.16,0,0,1-2.08,1.59,25.08,25.08,0,0,1-5.31,1.62,10.52,10.52,0,0,1-2.63.09c-.69-.08-1.63-.59-2.29-.46A4.15,4.15,0,0,0,145.51,273.31Z"/><path class="cls-6" d="M147.15,279.13a12.81,12.81,0,0,0,3.93-.73l2.24-.66a8,8,0,0,0,2.91-1.32,2.72,2.72,0,0,0,1-2.86c.2.17-.07.44-.23.67a3.92,3.92,0,0,0-.36,1.08,3.18,3.18,0,0,1-2.08,1.6,25.77,25.77,0,0,1-5.3,1.62,10.14,10.14,0,0,1-2.64.08c-.69-.07-1.63-.58-2.29-.45A4,4,0,0,0,147.15,279.13Z"/><path class="cls-6" d="M149.14,284.82a12.88,12.88,0,0,0,3.94-.74l2.23-.66a8.14,8.14,0,0,0,2.92-1.31,2.74,2.74,0,0,0,1-2.87c.19.18-.08.45-.23.68a3.53,3.53,0,0,0-.36,1.08,3.16,3.16,0,0,1-2.08,1.59,25.08,25.08,0,0,1-5.31,1.62,10.52,10.52,0,0,1-2.63.09c-.69-.08-1.64-.59-2.29-.46A3.94,3.94,0,0,0,149.14,284.82Z"/><path class="cls-6" d="M125.33,214.28a12.88,12.88,0,0,0,3.92-.73l2.23-.66a8.14,8.14,0,0,0,2.92-1.31,2.75,2.75,0,0,0,1-2.87c.2.18-.07.44-.23.67a4,4,0,0,0-.36,1.09,3.16,3.16,0,0,1-2.08,1.59,25.08,25.08,0,0,1-5.31,1.62,10.07,10.07,0,0,1-2.63.08c-.69-.07-1.63-.58-2.29-.45A4.13,4.13,0,0,0,125.33,214.28Z"/><path class="cls-6" d="M122.47,209.08a12.88,12.88,0,0,0,3.92-.73l2.23-.66a7.81,7.81,0,0,0,2.92-1.31,2.72,2.72,0,0,0,1-2.87c.2.18-.07.47-.23.68a3.82,3.82,0,0,0-.36,1.08,3.16,3.16,0,0,1-2.08,1.59,24.59,24.59,0,0,1-5.3,1.62,10.16,10.16,0,0,1-2.64.09c-.69-.07-1.63-.59-2.29-.46A4.15,4.15,0,0,0,122.47,209.08Z"/><path class="cls-6" d="M120.1,203.72A12.87,12.87,0,0,0,124,203l2.24-.66a8,8,0,0,0,2.92-1.31,2.72,2.72,0,0,0,1-2.87c.19.18-.07.46-.23.67a4,4,0,0,0-.36,1.09,3.21,3.21,0,0,1-2.08,1.59,25.43,25.43,0,0,1-5.31,1.62,10.52,10.52,0,0,1-2.63.09c-.69-.08-1.64-.59-2.29-.46A4.12,4.12,0,0,0,120.1,203.72Z"/><path class="cls-6" d="M118.69,199.71a12.92,12.92,0,0,0,3.92-.72l2.23-.67a8,8,0,0,0,2.92-1.31,2.72,2.72,0,0,0,1-2.87c.2.18-.07.47-.23.68a3.82,3.82,0,0,0-.36,1.08,3.16,3.16,0,0,1-2.08,1.59,24.59,24.59,0,0,1-5.3,1.62,10.15,10.15,0,0,1-2.64.09c-.69-.07-1.63-.59-2.29-.46A4.09,4.09,0,0,0,118.69,199.71Z"/><path class="cls-6" d="M117.65,195.35a12.86,12.86,0,0,0,3.92-.72l2.24-.67a7.77,7.77,0,0,0,2.91-1.31,2.72,2.72,0,0,0,1-2.87c.2.18-.07.47-.23.68a3.82,3.82,0,0,0-.36,1.08,3.21,3.21,0,0,1-2.08,1.6,25.14,25.14,0,0,1-5.3,1.61,9.73,9.73,0,0,1-2.64.09c-.68-.07-1.63-.58-2.29-.46A4.17,4.17,0,0,0,117.65,195.35Z"/><path class="cls-6" d="M116.66,191.09a13,13,0,0,0,3.92-.73l2.23-.66a8.22,8.22,0,0,0,2.92-1.31,2.73,2.73,0,0,0,1-2.87c.2.18-.06.46-.22.67a3.7,3.7,0,0,0-.37,1.09,3.16,3.16,0,0,1-2.08,1.59,25.17,25.17,0,0,1-5.3,1.62,10.54,10.54,0,0,1-2.63.09c-.69-.08-1.64-.59-2.29-.46A4.15,4.15,0,0,0,116.66,191.09Z"/><path class="cls-6" d="M114.33,187.3a12.93,12.93,0,0,0,3.92-.73l2.23-.67a7.74,7.74,0,0,0,2.92-1.31,2.72,2.72,0,0,0,1-2.87c.2.18-.07.47-.23.68a3.82,3.82,0,0,0-.36,1.08,3.21,3.21,0,0,1-2.08,1.6,25.14,25.14,0,0,1-5.3,1.61,9.73,9.73,0,0,1-2.64.09c-.68-.07-1.63-.58-2.29-.45A4.2,4.2,0,0,0,114.33,187.3Z"/><path class="cls-6" d="M113.5,181.79a12.93,12.93,0,0,0,3.92-.73l2.23-.66a8,8,0,0,0,2.92-1.31,2.74,2.74,0,0,0,1-2.87c.19.18-.07.46-.23.68A3.28,3.28,0,0,0,123,178a3.21,3.21,0,0,1-2.08,1.59,25.43,25.43,0,0,1-5.31,1.62,10.52,10.52,0,0,1-2.63.09c-.69-.08-1.64-.59-2.29-.46A4.13,4.13,0,0,0,113.5,181.79Z"/><path class="cls-6" d="M111.59,176.66a12.88,12.88,0,0,0,3.92-.73l2.24-.66a8,8,0,0,0,2.91-1.32,2.71,2.71,0,0,0,1-2.86c.2.18-.07.46-.23.67a4,4,0,0,0-.36,1.09,3.16,3.16,0,0,1-2.08,1.59,25.77,25.77,0,0,1-5.3,1.62,10.16,10.16,0,0,1-2.64.08c-.69-.07-1.63-.58-2.29-.45A4.22,4.22,0,0,0,111.59,176.66Z"/><path class="cls-6" d="M110,171.44a12.93,12.93,0,0,0,3.92-.73l2.23-.66a7.9,7.9,0,0,0,2.9-1.31,2.77,2.77,0,0,0,1-2.87c.19.18-.08.45-.23.68a3.82,3.82,0,0,0-.36,1.08,3.21,3.21,0,0,1-2.08,1.6,25.86,25.86,0,0,1-5.31,1.62,10.07,10.07,0,0,1-2.63.08c-.69-.07-1.64-.58-2.29-.45A4.26,4.26,0,0,0,110,171.44Z"/><path class="cls-6" d="M108.35,167.42a12.93,12.93,0,0,0,3.92-.73l2.23-.66a8.22,8.22,0,0,0,2.92-1.31,2.75,2.75,0,0,0,1-2.87c.19.18-.07.46-.23.67a4,4,0,0,0-.36,1.09,3.21,3.21,0,0,1-2.08,1.59,25.43,25.43,0,0,1-5.31,1.62,10.07,10.07,0,0,1-2.63.08c-.69-.07-1.64-.58-2.29-.45A4.29,4.29,0,0,0,108.35,167.42Z"/><path class="cls-6" d="M106,163.62a12.88,12.88,0,0,0,3.92-.73l2.24-.66a8,8,0,0,0,2.92-1.31,2.73,2.73,0,0,0,1-2.87c.2.18-.06.46-.22.67a3.7,3.7,0,0,0-.37,1.09,3.16,3.16,0,0,1-2.08,1.59,25.17,25.17,0,0,1-5.3,1.62,10.54,10.54,0,0,1-2.63.09c-.69-.08-1.64-.59-2.29-.46A4.11,4.11,0,0,0,106,163.62Z"/><path class="cls-18" d="M104.92,159.06a12.87,12.87,0,0,0,3.91-.73l2.24-.66a7.94,7.94,0,0,0,2.91-1.32,2.72,2.72,0,0,0,1-2.87c.2.18-.06.47-.23.68a3.82,3.82,0,0,0-.36,1.08,3.18,3.18,0,0,1-2.08,1.6,25.77,25.77,0,0,1-5.3,1.62,10.14,10.14,0,0,1-2.64.08c-.68-.07-1.63-.58-2.29-.45A4.23,4.23,0,0,0,104.92,159.06Z"/><path class="cls-19" d="M540.78,339.2c-30.52,43.61-87.23,72.89-152.13,72.89-97.22,0-176-65.73-176-146.81a123.17,123.17,0,0,1,1-15.71l254.12-18.94s27.22-12.24,31.49-8.64c0,0-2.87,100,2.15,112.27s20,6.47,20,6.47S530.72,339.47,540.78,339.2Z"/><path class="cls-19" d="M587.93,389c-1.43,10.08-36.49,43.9-36.49,43.9v9.36l-30.77,31,5,12.23-9.31,6.48-1.64-.26c-7.21-1.13-35.94-5.59-43.44-6.22-8.59-.72-22.18,1.44-22.18,1.44s-84.43-8.64-93.71-9.35-223.26,10.08-223.26,10.08S91.67,498,83.65,500.25h-.07l-.86.24a1,1,0,0,1-.34,0h0c-4.35-.3-17.89-22.76-23.9-33.08h0c-1.8-3.09-2.92-5.06-2.92-5.06a15,15,0,0,1-7.18-10.1c-1.23-6.14-12.35-17-15.59-20h0l-.87-.82.27-.31,11.18-12.66-.48-.72-.53-.73-3.3-5A56.74,56.74,0,0,0,54.81,393.3c.19-.37.37-.71.53-1s.31-.6.44-.88c4.76-9.9-1.07-6.56-3.12-15.54-2.14-9.52-8.58-12.78-8.58-12.78S9.76,325.62,6.15,318.42s3.61-7.91,7.87-15.11c3.86-6.46,31.94-35,37.64-40.72l1-1L59,261.1l154.6-11.53,254.12-18.94s27.22-12.24,31.49-8.64c0,0-2.87,100,2.15,112.27s20,6.47,20,6.47,9.36-1.27,19.4-1.53,20.68.47,23.54,4.43C570,351.54,545,375.85,545,375.85h12.16S589.36,378.88,587.93,389Z"/><path class="cls-20" d="M56.32,271.4l-6.62-9S478,225.82,496.8,216.05s26.16-15.7,30.33-11.79-4.89,11.05-4.89,11.05l-63.68,20.24Z"/><path class="cls-21" d="M51,261.74l9.19,11.4s-9.79,5.06-9.19,7.92,15.63,6.46,15.63,6.46,15.75-2.16,20.75-2.87,27.91,2.87,27.91,2.87l32.91-2.87s24.33-.72,7.15,2.87-60.82,3.6-60.82,3.6-28.63,5.75-36.5,3.59-19.62-6.23-23.78.49-9.14,15.35-7,23.26S58,385.4,70.18,387.55s103-9.35,103-9.35c-18.6,7.2-102.33,22.5-102.33,22.5L47.28,422.1s15,33.82,22.16,37.42,12.16,7.92,24.33,7.2,17.17-3.6,27.22-3.6,17.17,0,25-1.44l15.74-2.88c-6.43,7.2-39.34,11.52-39.34,11.52s-24.34-2.16-30.06,3.59-12.28,15-.72,11.53,143.12-10.08,145.27-12.25-25-3.59-17.18-5.75S247,463.12,247,463.12l10.76,3.6,9.3,6.47s80.86-.72,91.61-3.59,17.17-7.2,28.62-5.76,58.64,5.05,58.64,5.05l-64.4,4.32,74.42,9.36s45.05-2.91,50.78.7,10,11.51,10,11.51L445.9,489s-64.43-8.63-79.46-9.37S133.16,489,133.16,489l-50.8,11.54s-22.16-33.83-27.22-36S42.63,443,37.27,437.24s-10-8.13,2.88-17.3-19.3,7-5.9-7.92,21.64-20.15,21.64-20.15S53,373.88,38,356.61s-19-18.9-31.47-36.72S51,261.74,51,261.74Z"/><path class="cls-21" d="M427.46,455.89l40.1-5.64,33.62-2.16,4-3.31,14.56.45s3.86-9.69,6.8-9.05,9.93,8.52,9.93,8.52,1.75-11,7-9.65a38.62,38.62,0,0,1,7.09,2.37c-35.5-25.78,29.84-61.05,35-53.59,7.74,11.1-26.39,27.47-35.62,2.29s.49-6.42.49-6.42c-12.21.71,11.93-40.11,19.93-37.91,12.51,3.45-85.91,17.41-79.81,3.48,0,0-1.22,9-3.94,8.3s-4.43-6.38-4.43-6.38L482,325.57s8.29-105.14,15.26-115,7.8-7.16,7.8-7.16c9.84.63,3,122.7-4.3,125.7-9.7,4,22.94,2.12,22.94,2.12l49.92,1.23s1.32,6.58.43,10.24-9.83,31.71-9.83,31.71L596.34,377s3.29-1,3.38,3.94-3.94,22.46-8.82,30S565,442.31,565,442.31l-20.19,6s-7.78.51-9.41,3.11-8.08-3.92-8.08-3.92l-9.92,5.63-15.36,1-11.09-2.05Z"/><path class="cls-22" d="M411.6,196.68s2.78,3.22,4.39,3.95,4.83,1.62,5.71,1.47,6.74-.86,7-1.17,4.42-2.17,4.42-2.17l3.05-2.32,2.95-3.05,2.1-3.46,1.42-3.45.73-3.17.12-3.54a21.18,21.18,0,0,0-.86-3.35,9.87,9.87,0,0,0-2.44-2.49c-.81-.41-3.34-1.88-3.34-1.88s-1.39-1.19-1.49-1.64-.63-1.78-.36-1.81-1-.22-1,0-1.46,1.06-1.1,1.38.51,1.56.51,1.56,1.79,1.56,1.35,2.44.91,2.88.57,3.77-.71,4.53-1.56,5.34-1.76,2.51-2.44,3-2.59,2.59-4.2,3.57a45.71,45.71,0,0,1-5.95,3.17c-1.64.63-2.25,1.37-4.07,1.5a17.12,17.12,0,0,1-3.91.06,3,3,0,0,0-1.2,0l-.58,1.2Z"/><path class="cls-23" d="M416.1,196.26a27.77,27.77,0,0,0,4.39.2c1.33-.16,5.11-1.15,5.11-1.15l3.14-1.4,2.43-1.73a32.42,32.42,0,0,0,2.46-2.53c.32-.51,1.66-2.78,1.66-2.78l1.39-3.1.63-2.6.64-4.45a36.56,36.56,0,0,1,.14,4.92c-.19,1-.71,2.75-.71,2.75l-.83,2.09-1,2.08-1.18,1.86-1,1.13-1.31,1.25-1.36,1-1.89,1.09-1.65.87-2.08.64s-1.21.22-2.51.54a6.8,6.8,0,0,1-3.17.15C418.55,197,416.1,196.26,416.1,196.26Z"/><ellipse class="cls-23" cx="412.27" cy="195.66" rx="0.87" ry="1.61"/><polyline class="cls-23" points="433.39 171.54 435.46 170.56 435.03 168.59 434.82 168.47 434.01 168.47 432.69 169.67"/><path class="cls-24" d="M68.16,217.58s-2,5.43-1.73,7.84,1.32,6.78,2.08,7.72,5.52,7.37,6.08,7.51,5.5,3.76,5.5,3.76l4.78,2.06,5.56,1.43,5.48.18,5-.64,4.23-1.25,4.26-2.22a28.23,28.23,0,0,0,3.36-3.25,12.74,12.74,0,0,0,1.31-4.54c0-1.23,0-5.19,0-5.19s.45-2.44.9-2.85,1.68-1.94,1.92-1.66-.41-1.33-.7-1.24-2.24-1-2.37-.36-1.5,1.64-1.5,1.64-.5,2.4-1.51,3a.92.92,0,0,1-.48.16c-1.33.07-2.79,3-4.07,3.2s-5.82,2.19-7.34,1.74-4.13-.4-5.13-.91-4.78-1.33-7-2.57a61.09,61.09,0,0,1-7.71-4.91c-1.83-1.51-3.11-1.74-4.48-3.8A24.61,24.61,0,0,1,72,217.91a4,4,0,0,0-.76-1.46l-1.8.12Z"/><path class="cls-23" d="M71.88,223a38.11,38.11,0,0,0,2.69,5.31c1.08,1.47,4.77,5.27,4.77,5.27l3.75,2.77,3.65,1.71a41.84,41.84,0,0,0,4.63,1.22c.81,0,4.39.1,4.39.1l4.59-.41,3.5-1,5.67-2.21a48.4,48.4,0,0,1-5.7,3.45c-1.24.41-3.73,1-3.73,1l-3,.42-3.1.24-3-.16-2-.43-2.37-.73-2.14-.91-2.54-1.5-2.12-1.38-2.14-2s-1.07-1.27-2.33-2.6a9.39,9.39,0,0,1-2.29-3.64C72.7,226.36,71.88,223,71.88,223Z"/><ellipse class="cls-23" cx="69.81" cy="217.68" rx="2.18" ry="1.18" transform="translate(-98.08 62.54) rotate(-29.48)"/><polyline class="cls-23" points="112.37 226.53 114.9 228.31 116.95 226.49 116.94 226.17 116.4 225.22 114.1 224.44"/><path class="cls-25" d="M80,227s.4,1.11-.18,1.28-1.45,1.05-.66,1.51,2.09,1.41,2.22.57,1.41-.6,1.41-.6.59.84-.19,1,1.53,1.34,1.53,1.34,1.55,1,1.47-.07a4.37,4.37,0,0,0-.63-1.91Z"/><path class="cls-25" d="M68.5,233.12s3.21,1.56,3.4.08,2.24.33,2.24.33a1.79,1.79,0,0,1-1.06,1.17c-.79.22.92,2.22,1.68,1.56s.68-2.43.68-2.43a1,1,0,0,1,1.28.5v0c.44.9,1.13,2.13.31,2.92s-2,2.47-1,2.5,4.45.68,3.44-.57,2.66.22,2.66.22,0,6.43-3.09,4.21-4.43-3-4.43-3"/><path class="cls-25" d="M105.67,239.89s0,2-1.33,1.89-2.06-1.23-2.77-.26-2.76,1.17-1.58,1.84,2.47-1.28,2.45-.31,1.49.67,1.49.67,3.15-.52,2.72-1.54S105.67,239.89,105.67,239.89Z"/><path class="cls-24" d="M111.48,231.4l-.66,1.47s-1.27,1.17-1.59.35-.26-2.2,0-1.71.24,1.5.49.81a.7.7,0,0,0-.23-.95s-.23-1.28.28-.85a2.47,2.47,0,0,1,.63,1.32s1-1.2.56-1.31.93-.9.93-.9.46,1.08-.17,1.58S111.48,231.4,111.48,231.4Z"/><path class="cls-25" d="M110.72,231.47s-.43,1.27-1,.84-1.49-.09-1.45.52.57,1.23,1.18,1.13-.33-1.16.06-1,1.25,1,1.16,1.42,1.28.34,1.15-.3-.13-1.57-.77-1.41S110.72,231.47,110.72,231.47Z"/><path class="cls-26" d="M168.28,188.27s3,3.17,4.71,3.85,5,1.41,5.94,1.22,6.9-1.24,7.17-1.56,4.42-2.45,4.42-2.45l3-2.53,2.89-3.28,2-3.64,1.28-3.61.59-3.3-.06-3.64a21.24,21.24,0,0,0-1.06-3.39,10.09,10.09,0,0,0-2.64-2.44c-.84-.38-3.5-1.78-3.5-1.78s-1.48-1.16-1.62-1.59-.74-1.79-.47-1.86-1-.17-1.07.06-1.46,1.17-1.07,1.48.61,1.58.61,1.58,1.91,1.51,1.5,2.44,1.08,2.9.79,3.84-.51,4.69-1.34,5.59-1.67,2.65-2.36,3.15-2.54,2.79-4.13,3.91a49.74,49.74,0,0,1-6,3.54c-1.65.71-2.24,1.51-4.11,1.73a18,18,0,0,1-4,.27,2.88,2.88,0,0,0-1.24,0l-.56,1.26Z"/><path class="cls-23" d="M173.09,188a28.42,28.42,0,0,0,4.52,0c1.35-.24,5.19-1.45,5.19-1.45L186,185l2.4-1.89a34.31,34.31,0,0,0,2.4-2.72c.3-.53,1.57-2.94,1.57-2.94l1.27-3.25.52-2.71.44-4.59a34,34,0,0,1,.39,5c-.17,1-.59,2.86-.59,2.86l-.75,2.19-.89,2.18-1.12,2-1,1.2-1.27,1.37L188,184.8,186.11,186l-1.68,1-2.1.76s-1.23.29-2.56.68a6.86,6.86,0,0,1-3.24.31C175.64,188.6,173.09,188,173.09,188Z"/><ellipse class="cls-23" cx="168.92" cy="187.19" rx="0.89" ry="1.66" transform="translate(-8.85 8.38) rotate(-2.77)"/><polyline class="cls-23" points="189.42 161.37 191.5 160.27 190.95 158.25 190.74 158.15 189.91 158.19 188.6 159.49"/><path class="cls-26" d="M351.3,187.15s-.1,4.39.61,6,2.55,4.55,3.34,5.06,5.75,4,6.16,4,4.87,1.4,4.87,1.4l3.92.34,4.37-.27,4-1.17,3.45-1.64,2.75-1.93,2.54-2.61a20.91,20.91,0,0,0,1.64-3.15,9.77,9.77,0,0,0-.14-3.58c-.33-.88-1.22-3.74-1.22-3.74a8,8,0,0,1,0-2.27c.21-.4.75-1.8,1-1.65s-.61-.86-.8-.72-1.86-.2-1.8.3-.69,1.54-.69,1.54.28,2.42-.67,2.79-1.28,2.81-2.16,3.28-3.67,2.94-4.89,3-3.06.69-3.9.56-3.77.17-5.69-.16a47.3,47.3,0,0,1-6.72-1.72c-1.66-.65-2.64-.5-4.12-1.67a17.58,17.58,0,0,1-3-2.65,3,3,0,0,0-.88-.87l-1.29.5Z"/><path class="cls-23" d="M354.86,190.39a29.21,29.21,0,0,0,3.2,3.19c1.12.79,4.7,2.65,4.7,2.65l3.35,1.1,3,.36a33.65,33.65,0,0,0,3.62-.22c.58-.16,3.19-1,3.19-1l3.19-1.39,2.29-1.55,3.55-2.94a33.9,33.9,0,0,1-3.27,3.83c-.8.56-2.44,1.6-2.44,1.6l-2.08,1L375,198l-2.17.6-1.55.16-1.86.06-1.75-.16-2.2-.47-1.87-.49-2-1s-1.08-.67-2.3-1.33a7.07,7.07,0,0,1-2.51-2.07C356.27,192.58,354.86,190.39,354.86,190.39Z"/><ellipse class="cls-23" cx="352.52" cy="186.84" rx="1.66" ry="0.89" transform="translate(-22.76 322.29) rotate(-47.77)"/><polyline class="cls-23" points="385.27 183.08 387.51 183.76 388.56 181.96 388.47 181.73 387.86 181.17 386.02 181.17"/><text class="cls-27" transform="matrix(0.99, -0.1, 0.1, 0.99, 173.09, 344.82)"><tspan class="cls-28">B</tspan><tspan class="cls-29" x="33.07" y="0">A</tspan><tspan class="cls-30" x="70.95" y="0">N</tspan><tspan class="cls-29" x="108.05" y="0">A</tspan><tspan class="cls-31" x="145.93" y="0">N</tspan><tspan x="183.03" y="0">A</tspan><tspan class="cls-30" x="0" y="93.15">B</tspan><tspan x="34.85" y="93.15">O</tspan><tspan class="cls-31" x="73.97" y="93.15">N</tspan><tspan class="cls-29" x="111.08" y="93.15">A</tspan><tspan x="148.96" y="93.15">N</tspan><tspan class="cls-32" x="188.46" y="93.15">Z</tspan><tspan x="225.96" y="93.15">A</tspan></text></svg>
