<svg id="Layer_1" data-name="Layer 1" xmlns="http://www.w3.org/2000/svg" viewBox="0 0 601 601"><defs><style>.cls-1{fill:#7a4d29;stroke:#1d1d1b;stroke-miterlimit:10;stroke-width:10px;}.cls-2{fill:#f5bbb8;}.cls-3{fill:#fcd1a6;}.cls-4{fill:#fff;}.cls-5{fill:#3c8bcb;}.cls-6{fill:#010101;}.cls-7{fill:#4a4240;}.cls-8{fill:#f2b8b6;}</style></defs><title>Artboard 1</title><ellipse class="cls-1" cx="503.6" cy="213.21" rx="67.69" ry="86"/><path class="cls-2" d="M499.23,215.87c3.87,43.47,27.6,46.81,27.6,46.81,20.38-19.3,24.59-55.94,9.4-81.83s-44-31.25-64.4-11.95C471.83,168.9,495.33,172.41,499.23,215.87Z"/><ellipse class="cls-1" cx="112.99" cy="213.21" rx="67.69" ry="86"/><path class="cls-2" d="M117.37,217.48c-3.88,43.47-27.61,46.81-27.61,46.81-20.38-19.3-24.59-55.94-9.4-81.83s44-31.25,64.41-12C144.77,170.51,121.26,174,117.37,217.48Z"/><ellipse class="cls-1" cx="303.27" cy="304.07" rx="167.87" ry="213.29"/><ellipse class="cls-3" cx="263.29" cy="218.23" rx="44.43" ry="75.85"/><ellipse class="cls-3" cx="342.12" cy="218.23" rx="44.43" ry="75.85"/><ellipse class="cls-3" cx="302.94" cy="368.13" rx="111.35" ry="141.48"/><g id="Øjne"><ellipse class="cls-4" cx="341.85" cy="203.45" rx="23.01" ry="44.73"/><ellipse class="cls-4" cx="267.4" cy="203.45" rx="23.01" ry="44.73"/><ellipse class="cls-5" cx="267.73" cy="203.87" rx="19" ry="24.14"/><ellipse class="cls-5" cx="341.52" cy="203.87" rx="19" ry="24.14"/><ellipse class="cls-6" cx="268.32" cy="201.43" rx="11.88" ry="15.09"/><ellipse class="cls-6" cx="342.74" cy="201.43" rx="11.88" ry="15.09"/><ellipse class="cls-4" cx="270.56" cy="211.6" rx="4.06" ry="5.16"/><ellipse class="cls-4" cx="263.13" cy="196.12" rx="8.12" ry="10.32"/><ellipse class="cls-4" cx="345.03" cy="211.6" rx="4.06" ry="5.16"/><ellipse class="cls-4" cx="337.59" cy="196.12" rx="8.12" ry="10.32"/></g><ellipse id="Næse" class="cls-6" cx="307.69" cy="269.23" rx="26.06" ry="18.49"/><g id="Mund"><path class="cls-7" d="M395.68,326.86c0,46.49-17.49,87.5-43.34,109.84-26.8,23.84-62.47,23.84-89.27,0-25.87-22.34-43.34-63.37-43.34-109.84v-.16h176Z"/><ellipse class="cls-6" cx="307.69" cy="381.03" rx="26.74" ry="44.29"/><path class="cls-3" d="M282.37,322.87a16.08,16.08,0,0,0-1.58,3.94H268.22a16,16,0,0,0-2.18-4.92c4.41-5.47,11.47-5.37,15.78.24.19.25.38.5.55.77Z"/><path class="cls-4" d="M285,332c.17,7.84-4.69,14.37-10.85,14.59s-11.31-6-11.49-13.79V332a16.69,16.69,0,0,1,.8-5.24h20.77A18,18,0,0,1,285,332Z"/><path class="cls-3" d="M266,321.86a14.92,14.92,0,0,0-2.57,4.91H247c1.92-7.45,8.22-11.51,14.09-9.08a11.45,11.45,0,0,1,5,4.19Z"/><path class="cls-3" d="M268.22,326.78h-4.76a14.92,14.92,0,0,1,2.57-4.91A15.64,15.64,0,0,1,268.22,326.78Z"/><path class="cls-4" d="M268.76,331.15c.17,7.83-4.69,14.36-10.85,14.59s-11.31-6-11.48-13.79c0-.27,0-.54,0-.8a17.08,17.08,0,0,1,.55-4.41h21.25A18.55,18.55,0,0,1,268.76,331.15Z"/><path class="cls-4" d="M320.87,331.15a17.3,17.3,0,0,1-1.68,7.52,13.6,13.6,0,0,1-1,1.66c-4,6-11,6.77-15.71,1.73a13.14,13.14,0,0,1-2-2.74l-.41-.79A17.54,17.54,0,0,1,299,326.84h21.28A17.68,17.68,0,0,1,320.87,331.15Z"/><path class="cls-3" d="M337.12,321.9a15.67,15.67,0,0,0-2.18,5H320.35a15.41,15.41,0,0,0-1.17-3.22c3.27-6.65,10.16-8.67,15.4-4.51A12.29,12.29,0,0,1,337.12,321.9Z"/><path class="cls-3" d="M320.35,326.86H318a16.43,16.43,0,0,1,1.16-3.22A14.36,14.36,0,0,1,320.35,326.86Z"/><path class="cls-4" d="M339.83,331.15c0,7.84-5,14.19-11.17,14.19s-11.17-6.35-11.17-14.19h0a17.5,17.5,0,0,1,.53-4.29h21.32A18,18,0,0,1,339.83,331.15Z"/><path class="cls-3" d="M300.57,323a15.27,15.27,0,0,0-1.5,3.83H284.23a15.74,15.74,0,0,0-1.85-3.95c3.59-6.35,10.55-7.8,15.55-3.24a13.34,13.34,0,0,1,2.64,3.38Z"/><path class="cls-3" d="M284.22,326.81h-3.43a15.69,15.69,0,0,1,1.58-3.94A15.17,15.17,0,0,1,284.22,326.81Z"/><path class="cls-3" d="M319.19,323.68a16.13,16.13,0,0,0-1.17,3.21H302.1a14.87,14.87,0,0,0-1.52-3.84c3.55-6.42,10.53-8,15.58-3.46a13.52,13.52,0,0,1,3,4.1Z"/><path class="cls-3" d="M302.09,326.84h-3a15.27,15.27,0,0,1,1.5-3.83A16.91,16.91,0,0,1,302.09,326.84Z"/><path class="cls-4" d="M302.61,331.15a17.11,17.11,0,0,1-1.43,6.92,11,11,0,0,1-.61,1.24c-2,3.63-5.23,5.86-8.72,6h-.41c-6.18,0-11.17-6.42-11.15-14.27a18.42,18.42,0,0,1,.53-4.27H302.1A17.71,17.71,0,0,1,302.61,331.15Z"/><path class="cls-3" d="M374.26,326.86h-18a15.71,15.71,0,0,0-1.27-3.38c3.72-6.25,10.71-7.49,15.63-2.77A14.3,14.3,0,0,1,374.26,326.86Z"/><path class="cls-4" d="M375,332c0,7.84-5,14.2-11.17,14.2s-11.17-6.36-11.17-14.2a17.41,17.41,0,0,1,.77-5.15h20.81A17.73,17.73,0,0,1,375,332Z"/><path class="cls-3" d="M355,323.45a14.65,14.65,0,0,0-1.5,3.37H339.34a15.39,15.39,0,0,0-2.18-4.95c4-5.94,11.06-6.62,15.74-1.51a14.28,14.28,0,0,1,2.1,3.06Z"/><path class="cls-3" d="M356.23,326.86h-2.74a14.75,14.75,0,0,1,1.51-3.38A16.38,16.38,0,0,1,356.23,326.86Z"/><path class="cls-3" d="M339.34,326.86h-4.42a15.43,15.43,0,0,1,2.17-5A15.26,15.26,0,0,1,339.34,326.86Z"/><path class="cls-4" d="M356.75,331.15c-.18,7.83-5.32,14-11.48,13.79-5.93-.22-10.69-6.27-10.86-13.79a18.53,18.53,0,0,1,.53-4.29h21.3A19.14,19.14,0,0,1,356.75,331.15Z"/><path class="cls-3" d="M353.37,446c0,18-11.51,32.68-25.72,32.69-7.75,0-15.09-4.44-20-12.09-8.95,14-25.15,16.17-36.18,4.8-8.07-8.32-11.41-22-8.46-34.66,26.8,23.83,62.47,23.83,89.28,0A41,41,0,0,1,353.37,446Z"/><path class="cls-8" d="M352.31,436.7c-26.8,23.84-62.47,23.84-89.27,0,3.23-13.89,13.27-23.42,24.67-23.42a13.49,13.49,0,0,1,1.68.07h0c7.13.58,13.74,4.92,18.25,12h0c4.51-7,11.12-11.38,18.25-12h0c.55,0,1.1-.07,1.68-.07C339,413.24,349.07,422.78,352.31,436.7Z"/></g></svg>
