<svg id="Layer_1" data-name="Layer 1" xmlns="http://www.w3.org/2000/svg" viewBox="0 0 601 601"><defs><style>.cls-1{fill:#fcd1a6;}.cls-2{fill:#7a4d29;}.cls-3{fill:#fff;}.cls-4{fill:#3c8bcb;}.cls-5{fill:#010101;}.cls-6{fill:#4a4240;}.cls-7{fill:#f2b8b6;}.cls-8{fill:#f5bbb8;}</style></defs><title>Artboard 1</title><path class="cls-1" d="M477.5,412.87s9.65,24.58,3.66,27.75-7.42,4.91-9.37.89-6.8-22-6.8-22,8.2,25.49,3.93,24.84-1.31,2.75-5.87-1.05-6.14-23.1-6.14-23.1,4.23,19.61.36,23.13-4.76,5.18-7.23,1.21-10.23-13.74,1.41-23.77-2.21,26.48-8.13,24.94-8-.82-5.48-7.89,6.75-28.48,8.78-29.2S461,405.19,461,405.19Z"/><path class="cls-2" d="M385.41,273.79c24.46,26.78,63.8,92.81,61.14,121.85s24.14,29.58,31.59,7.91-27.16-115.74-39-137.88c-17.33-32.32-36.76-39.71-67.64-41.21-14.47-.69-33.13,5.4-31.87,16.09l34.25,36.5Z"/><polygon class="cls-2" points="452.56 402.75 446.65 427.83 460.42 413.93 456.63 427.63 464.17 416.29 465.46 426.52 467.41 416.79 474.28 425.42 472.72 412.98 479.47 424.76 476.17 406.14 452.56 402.75"/><path class="cls-1" d="M123,412.87s-9.66,24.58-3.66,27.75,7.41,4.91,9.36.89,6.8-22,6.8-22-8.2,25.49-3.94,24.84,1.32,2.75,5.87-1.05,6.14-23.1,6.14-23.1-4.23,19.61-.36,23.13,4.76,5.18,7.24,1.21,10.23-13.74-1.42-23.77,2.21,26.48,8.14,24.94,8-.82,5.47-7.89-6.74-28.44-8.76-29.15-14.38-3.47-14.38-3.47Z"/><path class="cls-2" d="M215.1,273.79C190.65,300.57,151.3,366.6,154,395.64s-24.14,29.56-31.6,7.88,27.17-115.74,39-137.87c17.33-32.3,36.75-39.69,67.64-41.19,14.46-.69,33.12,5.4,31.86,16.09l-34.24,36.5Z"/><polygon class="cls-2" points="147.96 402.75 153.86 427.83 140.1 413.93 143.88 427.63 136.34 416.29 135.05 426.52 133.12 416.79 126.23 425.42 127.79 412.98 121.04 424.76 124.34 406.14 147.96 402.75"/><circle class="cls-2" cx="300.89" cy="164.09" r="99.26"/><circle class="cls-2" cx="300.89" cy="330.18" r="139.68"/><ellipse class="cls-1" cx="277.26" cy="124.14" rx="26.27" ry="35.3"/><ellipse class="cls-1" cx="323.86" cy="124.14" rx="26.27" ry="35.3"/><circle class="cls-1" cx="300.7" cy="193.9" r="65.84"/><g id="Øjne"><ellipse class="cls-3" cx="323.71" cy="117.26" rx="13.61" ry="20.81"/><ellipse class="cls-3" cx="279.68" cy="117.26" rx="13.61" ry="20.81"/><circle class="cls-4" cx="279.88" cy="117.46" r="11.23"/><circle class="cls-4" cx="323.51" cy="117.46" r="11.23"/><circle class="cls-5" cx="280.23" cy="116.32" r="7.02"/><circle class="cls-5" cx="324.23" cy="116.32" r="7.02"/><circle class="cls-3" cx="281.56" cy="121.06" r="2.4"/><circle class="cls-3" cx="277.16" cy="113.85" r="4.8"/><circle class="cls-3" cx="325.58" cy="121.06" r="2.4"/><circle class="cls-3" cx="321.19" cy="113.85" r="4.8"/></g><ellipse id="Næse" class="cls-5" cx="303.5" cy="147.87" rx="15.41" ry="8.6"/><g id="Mund"><path class="cls-6" d="M355.53,174.69c0,21.64-10.34,40.72-25.62,51.12a46,46,0,0,1-52.78,0c-15.3-10.4-25.63-29.49-25.63-51.12v-.07h104Z"/><ellipse class="cls-5" cx="303.5" cy="199.9" rx="15.81" ry="20.61"/><path class="cls-1" d="M288.54,172.83a6.67,6.67,0,0,0-.94,1.84h-7.43a6.74,6.74,0,0,0-1.29-2.29,6.59,6.59,0,0,1,9.33.11l.33.36Z"/><path class="cls-3" d="M290.1,177.09a6.61,6.61,0,0,1-13.21.37v-.37a6.17,6.17,0,0,1,.47-2.44h12.28A6.82,6.82,0,0,1,290.1,177.09Z"/><path class="cls-1" d="M278.87,172.36a6.62,6.62,0,0,0-1.51,2.29h-9.75a6.61,6.61,0,0,1,11.26-2.28Z"/><path class="cls-1" d="M280.17,174.65h-2.81a6.68,6.68,0,0,1,1.51-2.28A6.72,6.72,0,0,1,280.17,174.65Z"/><path class="cls-3" d="M280.49,176.69a6.61,6.61,0,0,1-13.21.37v-.37a6.47,6.47,0,0,1,.33-2.05h12.57A7.07,7.07,0,0,1,280.49,176.69Z"/><path class="cls-3" d="M311.3,176.69a6.67,6.67,0,0,1-1,3.5,5.35,5.35,0,0,1-.58.77,6.59,6.59,0,0,1-9.29.81,6.8,6.8,0,0,1-1.17-1.28l-.24-.37a6.6,6.6,0,0,1-.65-5.43H311A6.45,6.45,0,0,1,311.3,176.69Z"/><path class="cls-1" d="M320.91,172.38a6.67,6.67,0,0,0-1.29,2.31H311a5.77,5.77,0,0,0-.69-1.49,6.6,6.6,0,0,1,9.1-2.11A6.92,6.92,0,0,1,320.91,172.38Z"/><path class="cls-1" d="M311,174.69h-1.38a6.73,6.73,0,0,1,.69-1.49A5.77,5.77,0,0,1,311,174.69Z"/><path class="cls-3" d="M322.51,176.69a6.61,6.61,0,0,1-13.21,0h0a6.79,6.79,0,0,1,.31-2h12.61A6.77,6.77,0,0,1,322.51,176.69Z"/><path class="cls-1" d="M299.29,172.9a6.43,6.43,0,0,0-.88,1.78h-8.77a6.86,6.86,0,0,0-1.1-1.84,6.57,6.57,0,0,1,10.75.07Z"/><path class="cls-1" d="M289.63,174.67h-2a6.41,6.41,0,0,1,.94-1.84A6.58,6.58,0,0,1,289.63,174.67Z"/><path class="cls-1" d="M310.31,173.21a6,6,0,0,0-.69,1.5H300.2a6,6,0,0,0-.9-1.79,6.61,6.61,0,0,1,11,.3Z"/><path class="cls-1" d="M300.19,174.69h-1.78a6.63,6.63,0,0,1,.88-1.79A6.41,6.41,0,0,1,300.19,174.69Z"/><path class="cls-3" d="M300.5,176.69a6.37,6.37,0,0,1-.84,3.22c-.11.2-.23.39-.36.58a6.55,6.55,0,0,1-5.16,2.79h-.24a6.6,6.6,0,0,1-6.59-6.64,6.77,6.77,0,0,1,.31-2H300.2A6.42,6.42,0,0,1,300.5,176.69Z"/><path class="cls-1" d="M342.87,174.69H332.21a6.66,6.66,0,0,0-.75-1.57,6.6,6.6,0,0,1,9.24-1.29A6.73,6.73,0,0,1,342.87,174.69Z"/><path class="cls-3" d="M343.32,177.09a6.61,6.61,0,1,1-12.75-2.4h12.3A6.59,6.59,0,0,1,343.32,177.09Z"/><path class="cls-1" d="M331.45,173.11a6.07,6.07,0,0,0-.89,1.57h-8.34a6.58,6.58,0,0,0-1.29-2.31,6.6,6.6,0,0,1,9.31-.7,6.73,6.73,0,0,1,1.24,1.42Z"/><path class="cls-1" d="M332.21,174.69h-1.62a6.42,6.42,0,0,1,.89-1.57A6.59,6.59,0,0,1,332.21,174.69Z"/><path class="cls-1" d="M322.22,174.69h-2.61a6.48,6.48,0,0,1,1.28-2.31A6.52,6.52,0,0,1,322.22,174.69Z"/><path class="cls-3" d="M332.51,176.69a6.6,6.6,0,0,1-13.2,0,6.79,6.79,0,0,1,.31-2h12.59A6.78,6.78,0,0,1,332.51,176.69Z"/><path class="cls-1" d="M330.51,230.12a15.21,15.21,0,0,1-27,9.59,15.2,15.2,0,0,1-26.39-13.89,46.06,46.06,0,0,0,52.78,0A14.57,14.57,0,0,1,330.51,230.12Z"/><path class="cls-7" d="M329.89,225.81a46,46,0,0,1-52.78,0,15.21,15.21,0,0,1,14.58-10.9c.34,0,.66,0,1,0h0a15.17,15.17,0,0,1,10.8,5.57h0a15.17,15.17,0,0,1,10.79-5.57h0c.33,0,.65,0,1,0A15.21,15.21,0,0,1,329.89,225.81Z"/></g><g id="Øre"><circle class="cls-2" cx="189.64" cy="147.68" r="40.02"/><circle class="cls-2" cx="423.76" cy="147.68" r="40.02" transform="translate(230.73 552.79) rotate(-83.74)"/><path class="cls-8" d="M195,143.61c-2.29,20.23-16.32,21.78-16.32,21.78a27.21,27.21,0,1,1,32.52-43.64S197.27,123.38,195,143.61Z"/><path class="cls-8" d="M418.2,143.61c2.29,20.23,16.32,21.78,16.32,21.78A27.21,27.21,0,0,0,402,121.75h0S415.91,123.38,418.2,143.61Z"/></g><ellipse class="cls-1" cx="302.14" cy="341.15" rx="70.04" ry="95.85"/><polygon class="cls-2" points="285.16 66.07 312.05 43.29 298.1 66.07 314.4 49.85 310.3 66.07 319.54 54.53 319.08 68.1 285.16 66.07"/><path class="cls-1" d="M376,523.63s-7.29,25.36-1,28,7.85,4.19,9.42,0,4.7-22.48,4.7-22.48-5.75,26.14-1.57,25.1,1.57,2.61,5.76-1.57,3.93-23.58,3.93-23.58-2.37,19.92,1.82,23.06,5.23,4.7,7.32.52,8.89-14.64-3.66-23.53,4.71,26.14,10.46,24,7.84-1.57,4.7-8.36-9.41-27.72-11.5-28.24-14.64-2.1-14.64-2.1Z"/><path class="cls-1" d="M186.49,523.63s-7.29,25.36-1,28,7.85,4.19,9.42,0,4.7-22.48,4.7-22.48-5.75,26.14-1.57,25.1,1.57,2.61,5.76-1.57,3.91-23.58,3.91-23.58-2.35,19.92,1.83,23.06,5.23,4.7,7.32.52,8.89-14.64-3.66-23.53,4.71,26.14,10.46,24,7.84-1.57,4.71-8.36-9.42-27.72-11.51-28.24-14.64-2.1-14.64-2.1Z"/><g id="Ben"><ellipse class="cls-2" cx="205.42" cy="458.19" rx="20.61" ry="71.84"/><ellipse class="cls-2" cx="389.94" cy="458.19" rx="20.61" ry="71.84"/><polygon class="cls-2" points="192.59 514.38 183.61 538.53 199 526.46 193.54 539.58 202.42 529.26 202.43 539.58 205.57 530.16 211.32 539.58 211.32 527.05 216.55 539.58 215.6 520.69 192.59 514.38"/><polygon class="cls-2" points="403.36 512.45 412.34 536.6 396.95 524.52 402.4 537.64 393.52 527.33 393.51 537.64 390.38 528.23 384.62 537.64 384.62 525.11 379.39 537.64 380.34 518.75 403.36 512.45"/></g><path class="cls-2" d="M395.88,227.77a50.8,50.8,0,0,1,9.94-6.31c3.7-1.69,7.68-2.61,10.49-.88a125,125,0,0,0,14.12,7.32l-14.12,2.61,14.12,5.23-13.6,6.8-32.94-4.18,6.27-23.54,9.94,5.76,4.71-9.42,4.55,24.41"/><path class="cls-2" d="M204.47,227.77a50.8,50.8,0,0,0-9.94-6.31c-3.71-1.69-7.69-2.61-10.49-.88a125.83,125.83,0,0,1-14.12,7.32L184,230.51l-14.12,5.23,13.59,6.8,33-4.18-6.28-23.54-9.93,5.76-4.71-9.42L191,235.57"/></svg>
