<svg id="Layer_1" data-name="Layer 1" xmlns="http://www.w3.org/2000/svg" viewBox="0 0 416.5 304.08"><defs><style>.cls-1{fill:#ffd160;}.cls-2{fill:#f9b54c;}.cls-3,.cls-6,.cls-7{fill:none;}.cls-3,.cls-9{stroke:#1d1d1b;}.cls-3,.cls-7,.cls-8,.cls-9{stroke-miterlimit:10;}.cls-3,.cls-7,.cls-8{stroke-width:5px;}.cls-4{fill:#4b4a4a;}.cls-5{fill:#bfbdbb;}.cls-7,.cls-8{stroke:#1e1e1c;}.cls-8{fill:#d9633b;}.cls-9{fill:#fff;stroke-width:10px;}</style></defs><title>Artboard 1</title><ellipse class="cls-1" cx="213.11" cy="146.93" rx="87.22" ry="8.12" transform="matrix(1, -0.01, 0.01, 1, -0.77, 1.12)"/><path class="cls-2" d="M300.33,146.47l-174.44.91c0-4.48,39-8.32,87.18-8.58S300.3,142,300.33,146.47Z"/><ellipse class="cls-3" cx="213.11" cy="146.93" rx="87.22" ry="8.12" transform="translate(-0.77 1.12) rotate(-0.3)"/><polygon class="cls-4" points="317.56 146.44 317.59 161.37 308.97 161.38 300.33 146.47 317.56 146.44"/><polygon class="cls-5" points="317.54 131.51 317.56 146.44 300.33 146.47 308.92 131.52 317.54 131.51"/><line class="cls-6" x1="300.33" y1="146.47" x2="297.77" y2="146.47"/><polygon class="cls-7" points="317.54 131.51 317.59 161.37 308.97 161.38 300.33 146.47 308.92 131.52 317.54 131.51"/><polygon class="cls-8" points="317.54 131.51 342.27 121.03 337.57 129.96 351.1 118.45 351.84 126.14 362.49 123.01 361.66 131.04 370.58 127.61 375.61 132.5 370.49 137.76 382.03 135.95 375.07 145.02 368.24 145.35 375.39 150.44 371.3 154.65 364.82 154.6 369.14 159.26 361.6 160.31 361.25 169.28 354.11 164.66 356.11 172.66 344.17 162.91 348.8 173.47 336.6 161.6 337.62 170.13 328.67 161.43 317.59 161.37 317.54 131.51"/><polygon class="cls-9" points="125.98 147.49 125.98 116.43 99.08 131.96 72.19 147.49 99.08 163.01 125.98 178.54 125.98 147.49"/><polygon class="cls-4" points="125.98 147.49 125.98 116.43 99.08 131.96 72.19 147.49 99.08 163.01 125.98 178.54 125.98 147.49"/><polygon points="125.98 116.43 125.98 147.49 72.19 147.49 99.08 131.96 125.98 116.43"/></svg>
