<svg id="Layer_1" data-name="Layer 1" xmlns="http://www.w3.org/2000/svg" viewBox="0 0 601 601"><defs><style>.cls-1{fill:#2355a2;}.cls-2{fill:none;stroke:#f9b216;stroke-miterlimit:10;stroke-width:20px;}.cls-3{fill:#c72121;}</style></defs><title>Artboard 1</title><path class="cls-1" d="M102.32,203V96.75c44.68,0,80.9,23.78,80.9,53.13S147,203,102.32,203Z"/><path class="cls-1" d="M183.22,256.15c0,29.34-36.22,53.13-80.9,53.13V203C147,203,183.22,226.8,183.22,256.15Z"/><polygon class="cls-2" points="311.07 115.65 345.1 174.61 379.14 233.56 311.07 233.56 242.99 233.56 277.03 174.61 311.07 115.65"/><polygon class="cls-2" points="248.58 347.71 273.27 390.47 297.95 433.23 248.58 433.23 199.21 433.23 223.89 390.47 248.58 347.71"/><path class="cls-1" d="M323.17,446.81h80.34a40.17,40.17,0,0,1-80.34,0Z"/><rect class="cls-3" x="323.17" y="347.71" width="80.34" height="99.09"/><path class="cls-1" d="M403.51,233.56H512.39a54.44,54.44,0,0,1-108.88,0Z"/><rect class="cls-3" x="403.51" y="99.26" width="108.88" height="134.3"/><rect class="cls-3" x="101.15" y="335.76" width="83.25" height="177.41"/><path class="cls-1" d="M464.34,412.3V513.17a50.44,50.44,0,1,1,0-100.87Z"/><path class="cls-1" d="M464.34,412.15V311.27a50.44,50.44,0,0,1,0,100.88Z"/></svg>
