<svg id="Layer_1" data-name="Layer 1" xmlns="http://www.w3.org/2000/svg" viewBox="0 0 601 601"><defs><style>.cls-1{fill:#f49a41;}.cls-1,.cls-10,.cls-2,.cls-3,.cls-4,.cls-7,.cls-9{stroke:#1d1d1b;stroke-miterlimit:10;stroke-width:10px;}.cls-2{fill:#8f533a;}.cls-3{fill:#d9623a;}.cls-4{fill:none;}.cls-5{fill:#f5b8ad;}.cls-6{fill:#f29385;}.cls-7{fill:#f6f6f6;}.cls-8{fill:#1d1d1b;}.cls-9{fill:#b3b4b3;}.cls-10{fill:#4f4f4e;}</style></defs><title>Artboard 1</title><rect class="cls-1" x="236.85" y="250.99" width="38.07" height="184.67"/><rect class="cls-2" x="270.29" y="253.64" width="79.77" height="184.67"/><rect class="cls-3" x="343.44" y="251.66" width="36.64" height="184.67"/><line class="cls-4" x1="267.64" y1="554.82" x2="267.64" y2="438.31"/><line class="cls-4" x1="347.41" y1="550.99" x2="347.41" y2="438.31"/><circle class="cls-5" cx="311.17" cy="71.54" r="43.53"/><path class="cls-6" d="M354.7,71.89a43.88,43.88,0,0,1-33.35,42.75c17.53-39,5.24-70.83-3.5-86.2A43.83,43.83,0,0,1,354.7,71.89Z"/><circle class="cls-4" cx="311.17" cy="71.54" r="43.53"/><path class="cls-1" d="M269.79,144.52V244.69H212.44V179.93a35.41,35.41,0,0,1,35.41-35.41Z"/><rect class="cls-7" x="275.92" y="144.26" width="62.67" height="131.57"/><path class="cls-3" d="M394.67,179.93v64.76H345.38V144.52h13.89A35.4,35.4,0,0,1,394.67,179.93Z"/><line class="cls-4" x1="307.25" y1="206.44" x2="307.22" y2="149.2"/><path class="cls-8" d="M302.08,206.62a25.63,25.63,0,0,0,.7,4c.09.39.22.74.32,1.11l.15.71c.15.69.17.43.07-.78-.79,3.13,2.72,6.16,5.63,4.33a6.54,6.54,0,0,0,3.39-4.61,12.46,12.46,0,0,0-.76-6,4.91,4.91,0,0,0-5.31-3.47c-2.21.3-4.4,2.35-4.19,4.75Z"/><path class="cls-9" d="M344.06,275.83c0,24.84-16.43,45-36.69,45s-36.7-20.13-36.7-45Z"/><path class="cls-4" d="M397.32,179.93h85.34s32.45,16.25,0,32.74S458,126.19,458,126.19"/><ellipse class="cls-10" cx="458.57" cy="85.52" rx="25.74" ry="40.67"/><path class="cls-4" d="M439,63.37s21.06,17.76,43.16,0"/><path class="cls-4" d="M435.33,93.57s23.32,21.09,51,0"/><path class="cls-4" d="M460.56,44.85v81.34"/><line class="cls-4" x1="272.88" y1="550.99" x2="234.68" y2="573.04"/><line class="cls-4" x1="344.1" y1="549.53" x2="382.3" y2="571.58"/><path class="cls-4" d="M209.79,179.93s-101.47,29.4-117.88-35.67"/></svg>
