<svg id="Layer_1" data-name="Layer 1" xmlns="http://www.w3.org/2000/svg" viewBox="0 0 522.57 648.71"><defs><style>.cls-1{fill:none;stroke:#f9b216;stroke-miterlimit:10;stroke-width:30px;}</style></defs><title>Artboard 1</title><path class="cls-1" d="M40.54,34.68V616c0,5.35,3.24,9.68,7.24,9.68H472.25c4,0,7.23-4.33,7.23-9.68V118.86a11.43,11.43,0,0,0-2.3-7.09L409.67,27.59a6.38,6.38,0,0,0-4.93-2.6h-357C43.78,25,40.54,29.33,40.54,34.68Z"/><polyline class="cls-1" points="407.58 24.99 407.58 114.64 479.48 114.64"/><line class="cls-1" x1="142.1" y1="462.36" x2="375.93" y2="461.3"/><line class="cls-1" x1="142.1" y1="373.22" x2="375.93" y2="372.16"/><line class="cls-1" x1="142.1" y1="296.18" x2="375.93" y2="295.12"/><line class="cls-1" x1="142.1" y1="214.09" x2="375.93" y2="213.03"/></svg>
