<svg id="Layer_1" data-name="Layer 1" xmlns="http://www.w3.org/2000/svg" viewBox="0 0 601 601"><defs><style>.cls-1{fill:#fff;}.cls-1,.cls-2,.cls-3,.cls-4,.cls-5,.cls-6,.cls-7,.cls-8,.cls-9{stroke:#1d1d1b;}.cls-1,.cls-2,.cls-4,.cls-5,.cls-7,.cls-8{stroke-miterlimit:10;}.cls-1,.cls-2,.cls-5,.cls-7,.cls-8{stroke-width:20px;}.cls-2,.cls-3{fill:#437e4f;}.cls-3,.cls-6,.cls-9{stroke-linecap:round;stroke-linejoin:round;}.cls-3,.cls-6{stroke-width:10px;}.cls-4{fill:#bfbebc;stroke-width:13px;}.cls-5{fill:#234596;}.cls-6,.cls-9{fill:none;}.cls-7{fill:#d9633b;}.cls-8{fill:#f9b216;}.cls-9{stroke-width:9px;}</style></defs><title>Artboard 1</title><path class="cls-1" d="M508.51,72.78V450.35L386.67,562.58H140.53a30.69,30.69,0,0,1-30.85-30.53V72.78a30.68,30.68,0,0,1,30.85-30.52H477.65A30.68,30.68,0,0,1,508.51,72.78Z"/><rect class="cls-2" x="189.3" y="415.17" width="60.78" height="60.78" rx="5.86"/><line class="cls-3" x1="288.76" y1="431.2" x2="461.93" y2="431.2"/><line class="cls-3" x1="295.51" y1="461.59" x2="391.86" y2="461.59"/><path class="cls-4" d="M383.93,557.06V475.89a30.33,30.33,0,0,1,30.33-30.33h89.4Z"/><rect class="cls-5" x="188.13" y="313.83" width="60.78" height="60.78" rx="5.86"/><line class="cls-6" x1="287.59" y1="123.3" x2="460.76" y2="123.3"/><rect class="cls-7" x="188.13" y="108.1" width="60.78" height="60.78" rx="5.86"/><line class="cls-6" x1="294.34" y1="153.69" x2="390.68" y2="153.69"/><rect class="cls-8" x="188.13" y="210.97" width="60.78" height="60.78" rx="5.86"/><line class="cls-9" x1="287.59" y1="226.16" x2="460.76" y2="226.16"/><line class="cls-9" x1="294.34" y1="256.55" x2="390.68" y2="256.55"/><line class="cls-6" x1="287.59" y1="329.86" x2="460.76" y2="329.86"/><line class="cls-6" x1="294.34" y1="360.25" x2="390.68" y2="360.25"/></svg>
