<svg id="Layer_1" data-name="Layer 1" xmlns="http://www.w3.org/2000/svg" viewBox="0 0 16 16"><defs><style>.cls-1{fill:#a8a7a5;}</style></defs><title>Artboard 3</title><path class="cls-1" d="M15.5,8a7.49,7.49,0,0,1-5.06,7.08c0-.49-.06-1.26,0-1.89a2.51,2.51,0,0,0-.61-1.71,4,4,0,0,0,1.86-.34c1.22-.46,1.64-1.64,1.9-3.15s-.87-2.47-.79-2.62.3-2-.31-2.13-2.12.8-2.12.8a11.61,11.61,0,0,0-4,0,4.69,4.69,0,0,0-2.14-.76c-.46,0-.12,2.2-.12,2.2-.64.72-.8,1.1-.68,3.5s3.49,2.65,3.49,2.65c-.34.16-.3.95-.42,1.14s-1.14,0-1.51,0-1.26-1.25-1.61-1.52a1,1,0,0,0-.89,0,9.1,9.1,0,0,1,.71.76c.23.3.8,1.25,1.06,1.52l2.17.34a3.18,3.18,0,0,1,0,1.44A7.5,7.5,0,1,1,15.5,8Z"/></svg>
