<svg id="Layer_1" data-name="Layer 1" xmlns="http://www.w3.org/2000/svg" viewBox="0 0 601 601"><defs><style>.cls-1{fill:#bfbebc;}.cls-2,.cls-3{fill:none;}.cls-2{stroke:#000;stroke-width:20px;}.cls-2,.cls-3,.cls-4,.cls-5,.cls-6,.cls-7,.cls-8{stroke-miterlimit:10;}.cls-3{stroke:#020304;}.cls-3,.cls-4,.cls-5,.cls-6,.cls-7,.cls-8{stroke-width:10px;}.cls-4{fill:#4b4a4a;}.cls-4,.cls-5,.cls-6,.cls-7,.cls-8{stroke:#1d1d1b;}.cls-5{fill:#d9633b;}.cls-6{fill:#f9b216;}.cls-7{fill:#234596;}.cls-8{fill:#437e4f;}</style></defs><title>Artboard 5</title><path class="cls-1" d="M420.59,32.44h-230a39.14,39.14,0,0,0-39.13,39.15V533.27a39.12,39.12,0,0,0,39.13,39.13H420.59a39.13,39.13,0,0,0,39.14-39.13V71.59A39.14,39.14,0,0,0,420.59,32.44Zm-4,441.9a21.81,21.81,0,0,1-21.81,21.82H215.16a21.81,21.81,0,0,1-21.82-21.82V105.7a21.81,21.81,0,0,1,21.82-21.81H394.8a21.81,21.81,0,0,1,21.81,21.81Z"/><rect class="cls-2" x="153.51" y="32.44" width="308.32" height="539.96" rx="39.14"/><rect class="cls-1" x="182.71" y="440.93" width="240.1" height="60.25"/><path class="cls-3" d="M416.61,102.39V426c0,10.58-9.77,19.15-21.81,19.15H215.16c-12,0-21.82-8.57-21.82-19.15V102.39c0-10.57,9.77-19.14,21.82-19.14H394.8C406.84,83.25,416.61,91.82,416.61,102.39Z"/><circle class="cls-4" cx="307.66" cy="512.7" r="18.31"/><rect class="cls-5" x="213.72" y="117.56" width="47.84" height="47.84" rx="9.69"/><rect class="cls-6" x="281.05" y="117.56" width="47.84" height="47.84" rx="9.69"/><rect class="cls-7" x="348.39" y="117.56" width="47.84" height="47.84" rx="9.69"/><rect class="cls-8" x="210.18" y="188.43" width="47.84" height="47.84" rx="9.69"/><rect class="cls-7" x="277.51" y="188.43" width="47.84" height="47.84" rx="9.69"/><rect class="cls-5" x="344.85" y="188.43" width="47.84" height="47.84" rx="9.69"/></svg>
