<svg id="Layer_1" data-name="Layer 1" xmlns="http://www.w3.org/2000/svg" viewBox="0 0 601 601"><defs><style>.cls-1{fill:#bfbebc;}.cls-1,.cls-2,.cls-3,.cls-4,.cls-5,.cls-6,.cls-8{stroke:#1d1d1b;}.cls-1,.cls-2,.cls-3,.cls-4,.cls-5,.cls-6{stroke-miterlimit:10;}.cls-1,.cls-8{stroke-width:20px;}.cls-2{fill:#4b4a4a;}.cls-2,.cls-3,.cls-4,.cls-5,.cls-6{stroke-width:10px;}.cls-3{fill:#f9b216;}.cls-4{fill:#437e4f;}.cls-5{fill:#234596;}.cls-6{fill:#d9633b;}.cls-7{fill:#1d1d1b;}.cls-8{fill:none;stroke-linecap:round;stroke-linejoin:round;}</style></defs><title>Artboard 4</title><rect class="cls-1" x="33.78" y="229.11" width="538.17" height="264.77" rx="53.63"/><circle class="cls-2" cx="458.78" cy="341.3" r="79.85"/><circle class="cls-3" cx="458.78" cy="301.88" r="16.3"/><circle class="cls-4" cx="419.67" cy="341.3" r="16.3"/><circle class="cls-5" cx="458.78" cy="383.97" r="16.3"/><circle class="cls-6" cx="499" cy="341.3" r="16.3"/><circle class="cls-2" cx="160.94" cy="341.3" r="79.85"/><rect class="cls-7" x="145.4" y="293.37" width="31.09" height="95.86" rx="13.22" transform="translate(502.25 180.36) rotate(90)"/><rect class="cls-7" x="145.24" y="292.48" width="31.01" height="97.65" rx="13.33" transform="translate(321.49 682.61) rotate(180)"/><rect class="cls-7" x="330.36" y="429.66" width="51.71" height="15.74" rx="7.39"/><rect class="cls-7" x="240.79" y="429.66" width="51.71" height="15.74" rx="7.39"/><path class="cls-8" d="M314.12,229.11V186.46s121.45-20.65,67.95-42.68-154-20-154-20S155.77,99,228.06,77s139.07-9.64,139.07-9.64"/></svg>
