<svg id="Layer_1" data-name="Layer 1" xmlns="http://www.w3.org/2000/svg" viewBox="0 0 601 601"><defs><style>.cls-1,.cls-10{fill:none;stroke-miterlimit:10;stroke-width:10px;}.cls-1{stroke:#4b4a4a;}.cls-2{fill:#4b4a4a;}.cls-3{fill:#eeba9f;}.cls-4{fill:#c99f8a;}.cls-5{fill:#e99e52;}.cls-6{fill:#d9633b;}.cls-7{fill:#72c9e5;}.cls-7,.cls-8{opacity:0.6;}.cls-8,.cls-9{fill:#bbe2f1;}.cls-10{stroke:#000;}</style></defs><title>Artboard 1</title><circle class="cls-1" cx="305.98" cy="287.29" r="258.49"/><circle class="cls-2" cx="305.71" cy="265.25" r="210.36"/><path class="cls-3" d="M306.66,518.88s-25.55,3.33-45.22-11.8S205.78,456,199.73,453.84s-24.5-65-19.06-77.44c0,0-25.71-13.91-27.83-25.71s-3.93-36-3.93-36l10-37.21s12.1,52.94,15.43,57.18,5.45-20.88,5.45-20.88,8.47-72,13.91-81.07,24.5-43.56,24.5-43.56h6l26-22.69h56.41Z"/><path class="cls-4" d="M305.57,518.88s25.56,3.33,45.22-11.8S406.45,456,412.5,453.84s24.5-65,19.06-77.44c0,0,25.71-13.91,27.83-25.71s3.93-36,3.93-36l-10-37.21s-12.1,52.94-15.43,57.18-5.44-20.88-5.44-20.88-8.47-72-13.92-81.07-24.5-43.56-24.5-43.56H388l-26-22.69H305.57Z"/><path class="cls-5" d="M305.57,183.7V79.56s-49.38-8.16-83.42,14.3-73.5,77.59-73.5,77.59V328.68l8.16-32s12.94,62.61,19.74,56.49,6.81-64.66,6.81-64.66,17-73.51,25.86-79,15-8.51,9.53,6.3-8.17,26.37-12.93,33.18,38.8-38.79,41.52-47.64-2.72-15.66,15.65-16.34S305.57,183.7,305.57,183.7Z"/><path class="cls-6" d="M305.57,183.7V79.56S355,71.4,389,93.86s73.51,77.59,73.51,77.59V328.68l-8.17-32s-12.93,62.61-19.74,56.49-6.8-64.66-6.8-64.66-17-73.51-25.87-79-15-8.51-9.52,6.3,8.16,26.37,12.93,33.18-38.8-38.79-41.52-47.64,2.72-15.66-15.66-16.34S305.57,183.7,305.57,183.7Z"/><path class="cls-5" d="M283.14,283.5s-54.45-16.34-62.62-15.43a93.44,93.44,0,0,1-17.24,0s4.77-14.71,11.12-15.16,62.16,17.24,62.16,17.24,9.76,3.4,9.76,8.62V284Z"/><path class="cls-6" d="M332.83,283.38s54.45-16.33,62.62-15.42a94.42,94.42,0,0,0,17.24,0s-4.76-14.71-11.12-15.16S339.41,270,339.41,270s-9.76,3.4-9.76,8.62v5.22Z"/><path class="cls-7" d="M409.89,331.33c0,24.83-21.24,44.95-47.45,44.95a49.59,49.59,0,0,1-15.23-2.36h0a48,48,0,0,1-13.45-6.78,46.63,46.63,0,0,1-9.73-9.42,43.33,43.33,0,0,1-8.62-20.43,41.92,41.92,0,0,1-.42-6c0-24.83,21.25-45,47.46-45a49.58,49.58,0,0,1,15.71,2.53A47.7,47.7,0,0,1,397.5,301,44.44,44.44,0,0,1,405.27,312a44,44,0,0,1,2.33,5.53,42.32,42.32,0,0,1,1.93,8.34A41.61,41.61,0,0,1,409.89,331.33Z"/><path class="cls-8" d="M397.5,301,324,357.72a43.33,43.33,0,0,1-8.62-20.43l62.75-48.39A47.7,47.7,0,0,1,397.5,301Z"/><path class="cls-9" d="M405.27,312l-71.52,55.17a46.08,46.08,0,0,1-6-5.18l73.44-56.64A44.63,44.63,0,0,1,405.27,312Z"/><path class="cls-9" d="M409.53,325.84l-62.32,48.08h0a49.06,49.06,0,0,1-8.22-3.5L407.6,317.5A42.32,42.32,0,0,1,409.53,325.84Z"/><path class="cls-7" d="M297.53,331.33c0,24.83-21.24,44.95-47.45,44.95a49.52,49.52,0,0,1-15.22-2.36h0a48.27,48.27,0,0,1-13.46-6.78,46.63,46.63,0,0,1-9.73-9.42A43.43,43.43,0,0,1,203,337.29a41.92,41.92,0,0,1-.41-6c0-24.83,21.25-45,47.45-45a49.54,49.54,0,0,1,15.71,2.53A47.7,47.7,0,0,1,285.14,301,44.44,44.44,0,0,1,292.91,312a44,44,0,0,1,2.33,5.53,42.7,42.7,0,0,1,2.29,13.83Z"/><path class="cls-8" d="M285.14,301l-73.48,56.68A43.43,43.43,0,0,1,203,337.29l62.75-48.39A47.7,47.7,0,0,1,285.14,301Z"/><path class="cls-9" d="M292.91,312l-71.52,55.17a46.08,46.08,0,0,1-6-5.18l73.44-56.64A44.63,44.63,0,0,1,292.91,312Z"/><path class="cls-9" d="M297.18,325.84l-62.32,48.08h0a48.36,48.36,0,0,1-8.22-3.5l68.61-52.92A43.06,43.06,0,0,1,297.18,325.84Z"/><ellipse class="cls-10" cx="250.02" cy="331.33" rx="47.51" ry="43.45"/><path d="M201.44,321.5S189,314.79,187,317.64V304.05h21.81"/><ellipse class="cls-10" cx="361.89" cy="331.33" rx="47.51" ry="43.45"/><path d="M408.33,318.48s12.42-6.71,14.43-3.86V301H401"/><path d="M299.06,326.08s-6-10.4-7.72-12.75c0,0,3.2-3.69,15-2L318.18,313l-3.35,13.09s-3.51-4.7-8.47-4A11.06,11.06,0,0,0,299.06,326.08Z"/></svg>
