<svg id="Layer_1" data-name="Layer 1" xmlns="http://www.w3.org/2000/svg" viewBox="0 0 601 601"><defs><style>.cls-1{fill:#a8a7a5;}.cls-2{fill:#4b4a4a;}.cls-3{fill:#72c9e5;}.cls-3,.cls-4{opacity:0.6;}.cls-4,.cls-5{fill:#bbe2f1;}.cls-6{fill:none;stroke:#000;stroke-miterlimit:10;stroke-width:10px;}</style></defs><title>Artboard 1</title><path class="cls-1" d="M312.69,583.69S277.37,588,250.2,568.34s-76.92-66.51-85.28-69.27-33.86-84.61-26.33-100.74c0,0-35.54-18.11-38.46-33.46S94.69,318,94.69,318l13.8-48.4s16.72,68.87,21.32,74.38,7.52-27.16,7.52-27.16S149,223.2,156.56,211.39s33.86-56.67,33.86-56.67h8.36l35.95-29.52h78Z"/><path class="cls-2" d="M311.17,583.69s35.32,4.32,62.49-15.35,76.92-66.51,85.28-69.27,33.86-84.61,26.33-100.74c0,0,35.53-18.11,38.46-33.46S529.16,318,529.16,318l-13.79-48.4S498.65,338.51,494.05,344s-7.53-27.16-7.53-27.16-11.7-93.66-19.22-105.47-33.86-56.67-33.86-56.67h-8.36L389.13,125.2h-78Z"/><path class="cls-2" d="M311.17,147.63V12.15S242.93,1.52,195.91,30.74s-101.58,101-101.58,101V336.23l11.28-41.61s17.88,81.46,27.28,73.49S142.3,284,142.3,284,165.81,188.36,178,181.28s20.69-11.08,13.16,8.18-11.28,34.32-17.87,43.17,53.61-50.47,57.38-62-3.77-20.37,21.63-21.25S311.17,147.63,311.17,147.63Z"/><path class="cls-1" d="M311.17,147.63V12.15S379.41,1.52,426.44,30.74,528,131.69,528,131.69V336.23l-11.28-41.61s-17.87,81.46-27.28,73.49-9.4-84.12-9.4-84.12-23.52-95.63-35.74-102.71-20.7-11.08-13.17,8.18,11.28,34.32,17.87,43.17-53.61-50.47-57.37-62S395.4,150.28,370,149.4,311.17,147.63,311.17,147.63Z"/><path class="cls-2" d="M280.18,277.46s-75.24-21.25-86.53-20.07a137.61,137.61,0,0,1-23.82-.05s6.58-19.14,15.36-19.73,85.9,22.44,85.9,22.44,13.48,4.42,13.48,11.21v6.79Z"/><path class="cls-1" d="M348.84,277.31s75.24-21.25,86.53-20.07a137.7,137.7,0,0,0,23.83-.05s-6.59-19.13-15.37-19.72-85.9,22.43-85.9,22.43-13.48,4.43-13.48,11.21v6.79Z"/><path class="cls-3" d="M455.32,339.69c0,32.3-29.35,58.48-65.56,58.48a72.47,72.47,0,0,1-21-3.07h0a69.69,69.69,0,0,1-11.35-4.56,66.13,66.13,0,0,1-7.24-4.27,64.18,64.18,0,0,1-8.35-6.73,60.18,60.18,0,0,1-5.09-5.52,54.74,54.74,0,0,1-11.92-26.57,52.41,52.41,0,0,1-.57-7.76c0-32.3,29.37-58.49,65.58-58.49a72.24,72.24,0,0,1,21.71,3.29,66.46,66.46,0,0,1,26.73,15.8,58,58,0,0,1,10.74,14.22,54.41,54.41,0,0,1,3.22,7.19,52.48,52.48,0,0,1,2.67,10.85A51.07,51.07,0,0,1,455.32,339.69Z"/><path class="cls-4" d="M438.2,300.29,336.67,374a54.74,54.74,0,0,1-11.92-26.57l86.72-63A66.46,66.46,0,0,1,438.2,300.29Z"/><path class="cls-5" d="M448.94,314.51l-98.83,71.76a64.18,64.18,0,0,1-8.35-6.73l101.48-73.69A55.78,55.78,0,0,1,448.94,314.51Z"/><path class="cls-5" d="M454.83,332.55,368.72,395.1h0a69.69,69.69,0,0,1-11.35-4.56l94.81-68.84A52.48,52.48,0,0,1,454.83,332.55Z"/><path class="cls-3" d="M300.06,339.69c0,32.3-29.35,58.48-65.56,58.48a72.47,72.47,0,0,1-21-3.07h0a70.16,70.16,0,0,1-11.36-4.56,66,66,0,0,1-7.23-4.27,63.52,63.52,0,0,1-8.35-6.73,60.18,60.18,0,0,1-5.09-5.52,54.74,54.74,0,0,1-11.92-26.57,52.41,52.41,0,0,1-.57-7.76c0-32.3,29.36-58.49,65.58-58.49a72.24,72.24,0,0,1,21.71,3.29,66.46,66.46,0,0,1,26.73,15.8,57.47,57.47,0,0,1,5,5.56,55.78,55.78,0,0,1,5.7,8.66,54.41,54.41,0,0,1,3.22,7.19,52.48,52.48,0,0,1,2.67,10.85A51.07,51.07,0,0,1,300.06,339.69Z"/><path class="cls-4" d="M282.94,300.29,181.41,374a54.74,54.74,0,0,1-11.92-26.57l86.72-63A66.46,66.46,0,0,1,282.94,300.29Z"/><path class="cls-5" d="M293.68,314.51l-98.83,71.76a63.52,63.52,0,0,1-8.35-6.73L288,305.85A55.78,55.78,0,0,1,293.68,314.51Z"/><path class="cls-5" d="M299.57,332.55,213.46,395.1h0a70.16,70.16,0,0,1-11.36-4.56L296.9,321.7A52.48,52.48,0,0,1,299.57,332.55Z"/><ellipse class="cls-6" cx="234.41" cy="339.68" rx="65.65" ry="56.52"/><path d="M167.28,326.9s-17.16-8.73-19.94-5V304.2h30.13"/><ellipse class="cls-6" cx="389" cy="339.68" rx="65.65" ry="56.52"/><path d="M453.17,323s17.16-8.73,19.94-5V300.27H443"/><path d="M302.17,332.85s-8.34-13.53-10.66-16.58c0,0,4.42-4.8,20.76-2.62l16.33,2.18-4.64,17s-4.85-6.11-11.69-5.23A15.46,15.46,0,0,0,302.17,332.85Z"/></svg>
