<svg id="Layer_1" data-name="Layer 1" xmlns="http://www.w3.org/2000/svg" viewBox="0 0 601 601"><defs><style>.cls-1{fill:none;}.cls-1,.cls-5,.cls-6{stroke:#1d1d1b;stroke-miterlimit:10;stroke-width:10px;}.cls-2,.cls-6{fill:#d9633b;}.cls-3{fill:#4f4f4f;}.cls-4,.cls-5{fill:#353435;}</style></defs><title>Artboard 1</title><ellipse class="cls-1" cx="300.12" cy="292.95" rx="288.82" ry="279.02"/><circle class="cls-2" cx="306.5" cy="294.54" r="204.3"/><path class="cls-3" d="M151.85,367l-4.21-13.22a2.51,2.51,0,0,0-4.91.66l-.19,10h5l-.82-7a2.5,2.5,0,0,0-5,0l-.8,6.17,4.91-.67L140.3,334l-4.82,1.32,3,11.16,4.82-1.33-4.85-18.25c-.72-2.7-5-2.18-4.91.67l.15,7.74a2.51,2.51,0,0,0,4.91.67,14.91,14.91,0,0,0-4.09-15.59l.73,1.77.74-12.38-4.91.66,15.31,71.34,4.3,20,4.82-1.33-9-37.45-4.82,1.33,12.65,36.73,4.57-1.93-8.2-15.05c-1.33-2.45-5.5-.79-4.57,1.92L161,429.28c1,3,5.65,1.82,4.82-1.33l-7.41-28.18c-.6-2.28-4.34-2.48-4.82,0A17.92,17.92,0,0,0,156,412.88c1.72,2.7,6,.2,4.32-2.53a12.69,12.69,0,0,1-1.89-9.25h-4.82L161,429.28l4.82-1.33-14.92-43.28-4.57,1.93,8.2,15c1.33,2.45,5.51.79,4.57-1.92L146.49,363c-1-3-5.58-1.83-4.82,1.33l9,37.45c.75,3.14,5.49,1.8,4.82-1.33l-15.31-71.34-4.3-20c-.62-2.88-4.75-2-4.91.67l-.48,7.92c-.07,1.31-.22,2.64-.23,4a2.9,2.9,0,0,0,.7,2.26c.32.36.71.65,1,1a9.94,9.94,0,0,1,1.78,9.71l4.91.66-.15-7.74-4.91.66,4.85,18.25c.83,3.11,5.65,1.79,4.82-1.33L140.3,334c-.83-3.15-5.42-1.8-4.82,1.32L141,364.19a2.48,2.48,0,0,0,2.74,1.79,2.54,2.54,0,0,0,2.17-2.45l.8-6.17h-5l.82,7a2.57,2.57,0,0,0,2.5,2.5,2.54,2.54,0,0,0,2.5-2.5l.19-10-4.92.67L147,368.29c1,3,5.8,1.75,4.82-1.33Z"/><path class="cls-4" d="M469.13,358.88a20.59,20.59,0,0,0,8.79-21.45l-4.82,1.33a11.8,11.8,0,0,1-4.44,12.12l3.67,2.82L477,342.36a2.51,2.51,0,0,0-1.74-3.08,2.57,2.57,0,0,0-3.08,1.75l-4.65,11.34c-.82,2,2,4,3.67,2.83a16.84,16.84,0,0,0,6.74-17.77,2.5,2.5,0,0,0-4.82,1.33c0,.22.09.44.13.66,0,.06.11.62.06.26,0,.4.08.8.1,1.2a17.48,17.48,0,0,1,0,2.4c0,.11-.06.6,0,.26,0,.22-.07.44-.11.66-.07.39-.15.79-.25,1.18a16.93,16.93,0,0,1-.78,2.41,15.69,15.69,0,0,1-5.58,6.78,2.56,2.56,0,0,0-.9,3.42,2.53,2.53,0,0,0,3.42.89Z"/><path class="cls-4" d="M430,226.46A13.36,13.36,0,0,1,441,228.77,13.62,13.62,0,0,1,446,237.5a2.57,2.57,0,0,0,2.5,2.5,2.53,2.53,0,0,0,2.5-2.5,21.36,21.36,0,0,0-11.75-18l-2.53,4.32a16.52,16.52,0,0,1,9.14,11.51l4.57-1.93a32.43,32.43,0,0,0-16.55-13,2.5,2.5,0,0,0-1.33,4.83,27.08,27.08,0,0,1,13.57,10.69,2.51,2.51,0,0,0,4.57-1.92,21.45,21.45,0,0,0-11.44-14.5,2.58,2.58,0,0,0-3.43.9,2.53,2.53,0,0,0,.9,3.42,16.17,16.17,0,0,1,6.52,5.59,16.37,16.37,0,0,1,1.91,3.81,14.77,14.77,0,0,1,.85,4.29h5a18.65,18.65,0,0,0-7.3-12.87,18.34,18.34,0,0,0-15-3,2.52,2.52,0,0,0-1.75,3.07,2.55,2.55,0,0,0,3.08,1.75Z"/><path class="cls-4" d="M468.93,355.1l2.88-3.17a2.53,2.53,0,0,0-1.11-4.18,3.19,3.19,0,0,0-3.56,1.37,3.09,3.09,0,0,0,.46,3.77,3.14,3.14,0,0,0,3.8.5,5.77,5.77,0,0,0,1.83-2.18,28.71,28.71,0,0,0,3.27-8.53,2.5,2.5,0,1,0-4.82-1.33l-3.27,7.93a2.49,2.49,0,0,0,1.14,2.82,2.55,2.55,0,0,0,3-.39,8.52,8.52,0,0,0,2.39-4.65,2.55,2.55,0,0,0-1.45-2.95,2.49,2.49,0,0,0-3.12,1l-.74,1.46a2.53,2.53,0,0,0,.19,2.78,2.47,2.47,0,0,0,2.63.89,4.56,4.56,0,0,0,3.09-3.38,2.53,2.53,0,0,0-1.45-2.95,2.47,2.47,0,0,0-3.12,1l-1.13,2.39a2.5,2.5,0,1,0,4.32,2.52l.53-.75a2.51,2.51,0,0,0-.89-3.42,2.56,2.56,0,0,0-3.42.9l-.54.75,4.32,2.52,1.13-2.39-4.57-1.92c0,.11-.18.49,0,.16s-.09.09-.09.12.33-.38.07-.14c.28-.21.34-.26.18-.16s-.08.06.24-.09l2.82,3.67.75-1.45-4.57-1.93a7.17,7.17,0,0,1-.18.9c0,.14-.1.29-.15.43-.08.32.28-.51,0,0a5.13,5.13,0,0,1-.41.72l-.15.22.16-.22c0,.13-.28.32-.37.41l4.18,2.43,3.27-7.93-4.82-1.33a24.08,24.08,0,0,1-1.49,4.85c.25-.56,0,.07-.07.14s-.17.37-.26.56c-.17.36-.36.72-.55,1.08s-.4.71-.6,1.06l-.22.35c-.11.17-.11.17,0,0a.83.83,0,0,1,.37-.32q4.11,3.62.5,3.5l-1.11-4.18-2.87,3.17a2.5,2.5,0,1,0,3.53,3.54Z"/><path class="cls-4" d="M447.05,233.46a6.86,6.86,0,0,0-1.22-4.69l-3.93,3,2,1.72a2.54,2.54,0,0,0,3.28.2,2.49,2.49,0,0,0,.65-3.23,14.09,14.09,0,0,0-14.29-6,2.52,2.52,0,0,0-1.75,3.08,2.58,2.58,0,0,0,3.08,1.75l.41-.08c.33-.06-.51,0-.17,0l.75-.05a13.91,13.91,0,0,1,1.58.06c.33,0-.64-.11-.09,0l.33.05.73.17.72.22.39.14c.16,0,.49.25,0,0,.44.24.9.43,1.34.68l.63.41a2.62,2.62,0,0,0,.34.24c-.11,0-.37-.3-.11-.09a11.75,11.75,0,0,1,1.15,1.08c.11.12.48.42.49.57,0-.08-.29-.41-.08-.11l.28.41,3.93-3-2-1.72a2.52,2.52,0,0,0-3.28-.19,2.46,2.46,0,0,0-.64,3.22c.16.22.28.47.43.7s-.12-.41,0-.1c0,.14.1.29.14.43a1.28,1.28,0,0,0,.07.36c-.08-.06,0-.52,0-.12s0,.6,0,.9a2.46,2.46,0,0,0,.73,1.77,2.53,2.53,0,0,0,1.77.73,2.58,2.58,0,0,0,2.5-2.5Z"/><rect class="cls-5" x="39.11" y="167.99" width="218.26" height="121.26" rx="37.65" transform="translate(-52.35 44.21) rotate(-14.45)"/><rect class="cls-4" x="208.2" y="243.69" width="268.04" height="148.91" rx="45.91" transform="translate(-68.55 95.44) rotate(-14.45)"/><rect class="cls-3" x="143.38" y="261.33" width="260.76" height="148.91" rx="4.14" transform="translate(-75.11 78.91) rotate(-14.45)"/><rect class="cls-1" x="136.02" y="253.24" width="338.25" height="148.91" rx="20.62" transform="translate(-72.11 86.49) rotate(-14.45)"/><line class="cls-5" x1="168.15" y1="160.48" x2="309.26" y2="124.13"/><rect class="cls-5" x="471.79" y="245.87" width="65.07" height="65.07" transform="translate(-53.51 134.62) rotate(-14.45)"/><line class="cls-5" x1="514.64" y1="188.05" x2="553.91" y2="340.5"/><circle class="cls-6" cx="424.7" cy="249.91" r="10.98"/></svg>
