<svg id="Layer_1" data-name="Layer 1" xmlns="http://www.w3.org/2000/svg" viewBox="0 0 601 601"><defs><style>.cls-1{fill:#f9b216;}.cls-1,.cls-2{stroke:#1d1d1b;stroke-miterlimit:10;stroke-width:10px;}.cls-2{fill:#234596;}.cls-3{font-size:120px;fill:#f1f1ee;font-family:Montserrat-Bold, Montserrat;font-weight:700;}.cls-4{letter-spacing:-0.01em;}.cls-5{letter-spacing:0em;}.cls-6{letter-spacing:-0.04em;}.cls-7{letter-spacing:-0.03em;}.cls-8{letter-spacing:0em;}</style></defs><title>Artboard 1</title><path class="cls-1" d="M89.37,408.13V298.51a43.41,43.41,0,0,1,43.41-43.4H518.9a43.41,43.41,0,0,1,43.41,43.4V408.13a43.41,43.41,0,0,1-43.41,43.4H232.82l-52.55,44.62-52.54,44.62.29-89.14-38.65-.18Z"/><path class="cls-2" d="M25.85,213.24V103.63c0-24,21.41-43.4,47.82-43.4H499.08c26.41,0,47.82,19.43,47.82,43.4V213.24c0,24-21.41,43.4-47.82,43.4H183.89L126,301.27,68.11,345.89l.32-89.15-42.58-.17Z"/><text/><text class="cls-3" transform="translate(61.37 193.21)"><tspan class="cls-4">P</tspan><tspan x="86.64" y="0">R</tspan><tspan class="cls-5" x="174.84" y="0">I</tspan><tspan class="cls-6" x="213.72" y="0">V</tspan><tspan class="cls-7" x="298.68" y="0">A</tspan><tspan class="cls-8" x="386.4" y="0">T</tspan></text><text class="cls-3" transform="translate(146.97 398.18)">SNAK</text></svg>
