<svg id="Layer_1" data-name="Layer 1" xmlns="http://www.w3.org/2000/svg" viewBox="0 0 601 601"><defs><style>.cls-1{fill:#d9633b;}.cls-10,.cls-2,.cls-6{fill:none;}.cls-2,.cls-3,.cls-4{stroke:#1d1d1b;}.cls-10,.cls-2,.cls-3,.cls-4{stroke-miterlimit:10;stroke-width:10px;}.cls-3,.cls-7{fill:#fff;}.cls-4,.cls-5{fill:#bfbebc;}.cls-8{fill:#737372;}.cls-9{fill:#4b4a4a;}.cls-10{stroke:#000;}.cls-11{fill:#ea5742;}.cls-12{fill:#ed6e5c;}.cls-13{fill:#f9b44c;}.cls-14{fill:#fed05f;}.cls-15{fill:#f9b216;}</style></defs><title>Artboard 1</title><ellipse class="cls-1" cx="306.11" cy="300.5" rx="193.37" ry="201.39"/><circle class="cls-2" cx="306.11" cy="300.5" r="240.67"/><path class="cls-3" d="M519.67,470.28q0,.9,0,1.8v.06a63.56,63.56,0,0,1-63.54,61.71h0l-.17-127.15H156.19a65.75,65.75,0,0,1-65.42-59.28l-.31.33V123.28s7.35-50.11,63.45-27.75l.69,55.57H462c31.86,0,57.68,45.19,57.68,100.93V468.47C519.66,469.07,519.67,469.67,519.67,470.28Z"/><path class="cls-4" d="M157.15,278.85,91.73,346.4l-.31.32V122.25s7.35-50.11,63.45-27.75l.68,55.58,1.54,124.14Z"/><polyline class="cls-2" points="156.19 279.88 156.13 275.25 154.6 151.1"/><path class="cls-3" d="M156.19,275.25V406.7a65.75,65.75,0,0,1-65.42-59.28c-.2-2.11-.31-4.26-.31-6.44a65.73,65.73,0,0,1,65.67-65.73Z"/><path class="cls-5" d="M519.67,470.28q0,.9,0,1.8v.06a63.56,63.56,0,0,1-63.54,61.71h0l-.17-127.15h.21a63.57,63.57,0,0,1,63.54,61.6v.17C519.66,469.07,519.67,469.67,519.67,470.28Z"/><path class="cls-2" d="M519.67,470.28q0,.9,0,1.8v.06a63.56,63.56,0,0,1-63.54,61.71h0l-.17-127.15h.21a63.57,63.57,0,0,1,63.54,61.6v.17C519.66,469.07,519.67,469.67,519.67,470.28Z"/><line class="cls-6" x1="519.63" y1="484.47" x2="519.67" y2="518.11"/><line class="cls-2" x1="154.6" y1="151.1" x2="153.91" y2="151.1"/><line class="cls-2" x1="519.64" y1="472.08" x2="519.64" y2="468.47"/><line class="cls-2" x1="519.64" y1="474.24" x2="519.64" y2="472.14"/><polyline class="cls-2" points="519.64 472.08 519.64 468.3 519.63 457.78"/><line class="cls-2" x1="156.19" y1="406.7" x2="153.91" y2="406.7"/><path class="cls-7" d="M152.32,288l15.81-.39a2.5,2.5,0,0,0,0-5l-15.81.39a2.5,2.5,0,0,0,0,5Z"/><path class="cls-7" d="M153.82,281.38l5.33-.37a2.67,2.67,0,0,0,1.77-.74,2.5,2.5,0,0,0-1.77-4.26l-6.47.19a2.55,2.55,0,0,0-2.41,1.83,3,3,0,0,0,0,1.33,2.65,2.65,0,0,0,1.15,1.5c2.43,1.75,5.44,2.45,8.33,3.05v-4.82a17.71,17.71,0,0,1-3.93,1l.66-.09a17.16,17.16,0,0,1-2,.15l.66,4.91,4.58-1.41a2.5,2.5,0,0,0,.6-4.57,2.86,2.86,0,0,0-1.93-.25l-5.41.88,2.43,4.18.38-.32-.51.39a5.92,5.92,0,0,1,1.28-.76l-.59.26a5.91,5.91,0,0,1,1.31-.36,2.45,2.45,0,0,0,1.5-1.15,2.58,2.58,0,0,0,.3-1.59,2.49,2.49,0,0,0-2.46-2.17l-1.3.11v5l4.46-.39-1.26-4.66c-.35.2-.71.38-1.08.55l.59-.26a10.62,10.62,0,0,1-2.73.75l.67-.09-.67.07a2.55,2.55,0,0,0-2.41,1.83,3,3,0,0,0,0,1.33,2.47,2.47,0,0,0,1.14,1.5l2.81,1.2v-4.32l-2.66,1.67a2.5,2.5,0,0,0,1.92,4.57l2.85-.52a2.53,2.53,0,0,0,1.49-1.15,2.62,2.62,0,0,0,.3-1.6,2.51,2.51,0,0,0-2.46-2.16l-4.6-.21v5l4.26-.15v-5l-4.19.28.66,4.91,3.43-.52a2.51,2.51,0,0,0,1.5-1.15,2.6,2.6,0,0,0,.25-1.93,2.53,2.53,0,0,0-1.15-1.49,2.91,2.91,0,0,0-1.93-.26l-3.43.53a2.49,2.49,0,0,0-1.49,1.15,2.54,2.54,0,0,0-.3,1.59,2.47,2.47,0,0,0,2.46,2.17l4.19-.28a2.63,2.63,0,0,0,1.76-.73,2.5,2.5,0,0,0-1.76-4.27l-4.26.15a2.5,2.5,0,0,0,0,5l4.6.21-.66-4.92-2.85.53,1.93,4.57,2.66-1.67a2.53,2.53,0,0,0,1.24-2.16,2.47,2.47,0,0,0-1.24-2.16l-2.8-1.2-1.26,4.66a13.59,13.59,0,0,0,5.75-1.7,2.54,2.54,0,0,0,1.15-2.82,2.92,2.92,0,0,0-.65-1.1,2.47,2.47,0,0,0-1.77-.74l-4.46.39a2.69,2.69,0,0,0-1.77.73,2.57,2.57,0,0,0-.73,1.77,2.52,2.52,0,0,0,2.5,2.5l1.3-.11-.66-4.91a7.76,7.76,0,0,0-4.09,2.08,2.54,2.54,0,0,0-.39,3,3.05,3.05,0,0,0,.9.89,2.7,2.7,0,0,0,1.93.26l5.41-.89-1.33-4.82-4.58,1.41a2.5,2.5,0,0,0,.67,4.91,19.71,19.71,0,0,0,6.62-1.24,2.79,2.79,0,0,0,1.3-.89,2.47,2.47,0,0,0,.54-1.52,2.55,2.55,0,0,0-1.84-2.41,30,30,0,0,1-5.34-1.48l.6.26a12.23,12.23,0,0,1-2.4-1.33l-1.26,4.66,6.47-.19v-5l-5.33.37a2.59,2.59,0,0,0-1.76.73,2.5,2.5,0,0,0,1.76,4.27Z"/><path class="cls-7" d="M153.26,405.58l6.17.19a2.52,2.52,0,0,0,2.5-2.5,2.55,2.55,0,0,0-2.5-2.5l-6.17-.19a2.52,2.52,0,0,0-2.5,2.5,2.55,2.55,0,0,0,2.5,2.5Z"/><path class="cls-7" d="M153.78,405.7l5.48.27a2.51,2.51,0,0,0,2.5-2.5,2.55,2.55,0,0,0-2.5-2.5l-5.48-.27a2.49,2.49,0,0,0-2.5,2.5,2.55,2.55,0,0,0,2.5,2.5Z"/><path class="cls-7" d="M159,399.37l-5.2-.6.67,4.91,8.41-2.67c2.65-.84,2.23-4.88-.66-4.91l-8.7-.07.66,4.91,7-1.36-1.33-4.82-6.26,1.44c-2.85.66-2.06,4.77.66,4.91l3.66.2v-5l-4.53.42,2.41,1.84-.23-.62a2.56,2.56,0,0,0-3.08-1.74,3.28,3.28,0,0,0-1.29,5.48c2,1.95,4.9.45,6.21-1.52a7.24,7.24,0,0,0-3-10.49,2.54,2.54,0,0,0-3.23.64,2.5,2.5,0,0,0,.2,3.28,6.83,6.83,0,0,0,7.26,1.54,2.58,2.58,0,0,0,1.75-3.07,2.54,2.54,0,0,0-3.08-1.75,6.15,6.15,0,0,0-4.35,7.09l2.41-3.16-2.39.24,2.41,3.16.74-2.37-3.67,1.49a9.47,9.47,0,0,0,6.85.73l-3.08-3.08-.35,1.42h4.82c-1.06-4.53-5.09-6.94-9-8.78l-1.26,4.66,8.49-.46-1.26-4.66-5.46,2.88c-2.59,1.37-.75,5.17,1.93,4.57l6.71-1.49a2.48,2.48,0,0,0,1.79-2.74,2.53,2.53,0,0,0-2.45-2.17l-5.29-.51v5a8.79,8.79,0,0,0,6.45-2.87,2.58,2.58,0,0,0,0-3.54,7.48,7.48,0,0,0-5.74-2.64v5l5.25-.41a2.5,2.5,0,0,0,0-5l-7.92-.43.66,4.91c-.26.07-.76-.64-.68-.78-1.27,2,.83,4,2.82,3.67l1.4-.22c2.86-.45,2.05-4.85-.67-4.91l-3.24-.07.67,4.91,5.66-.77c2.46-.34,2.32-4.36,0-4.82l-7.68-1.53v4.82l10-1.76a2.47,2.47,0,0,0,1.79-2.75,2.52,2.52,0,0,0-2.46-2.16l-5.07-.24,1.77,4.27,2.6-2.14c1.8-1.47.21-4.17-1.76-4.27l-5.28-.26c-3.23-.17-3.2,4.79,0,5l3.89.24-.66-4.91-4.81.83c-2.52.44-2.24,4.21,0,4.83l2,.56,1.33-4.82-2.13-.31-.66,4.91c2.61.21,5.58-.39,6.64-3.13a4.61,4.61,0,0,0-3.44-6v4.82l1.28-.32c2.72-.68,2.18-5-.66-4.91l-6,.17v5l4-.24-2.16-3.76L151.07,378a2.52,2.52,0,0,0,2.16,3.76l4.74.09a2.5,2.5,0,1,0,0-5l-2.37-.29v5c3.53,0,6.54-3.79,5.16-7.22a2.58,2.58,0,0,0-3.07-1.75,2.53,2.53,0,0,0-1.75,3.08c.18.44.14.89-.34.89a2.5,2.5,0,1,0,0,5l2.37.29v-5l-4.74-.09,2.15,3.76,1.06-1.91a2.52,2.52,0,0,0-2.16-3.76l-4,.24c-3.18.2-3.24,5.1,0,5l6-.17-.67-4.91-1.28.32a2.52,2.52,0,0,0,0,4.82c.75.17.1,0,.13-.07.82-3.1.15-.55,0-.65,0,0-.47.1-.47.1a8.15,8.15,0,0,1-1.56-.06c-2.78-.23-3.46,4.5-.67,4.91l2.13.31a2.59,2.59,0,0,0,3.08-1.75,2.53,2.53,0,0,0-1.75-3.07l-2.05-.57v4.83l4.82-.84a2.48,2.48,0,0,0,1.79-2.74,2.53,2.53,0,0,0-2.46-2.17l-3.89-.24v5l5.28.26L157,379.15l-2.6,2.13c-1.79,1.47-.21,4.18,1.76,4.27l5.07.24-.66-4.91-10,1.76c-2.42.42-2.36,4.35,0,4.82l7.68,1.53v-4.82l-5.66.77a2.47,2.47,0,0,0-1.79,2.74,2.5,2.5,0,0,0,2.45,2.17l3.24.07-.66-4.91-1.39.22,2.82,3.67a4.4,4.4,0,0,0-5-6.56c-2.79.77-2.1,4.76.67,4.91l7.92.43v-5l-5.25.41c-3.17.24-3.26,5,0,5a2.69,2.69,0,0,1,2.2,1.18v-3.54a3.77,3.77,0,0,1-2.91,1.41c-3.27.07-3.15,4.7,0,5l5.29.51-.67-4.91-6.71,1.49,1.93,4.57,5.45-2.88c2.16-1.14,1.21-4.8-1.26-4.66l-8.49.46c-2.26.13-3.67,3.53-1.26,4.66,2.67,1.25,6,2.63,6.72,5.79a2.52,2.52,0,0,0,4.82,0l.35-1.42a2.53,2.53,0,0,0-3.07-3.08,4.07,4.07,0,0,1-3-.22,2.55,2.55,0,0,0-3.68,1.5l-.74,2.37a2.52,2.52,0,0,0,2.41,3.17l2.39-.24a2.57,2.57,0,0,0,2.41-3.17c-.06-.38.48-.83.86-.94l-1.33-4.82a2,2,0,0,1-2.4-.25l-3,3.92a2.57,2.57,0,0,1,1.69,1.81c.12.53,0,1.78-.68,1.89h1.33l.36.28.65,1.1c-.16-.44-.17-.29,0,.42l-.64,1.11.15-.15-1.1.64.21-.06-3.08-1.75.24.62a2.57,2.57,0,0,0,2.41,1.83l4.53-.42a2.5,2.5,0,0,0,0-5l-3.66-.2L155,401l6.26-1.44a2.5,2.5,0,0,0-1.33-4.82l-7,1.36c-2.82.55-2.09,4.89.67,4.91l8.7.07-.67-4.91-8.41,2.67c-2.83.9-2.06,4.6.66,4.91l5.2.6a2.51,2.51,0,0,0,2.5-2.5,2.57,2.57,0,0,0-2.5-2.5Z"/><path class="cls-7" d="M160.68,374.92l-4.09-22.37c-.5-2.79-5-2.12-4.91.67l.66,25.51c.08,3.21,5.06,3.23,5,0L157,360.21l-4.91.67,3.36,15.45,4.82-1.32-2.28-7.66c-.79-2.63-5-2.23-4.91.66l.41,11.43a2.5,2.5,0,0,0,5,0,165.94,165.94,0,0,0-.63-28.37l-4.91.66a45.45,45.45,0,0,1,2,27.93c-.79,3.12,4,4.45,4.82,1.33a82.74,82.74,0,0,0,.21-40c-.67-2.72-5-2.16-4.91.67l.48,17.12,4.91-.66-4.83-19.25c-.67-2.68-5.12-2.2-4.91.66l1.25,16.63c.24,3.18,4.91,3.25,5,0l.56-19.6c.09-3.23-4.84-3.2-5,0l-.45,9.2c-.14,2.77,4.38,3.46,4.91.66l1.65-8.79-4.92-.66.11,9.81h5l-.58-15.37-4.91.66,3.47,11.28a2.5,2.5,0,0,0,2.74,1.79,2.47,2.47,0,0,0,2.17-2.46l-1.16-10a2.5,2.5,0,0,0-5,0l-.26,8.9,4.91-.67L156.47,328c-.63-2.21-4.4-2.55-4.82,0l-1.36,8.25h4.82l-.9-5.36c-.47-2.75-5.17-2.14-4.91.67l1.11,12.2c.29,3.17,4.85,3.26,5,0l.6-13-4.91.67,1.27,4.82c.81,3.11,5.64,1.79,4.82-1.33l-1.27-4.82c-.73-2.8-4.78-2.11-4.91.66l-.6,13h5l-1.11-12.2-4.91.66.9,5.36c.4,2.38,4.43,2.4,4.82,0l1.36-8.25h-4.82l3.65,12.92a2.52,2.52,0,0,0,4.92-.66l.26-8.9h-5l1.16,10,4.91-.66-3.47-11.27c-.81-2.62-5-2.25-4.91.66l.58,15.37c.12,3.2,5,3.23,5,0l-.11-9.81c0-2.72-4.37-3.52-4.91-.67l-1.64,8.8,4.91.66.45-9.2h-5l-.56,19.6h5l-1.25-16.63-4.91.67,4.83,19.25c.68,2.71,5,2.17,4.91-.67L160,341.67l-4.92.66a77,77,0,0,1-.2,37.33l4.82,1.33a50,50,0,0,0-2-30.59,2.53,2.53,0,0,0-2.74-1.79,2.47,2.47,0,0,0-2.17,2.46,165.94,165.94,0,0,1,.63,28.37h5L158,368l-4.91.67,2.28,7.65c.92,3.1,5.5,1.81,4.82-1.32l-3.36-15.46c-.6-2.77-5-2.14-4.91.66l.39,18.52h5l-.66-25.51-4.91.66,4.09,22.37a2.51,2.51,0,0,0,3.07,1.74,2.55,2.55,0,0,0,1.75-3.07Z"/><path class="cls-7" d="M152,286.78l-1,45a2.5,2.5,0,0,0,5,0c1.86-14.89,2-29.77,1.82-44.75l-2.5,2.5c.8-.07.09-.15.17-.06a2.43,2.43,0,0,1,.28.47,6.45,6.45,0,0,1,.18,2.59c0,1.9-.1,3.8-.15,5.7l-.3,11.67-.6,23.32c-.07,2.75,4.46,3.5,4.91.66l1.17-7.24a2.56,2.56,0,0,0-1.45-2.95,2.49,2.49,0,0,0-3.12,1l-3.57,7.28,4.66,1.26,1-23.9h-5l-.35,16.53a2.5,2.5,0,0,0,5,0L161,302.59h-5l-.53,5.64,4.91-.67L158.69,297a2.48,2.48,0,0,0-2.74-1.79,2.53,2.53,0,0,0-2.17,2.46l-.63,9.61h5l.07-27h-5l.58,7.36a2.57,2.57,0,0,0,2.5,2.5,2.52,2.52,0,0,0,2.5-2.5l-.58-7.36c-.25-3.16-5-3.26-5,0l-.07,27c0,3.25,4.78,3.19,5,0l.63-9.61-4.91.66,1.66,10.56a2.47,2.47,0,0,0,2.74,1.79,2.53,2.53,0,0,0,2.17-2.45l.53-5.64a2.52,2.52,0,0,0-2.5-2.5,2.56,2.56,0,0,0-2.5,2.5l-2.82,23.24h5l.35-16.53c.07-3.22-4.86-3.2-5,0l-1,23.9c-.11,2.41,3.56,3.49,4.65,1.26l3.57-7.27-4.57-1.93L155,332.5l4.91.67.68-26.3.33-12.9c.06-2.14.23-4.36-.7-6.35a5,5,0,0,0-4.89-3.14,2.57,2.57,0,0,0-2.5,2.5c.17,15,0,29.86-1.82,44.75h5l1-45c.07-3.22-4.93-3.22-5,0Z"/><path class="cls-7" d="M154.66,290l-.08,7.5c0,2.75,4.37,3.49,4.91.67L161.83,286c.38-2-1.7-4.1-3.67-2.82-4.67,3-5.54,8.69-4.77,13.82.71,4.79,3.38,10.55.42,15.07l4.66,1.26,1.17-8.83h-5l-2.27,17.86h5l1.1-16.53-4.91.67a110,110,0,0,1,1.24,25.82h5l-.84-7.7a2.5,2.5,0,0,0-5,0l-.5,4.68a2.52,2.52,0,0,0,2.5,2.5,2.56,2.56,0,0,0,2.5-2.5l.5-4.68h-5l.84,7.7a2.5,2.5,0,0,0,5,0,115.38,115.38,0,0,0-1.42-27.15,2.48,2.48,0,0,0-2.75-1.79,2.51,2.51,0,0,0-2.16,2.45l-1.1,16.53a2.52,2.52,0,0,0,2.5,2.5,2.56,2.56,0,0,0,2.5-2.5l2.27-17.86a2.51,2.51,0,0,0-2.5-2.5,2.56,2.56,0,0,0-2.5,2.5l-1.17,8.83a2.5,2.5,0,0,0,1.84,2.41,2.55,2.55,0,0,0,2.82-1.15c3-4.61,2-10.19.82-15.21-.83-3.62-2.09-9.4,1.73-11.88L157,284.63l-2.34,12.24,4.91.66.08-7.5c0-3.22-5-3.23-5,0Z"/><rect class="cls-5" x="82.62" y="447.83" width="30.86" height="69.33" transform="translate(-391.53 430.33) rotate(-72.43)"/><rect class="cls-8" x="92.67" y="440.47" width="15.43" height="69.33" transform="translate(-382.89 427.41) rotate(-72.43)"/><rect class="cls-2" x="82.62" y="447.83" width="30.86" height="69.33" transform="translate(-391.53 430.33) rotate(-72.43)"/><path class="cls-9" d="M59.68,489.74l65.59,20.76c-7,22-27.27,35.09-45.38,29.35S52.73,511.68,59.68,489.74Z"/><path class="cls-10" d="M59.68,489.74l65.59,20.76c-7,22-27.27,35.09-45.38,29.35S52.73,511.68,59.68,489.74Z"/><rect class="cls-11" x="28.9" y="328.33" width="213.62" height="69.31" transform="translate(-251.31 382.79) rotate(-72.43)"/><rect class="cls-12" x="45.41" y="350.89" width="213.62" height="34.65" transform="translate(-244.77 402.19) rotate(-72.43)"/><rect class="cls-10" x="28.9" y="328.33" width="213.62" height="69.31" transform="translate(-251.31 382.79) rotate(-72.43)"/><line class="cls-6" x1="146.28" y1="263.43" x2="152.4" y2="265.36"/><polygon class="cls-5" points="186.19 203.55 161.75 225.88 137.31 248.22 168.88 258.22 200.44 268.21 193.31 235.88 186.19 203.55"/><polygon class="cls-9" points="186.19 203.55 178.63 210.45 171.09 217.35 180.84 220.44 190.59 223.53 188.39 213.54 186.19 203.55"/><polygon class="cls-10" points="186.19 203.55 161.75 225.88 137.31 248.22 168.88 258.22 200.44 268.21 193.31 235.88 186.19 203.55"/><rect class="cls-13" x="423.11" y="38.48" width="38.73" height="311.47" transform="translate(-9.36 365.54) rotate(-44.46)"/><rect class="cls-14" x="395.46" y="65.62" width="38.73" height="311.47" transform="translate(-36.28 353.95) rotate(-44.46)"/><line class="cls-6" x1="525.76" y1="362.02" x2="510.1" y2="346.06"/><line class="cls-6" x1="291.92" y1="123.77" x2="276.82" y2="108.38"/><rect class="cls-2" x="389.92" y="52.05" width="77.47" height="311.47" transform="translate(-22.82 359.75) rotate(-44.46)"/><line class="cls-2" x1="500.68" y1="335.86" x2="514.2" y2="322.59"/><line class="cls-2" x1="486.86" y1="321.77" x2="508.18" y2="300.84"/><line class="cls-2" x1="474.98" y1="309.66" x2="488.49" y2="296.4"/><line class="cls-2" x1="463.1" y1="297.56" x2="484.43" y2="276.63"/><line class="cls-2" x1="451" y1="285.23" x2="464.51" y2="271.97"/><line class="cls-2" x1="439.01" y1="273.02" x2="460.34" y2="252.09"/><line class="cls-2" x1="427.02" y1="260.8" x2="440.54" y2="247.54"/><line class="cls-2" x1="414.17" y1="247.71" x2="435.5" y2="226.78"/><line class="cls-2" x1="401.32" y1="234.61" x2="414.83" y2="221.35"/><line class="cls-2" x1="389.44" y1="222.51" x2="410.77" y2="201.58"/><line class="cls-2" x1="375.61" y1="208.42" x2="389.13" y2="195.16"/><line class="cls-2" x1="363.73" y1="196.32" x2="385.06" y2="175.39"/><line class="cls-2" x1="351.85" y1="184.21" x2="365.37" y2="170.95"/><line class="cls-2" x1="339.98" y1="172.11" x2="361.3" y2="151.18"/><line class="cls-2" x1="326.15" y1="158.02" x2="339.66" y2="144.76"/><line class="cls-2" x1="314.27" y1="145.92" x2="335.6" y2="124.99"/><line class="cls-2" x1="302.39" y1="133.82" x2="315.9" y2="120.55"/><rect class="cls-15" x="221.73" y="235.04" width="170.35" height="108.63" rx="27.66"/><path class="cls-1" d="M392.08,262.7V316a27.67,27.67,0,0,1-27.66,27.66H306.9V235h57.52A27.66,27.66,0,0,1,392.08,262.7Z"/><rect class="cls-2" x="221.73" y="235.04" width="170.35" height="108.63" rx="27.66"/><circle class="cls-7" cx="263.73" cy="273.51" r="20.65"/><circle class="cls-11" cx="263.73" cy="273.51" r="15.56"/><circle class="cls-7" cx="356.29" cy="273.72" r="20.65"/><circle class="cls-11" cx="356.29" cy="273.72" r="15.56"/><rect class="cls-4" x="265.86" y="305.04" width="82.08" height="17.01" rx="7.73"/><line class="cls-2" x1="306.9" y1="235.04" x2="306.9" y2="215.47"/><circle class="cls-3" cx="306.9" cy="207.51" r="7.96"/></svg>
