<svg id="Layer_1" data-name="Layer 1" xmlns="http://www.w3.org/2000/svg" viewBox="0 0 601 601"><defs><style>.cls-1,.cls-4,.cls-8{fill:none;}.cls-1,.cls-9{stroke:#1e1e1c;}.cls-1,.cls-4,.cls-9{stroke-miterlimit:10;stroke-width:10px;}.cls-2,.cls-9{fill:#d9633b;}.cls-3{fill:#bfbdbb;}.cls-4{stroke:#1d1d1b;}.cls-5{fill:#ffd160;}.cls-6{fill:#f9b54c;}.cls-7{fill:#4b4a4a;}</style></defs><title>Artboard 1</title><circle class="cls-1" cx="303.5" cy="293.5" r="247.93"/><circle class="cls-2" cx="303.5" cy="293.5" r="180.2"/><path class="cls-3" d="M479.67,406.08c0-.34-.07-.67-.12-1a62.77,62.77,0,0,0-2.41-11c-.31-1-.65-2-1-2.94l-.37-1c-.35-.86-.7-1.72-1.08-2.57s-.77-1.69-1.19-2.53q-.94-1.89-2-3.72c-.24-.41-.48-.82-.73-1.22a64.82,64.82,0,0,0-12.45-14.73l-1.38-1.17c-1.39-1.16-2.83-2.25-4.29-3.28-.49-.34-1-.68-1.49-1q-2.23-1.47-4.57-2.75c-.52-.29-1-.57-1.57-.83h0c-1.05-.54-2.12-1.05-3.19-1.53-.54-.24-1.08-.47-1.63-.69-1.63-.68-3.27-1.29-4.95-1.83s-3.36-1-5.07-1.42c-1.13-.27-2.27-.51-3.43-.72a66.77,66.77,0,0,0-12.22-1.11h-1.37l-1.16,0c-1.39.05-2.77.15-4.15.29l-.61.06-1,.13-1.2.15-.26,0c-.43.07-.87.13-1.3.21s-1.09.18-1.63.29l-1.12.23-1.24.27-.77.19c-.63.15-1.27.31-1.9.48a65.87,65.87,0,0,0-24.24,12.5A63.79,63.79,0,0,0,355.67,385l-.17.32-.15.33c-.15.29-.29.58-.42.88-.23.49-.46,1-.67,1.49s-.34.8-.5,1.21a3.2,3.2,0,0,0-.16.39c-.14.34-.28.68-.4,1s-.21.55-.3.82-.12.32-.17.47c-.18.49-.35,1-.51,1.48,0,0,0,0,0,0-.18.51-.34,1-.49,1.55-.05.16-.1.33-.14.49-.1.33-.19.65-.28,1l-.21.79c-.1.38-.19.75-.28,1.13a4.54,4.54,0,0,0-.12.53c-.1.41-.19.83-.27,1.25a3,3,0,0,0-.09.41c-.09.42-.17.85-.24,1.28a5.4,5.4,0,0,0-.1.58c-.07.32-.12.63-.16,1s-.09.54-.12.81-.12.81-.16,1.21a3.44,3.44,0,0,0-.05.45c-.05.36-.08.71-.12,1.06s-.05.56-.07.84c-.05.54-.09,1.07-.12,1.6s-.06,1.2-.07,1.8,0,1.2,0,1.8c0,1.81.08,3.61.24,5.42.08.9.17,1.8.29,2.7a61.94,61.94,0,0,0,3.26,13.28c.31.87.65,1.73,1,2.59s.73,1.71,1.12,2.55.82,1.68,1.26,2.52.89,1.65,1.37,2.47c.24.41.48.81.74,1.22.49.81,1,1.61,1.55,2.41a63.2,63.2,0,0,0,4.43,5.77c.3.36.61.71.91,1s.63.69.94,1c.63.68,1.28,1.33,1.94,2,.86.87,1.76,1.7,2.67,2.49a64.82,64.82,0,0,0,5.67,4.45l1.49,1a68.54,68.54,0,0,0,6.14,3.57h0c1.05.54,2.11,1,3.18,1.53.54.24,1.08.47,1.63.69s.81.34,1.23.49c1.22.48,2.46.93,3.71,1.34q2.53.81,5.08,1.42c1.14.27,2.28.51,3.43.72a66.53,66.53,0,0,0,54.19-13.77,64.58,64.58,0,0,0,10.19-10.41q1.65-2.12,3.09-4.34,1-1.47,1.83-3c.58-1,1.14-2,1.66-3.07q1.17-2.34,2.14-4.74c.22-.54.43-1.08.62-1.62q.94-2.52,1.66-5.11c.28-1,.54-2.08.77-3.12.13-.56.24-1.12.35-1.68s.21-1.09.3-1.63c0-.07,0-.14,0-.22.09-.51.17-1,.24-1.53s.14-1.05.19-1.58c0-.12,0-.24,0-.36.05-.41.09-.82.12-1.24,0-.23.05-.47.06-.7l.06-.83c0-.31,0-.63,0-1s0-.44,0-.66,0-.67,0-1,0-.78,0-1.16A62,62,0,0,0,479.67,406.08Zm-41.74,42.19H395.82l-21.05-35.56L381,402.14l14.79-25h42.11L459,412.71Z"/><polygon class="cls-3" points="414.52 372.08 373.39 405.65 195.57 198.47 236.71 164.9 414.52 372.08"/><polygon class="cls-3" points="267.81 259.86 276.88 252.45 276.88 252.45 267.81 259.86 267.81 259.86"/><path class="cls-3" d="M235.87,81.64c28.7,33.44,24.17,83.24-10.13,111.23S140.37,216.43,111.67,183a77.38,77.38,0,0,1-15.26-74l6.56,19.6,63.58,33.29,41.16-33.59-22.4-66.89-15.16-7.94A81.74,81.74,0,0,1,235.87,81.64Z"/><path class="cls-1" d="M480,413.75a62.28,62.28,0,0,1-1.48,12.68,61.08,61.08,0,0,1-2.43,8.23c-.19.54-.4,1.08-.62,1.62q-1,2.4-2.14,4.74c-.52,1-1.08,2.06-1.66,3.07s-1.19,2-1.83,3q-1.44,2.22-3.09,4.34a64.58,64.58,0,0,1-10.19,10.41,66.53,66.53,0,0,1-54.19,13.77c-1.15-.21-2.29-.45-3.43-.72q-2.55-.61-5.08-1.42c-1.66-.54-3.32-1.15-4.94-1.83-.55-.22-1.09-.45-1.63-.69q-1.6-.72-3.18-1.53h0a64,64,0,0,1-6.14-3.57l-1.49-1a63,63,0,0,1-5.67-4.45c-.91-.79-1.81-1.62-2.67-2.49-1.32-1.27-2.58-2.63-3.8-4a64.4,64.4,0,0,1-6.71-9.4c-.48-.82-.94-1.65-1.37-2.47s-.86-1.68-1.26-2.52-.77-1.7-1.12-2.55-.7-1.72-1-2.59A61.94,61.94,0,0,1,349.63,421c-.12-.9-.21-1.8-.29-2.7-.16-1.81-.24-3.61-.24-5.42q0-.9,0-1.8c0-.6,0-1.2.07-1.8s.07-1.06.12-1.6c0-.28.05-.56.07-.84s.07-.7.12-1.06a3.44,3.44,0,0,1,.05-.45c0-.4.1-.8.16-1.21s.07-.53.12-.81.09-.63.16-1a5.4,5.4,0,0,1,.1-.58c.07-.43.15-.86.24-1.28a3,3,0,0,1,.09-.41c.08-.42.17-.84.27-1.25a4.54,4.54,0,0,1,.12-.53c.09-.38.18-.75.28-1.13l.21-.79c.09-.32.18-.64.28-1,0-.16.09-.33.14-.49.15-.52.31-1,.49-1.55,0,0,0,0,0,0,.16-.5.33-1,.51-1.48,0-.15.1-.31.17-.47s.19-.54.3-.82.26-.68.4-1a3.2,3.2,0,0,1,.16-.39c.16-.41.33-.81.5-1.21s.44-1,.67-1.49c.13-.3.27-.59.42-.88s.21-.44.31-.65h0l19.1,22.25,6.26-5.11-6.26,10.57,21.05,35.56h42.11L459,412.71l-21.05-35.55H411.64l4.26-3.47-19.11-22.26c.63-.17,1.27-.33,1.9-.48l.77-.19,1.24-.27,1.12-.23c.54-.11,1.08-.2,1.63-.29s.87-.14,1.3-.21l.26,0,1.2-.15,1-.13.61-.06c1.38-.14,2.76-.24,4.15-.29l1.16,0h1.37a66.77,66.77,0,0,1,12.22,1.11c1.16.21,2.3.45,3.43.72,1.71.41,3.41.88,5.07,1.42s3.32,1.15,4.95,1.83c.55.22,1.09.45,1.63.69,1.07.48,2.14,1,3.19,1.53h0a62.93,62.93,0,0,1,6.14,3.58c.5.32,1,.66,1.49,1a65,65,0,0,1,18.12,19.18c1,1.61,1.91,3.26,2.74,4.94.42.84.82,1.68,1.19,2.53s.73,1.71,1.08,2.57a62.27,62.27,0,0,1,3.9,15.93A61.45,61.45,0,0,1,480,413.75Z"/><path class="cls-1" d="M243.38,172.68,396.8,351.43a65.76,65.76,0,0,0-24.25,12.5A63.89,63.89,0,0,0,355.67,385L202.25,206.25a81.39,81.39,0,0,0,23.49-13.38A79.1,79.1,0,0,0,243.38,172.68Z"/><path class="cls-1" d="M236.71,164.9l6.67,7.78a79.1,79.1,0,0,1-17.64,20.19,81.39,81.39,0,0,1-23.49,13.38l-6.68-7.79Z"/><path class="cls-1" d="M235.87,81.64a77.39,77.39,0,0,1,7.51,91l-6.67-7.78-41.14,33.56,6.68,7.79C171,217.71,134.34,209.4,111.67,183a77.38,77.38,0,0,1-15.26-74l6.56,19.6,63.58,33.29,41.16-33.59-22.4-66.89-15.16-7.94A81.71,81.71,0,0,1,235.87,81.64Z"/><polygon class="cls-3" points="407.71 369.38 370.97 399.37 190.44 189.02 227.18 159.03 407.71 369.38"/><polygon class="cls-3" points="356.4 391.38 371.22 379.29 387.44 398.19 372.63 410.29 356.4 391.38"/><polygon class="cls-3" points="388 364.24 402.81 352.15 416.41 367.99 401.59 380.08 388 364.24"/><polygon class="cls-4" points="458.98 412.71 437.93 448.27 395.82 448.27 374.77 412.71 381.03 402.14 411.64 377.16 437.93 377.16 458.98 412.71"/><rect class="cls-3" x="408.35" y="366.8" width="14.72" height="7"/><ellipse class="cls-5" cx="266.04" cy="327.32" rx="183.25" ry="17.07" transform="translate(-153.13 280.32) rotate(-44.5)"/><path class="cls-6" d="M396.75,198.88,135.33,455.76c-6.61-6.72,46.56-69.67,118.75-140.61S390.15,192.16,396.75,198.88Z"/><ellipse class="cls-4" cx="266.04" cy="327.32" rx="183.25" ry="17.07" transform="translate(-153.13 280.32) rotate(-44.5)"/><polygon class="cls-7" points="422.67 173.59 444.58 196.04 431.62 208.69 396.75 198.88 422.67 173.59"/><polygon class="cls-3" points="400.77 151.14 422.67 173.59 396.75 198.88 387.81 163.78 400.77 151.14"/><line class="cls-8" x1="396.75" y1="198.88" x2="392.91" y2="202.63"/><polygon class="cls-1" points="400.77 151.14 444.58 196.04 431.62 208.69 396.75 198.88 387.81 163.78 400.77 151.14"/><polygon class="cls-9" points="400.77 151.14 422.67 99.13 428.68 119.47 432.19 82.3 444.58 92.82 456.03 72.48 466.55 85.81 474.96 67.58 489.69 67.58 489.69 83 504.42 63.37 507.22 87.21 497.4 97.73 515.63 94.92 515.63 107.25 505.82 116.66 519.14 117.36 509.32 129.99 521.95 144.01 504.42 147.52 519.14 156.63 486.88 159.44 509.32 168.55 473.56 168.55 487.59 179.91 461.36 179.91 444.58 196.04 400.77 151.14"/></svg>
