<svg id="Layer_1" data-name="Layer 1" xmlns="http://www.w3.org/2000/svg" viewBox="0 0 601 601"><defs><style>.cls-1{fill:#f5b9ae;}.cls-2{fill:#f29487;}.cls-3,.cls-6,.cls-7{fill:none;stroke-miterlimit:10;stroke-width:10px;}.cls-3{stroke:#1e1e1c;}.cls-4{fill:#d9633b;}.cls-5{fill:#e99e52;}.cls-6{stroke:#000;}.cls-7{stroke:#d9633b;}</style></defs><title>Artboard 1</title><circle class="cls-1" cx="409.68" cy="150.7" r="47.1"/><path class="cls-2" d="M450.79,173.68a47.48,47.48,0,0,1-53.88,23.21c36.92-27.88,41.82-64.47,41.53-83.6A47.43,47.43,0,0,1,450.79,173.68Z"/><circle class="cls-3" cx="409.68" cy="150.7" r="47.1"/><rect class="cls-4" x="243.38" y="246.35" width="217.59" height="129.81" rx="48.49" transform="translate(-62.75 532.04) rotate(-69.49)"/><path class="cls-5" d="M390.29,209.35l15.38,5.76a48.48,48.48,0,0,1,28.42,62.4l-42.26,113a48.48,48.48,0,0,1-62.4,28.42l-15.38-5.75Z"/><path class="cls-6" d="M437.24,269.08,388.68,398.91a39.49,39.49,0,0,1-50.83,23.14l-46.14-17.26A39.48,39.48,0,0,1,268.56,354l48.56-129.82A39.49,39.49,0,0,1,368,201l46.14,17.26A39.49,39.49,0,0,1,437.24,269.08Z"/><polyline class="cls-6" points="384.1 261.89 437.06 360.62 506.42 337.7"/><polyline class="cls-6" points="301.34 261.89 223.69 256.29 194.79 300.33"/><polyline class="cls-6" points="409.68 532.91 409.68 455.84 380.38 412.21"/><polyline class="cls-6" points="163.13 424.57 227.82 472.56 291.7 404.79"/><line class="cls-6" x1="230.44" y1="182.13" x2="159.95" y2="88.48"/><line class="cls-6" x1="184.02" y1="244.62" x2="83.68" y2="209.72"/><line class="cls-7" x1="202.05" y1="188.69" x2="188.85" y2="162.64"/><line class="cls-7" x1="188.65" y1="195.24" x2="141.92" y2="173.15"/><line class="cls-7" x1="195.61" y1="207.23" x2="169.09" y2="219.47"/><line class="cls-6" x1="170.85" y1="333.33" x2="57.47" y2="363.03"/><line class="cls-7" x1="152.66" y1="310.57" x2="126.15" y2="322.81"/><line class="cls-7" x1="146.21" y1="297.11" x2="95.86" y2="285.45"/><line class="cls-7" x1="159.11" y1="292.03" x2="145.91" y2="265.98"/></svg>
