<svg id="Layer_1" data-name="Layer 1" xmlns="http://www.w3.org/2000/svg" viewBox="0 0 601 601"><defs><style>.cls-1{fill:#ed6e5c;}.cls-2{fill:#ea5742;}.cls-3,.cls-4{fill:#f1f1ee;}.cls-4{font-size:100px;font-family:Montserrat-Bold, Montserrat;font-weight:700;}.cls-5{letter-spacing:-0.01em;}.cls-6{letter-spacing:-0.03em;}.cls-7{letter-spacing:-0.01em;}</style></defs><title>Artboard 1</title><circle class="cls-1" cx="299.18" cy="309.08" r="267.43"/><circle class="cls-2" cx="301.02" cy="308.19" r="217.4"/><path class="cls-3" d="M248.17,76A186.91,186.91,0,0,0,186,96.85a193,193,0,0,0-51.54,40.64,184.84,184.84,0,0,0-21.85,29.87c-1.63,2.79,2.69,5.3,4.32,2.53A182.89,182.89,0,0,1,158.8,121.1a187.5,187.5,0,0,1,55.4-31.46,181.9,181.9,0,0,1,35.29-8.8,2.52,2.52,0,0,0,1.75-3.08A2.57,2.57,0,0,0,248.17,76Z"/><path class="cls-3" d="M107.8,186.38v-2.25a1.88,1.88,0,0,0-.22-1,1.85,1.85,0,0,0-.52-.81,1.83,1.83,0,0,0-.8-.51,1.88,1.88,0,0,0-1-.22l-.67.09a2.5,2.5,0,0,0-1.1.64l-.39.51a2.43,2.43,0,0,0-.34,1.26v2.25a1.8,1.8,0,0,0,.21,1,2.3,2.3,0,0,0,1.32,1.32,1.8,1.8,0,0,0,1,.21l.66-.09a2.41,2.41,0,0,0,1.1-.64l.39-.5a2.55,2.55,0,0,0,.35-1.27Z"/><path class="cls-3" d="M94,204.65c3.22,0,3.23-5,0-5s-3.22,5,0,5Z"/><path class="cls-3" d="M85.27,231.43v-2.25a1.88,1.88,0,0,0-.22-1,2.16,2.16,0,0,0-1.32-1.32,1.86,1.86,0,0,0-1-.22l-.66.09a2.48,2.48,0,0,0-1.11.64l-.39.51a2.53,2.53,0,0,0-.34,1.26v2.25a1.9,1.9,0,0,0,.22,1,1.83,1.83,0,0,0,.51.8,2.75,2.75,0,0,0,1.77.73l.66-.09a2.39,2.39,0,0,0,1.11-.64l.39-.5a2.44,2.44,0,0,0,.34-1.27Z"/><path class="cls-3" d="M68.2,253a219.27,219.27,0,0,0-12.29,64.78,224.1,224.1,0,0,0,7.2,65.57,217.35,217.35,0,0,0,12.65,35.27,2.52,2.52,0,0,0,3.42.9,2.57,2.57,0,0,0,.9-3.42A213.15,213.15,0,0,1,62.5,354.13a219.69,219.69,0,0,1,1.33-64.61A214.36,214.36,0,0,1,73,254.3a2.52,2.52,0,0,0-1.75-3.07A2.55,2.55,0,0,0,68.2,253Z"/><path class="cls-3" d="M342.4,546.42a215.14,215.14,0,0,0,40-9.49,228.37,228.37,0,0,0,37.82-16.84,233.11,233.11,0,0,0,34.22-23.37,226.41,226.41,0,0,0,29.31-28.86,218.31,218.31,0,0,0,23.66-34q1.24-2.2,2.44-4.46c1.51-2.84-2.81-5.37-4.32-2.52a212.55,212.55,0,0,1-22.32,33.78,226.18,226.18,0,0,1-97.71,69.85,216.31,216.31,0,0,1-39.42,10.3c-1.68.27-3.35.52-5,.75-1.34.18-2.07,1.89-1.75,3.07a2.58,2.58,0,0,0,3.08,1.75Z"/><path class="cls-3" d="M523.61,396.51l2.26,2.25a2,2,0,0,0,.8.52,2.32,2.32,0,0,0,1.93,0,2,2,0,0,0,.8-.52l.39-.51a2.43,2.43,0,0,0,.34-1.26l-.08-.66a2.55,2.55,0,0,0-.65-1.11L527.15,393a1.92,1.92,0,0,0-.8-.52,2.32,2.32,0,0,0-1.93,0,2,2,0,0,0-.81.52l-.39.51a2.53,2.53,0,0,0-.34,1.26l.09.66a2.53,2.53,0,0,0,.64,1.11Z"/><path class="cls-3" d="M532.5,371.09v4.5a2.59,2.59,0,0,0,.73,1.77,2.57,2.57,0,0,0,1.77.73,2.53,2.53,0,0,0,1.77-.73,2.59,2.59,0,0,0,.73-1.77v-4.5a2.59,2.59,0,0,0-.73-1.77,2.51,2.51,0,0,0-3.54,0,2.59,2.59,0,0,0-.73,1.77Z"/><path class="cls-3" d="M545.59,334.38a255.27,255.27,0,0,0-9.17-83.4q-3.23-11.4-7.5-22.46a2.58,2.58,0,0,0-3.08-1.75,2.52,2.52,0,0,0-1.74,3.08,251.12,251.12,0,0,1,16.72,80.85q.43,11.83-.23,23.68c-.18,3.21,4.82,3.2,5,0Z"/><text class="cls-4" transform="translate(137.78 341.85)"><tspan class="cls-5">S</tspan><tspan class="cls-6" x="62.8" y="0">T</tspan><tspan x="121.1" y="0">A</tspan><tspan class="cls-7" x="197.7" y="0">R</tspan><tspan x="270.2" y="0">T</tspan></text><path class="cls-3" d="M534.14,353.07v2.25a2.83,2.83,0,0,0,.74,1.77,1.83,1.83,0,0,0,.8.51,1.88,1.88,0,0,0,1,.22l.67-.09a2.5,2.5,0,0,0,1.1-.64l.39-.51a2.43,2.43,0,0,0,.34-1.26v-2.25a1.8,1.8,0,0,0-.21-1,1.82,1.82,0,0,0-.52-.8,1.85,1.85,0,0,0-.8-.52,1.89,1.89,0,0,0-1-.21l-.66.09a2.5,2.5,0,0,0-1.1.64l-.39.51a2.54,2.54,0,0,0-.35,1.26Z"/></svg>
