<svg id="Layer_1" data-name="Layer 1" xmlns="http://www.w3.org/2000/svg" viewBox="0 0 601 601"><defs><style>.cls-1{fill:#c2c1c1;}.cls-2{fill:#4b4a4a;}.cls-3{fill:#bfbebc;stroke:#1d1d1b;}.cls-3,.cls-4{stroke-miterlimit:10;}.cls-3,.cls-5{stroke-width:20px;}.cls-4,.cls-5{fill:none;}.cls-4{stroke:#4b4a4a;stroke-width:10px;}.cls-5{stroke:#000;stroke-linecap:round;stroke-linejoin:round;}</style></defs><title>Artboard 2</title><circle class="cls-1" cx="292.45" cy="285.79" r="236.25"/><circle class="cls-2" cx="297.24" cy="285.79" r="169.43"/><path class="cls-3" d="M292.45,49.54C162,49.54,56.21,155.31,56.21,285.79S162,522,292.45,522,528.7,416.26,528.7,285.79,422.93,49.54,292.45,49.54Zm4.3,33a54.27,54.27,0,1,1-54.27,54.28A54.28,54.28,0,0,1,296.75,82.5ZM103.24,252.19a54.27,54.27,0,1,1,54.27,54.27A54.27,54.27,0,0,1,103.24,252.19Zm108.54,203.7a54.28,54.28,0,1,1,54.27-54.28A54.28,54.28,0,0,1,211.78,455.89Zm164.13-1.21a54.27,54.27,0,1,1,54.27-54.27A54.27,54.27,0,0,1,375.91,454.68Zm54.27-149.43A54.27,54.27,0,1,1,484.45,251,54.27,54.27,0,0,1,430.18,305.25Z"/><circle class="cls-4" cx="297.85" cy="284.67" r="41.39"/><path class="cls-5" d="M453,467s62.12,99.43,133,58.83"/></svg>
