<svg id="Layer_1" data-name="Layer 1" xmlns="http://www.w3.org/2000/svg" viewBox="0 0 601 601"><defs><style>.cls-1{fill:#bfbebc;}.cls-2,.cls-5,.cls-6{fill:none;}.cls-3{fill:#ea5742;}.cls-4{fill:#f9b216;}.cls-5{stroke:#1d1d1b;}.cls-5,.cls-6{stroke-miterlimit:10;stroke-width:20px;}.cls-6{stroke:#d9633b;stroke-linecap:round;}</style></defs><title>Artboard 3</title><path class="cls-1" d="M500.69,66.76H100.31A54.34,54.34,0,0,0,46,121.1V483.74a54.34,54.34,0,0,0,54.34,54.34H500.69A54.34,54.34,0,0,0,555,483.74V121.1A54.34,54.34,0,0,0,500.69,66.76Zm10,393.06a42,42,0,0,1-42,42H130.17a42,42,0,0,1-42-42V248.15a42,42,0,0,1,42-42H468.69a42,42,0,0,1,42,42Zm0-300.27a10.6,10.6,0,0,1-10.6,10.6H189.42a10.61,10.61,0,0,1-10.6-10.6V139.77a10.61,10.61,0,0,1,10.6-10.6H500.07a10.6,10.6,0,0,1,10.6,10.6Z"/><path class="cls-2" d="M510.67,139.77v19.78a10.6,10.6,0,0,1-10.6,10.6H189.42a10.61,10.61,0,0,1-10.6-10.6V139.77a10.61,10.61,0,0,1,10.6-10.6H500.07A10.6,10.6,0,0,1,510.67,139.77Z"/><circle class="cls-3" cx="88.19" cy="149.66" r="12.44"/><circle class="cls-4" cx="120.53" cy="149.66" r="12.44"/><rect class="cls-2" x="88.19" y="206.17" width="422.48" height="295.63" rx="41.98"/><rect class="cls-5" x="88.19" y="206.17" width="422.48" height="295.64" rx="41.98"/><rect class="cls-5" x="178.82" y="129.17" width="331.85" height="40.98" rx="10.6"/><rect class="cls-5" x="45.97" y="66.76" width="509.06" height="471.32" rx="54.34"/><polyline class="cls-6" points="231.19 299.88 178.82 351.45 239.64 402.1"/><polyline class="cls-6" points="382.78 303.42 435.15 354.99 374.33 405.64"/><line class="cls-6" x1="360.41" y1="261.7" x2="265.64" y2="435.51"/></svg>
